SplineFontDB: 3.2
FontName: Caudex-Italic
FullName: Caudex Italic
FamilyName: Caudex
Weight: Book
Copyright: Copyright (c) The Caudex Project Authors https://github.com/nidud/caudex
Version: 2.0
ItalicAngle: -13
UnderlinePosition: -100
UnderlineWidth: 30
Ascent: 1638
Descent: 410
InvalidEm: 0
sfntRevision: 0x00020000
LayerCount: 2
Layer: 0 1 "Back" 1
Layer: 1 1 "Fore" 0
XUID: [1021 646 -1554209282 2542]
StyleMap: 0x0001
FSType: 0
OS2Version: 0
OS2_WeightWidthSlopeOnly: 0
OS2_UseTypoMetrics: 0
CreationTime: 1305227018
ModificationTime: 1706840163
PfmFamily: 17
TTFWeight: 400
TTFWidth: 5
LineGap: 0
VLineGap: 0
Panose: 2 4 5 2 5 5 5 3 3 4
OS2TypoAscent: 2034
OS2TypoAOffset: 0
OS2TypoDescent: -606
OS2TypoDOffset: 0
OS2TypoLinegap: 0
OS2WinAscent: 2034
OS2WinAOffset: 0
OS2WinDescent: 606
OS2WinDOffset: 0
HheadAscent: 2034
HheadAOffset: 0
HheadDescent: -606
HheadDOffset: 0
OS2SubXSize: 1285
OS2SubYSize: 1230
OS2SubXOff: 0
OS2SubYOff: 0
OS2SupXSize: 655
OS2SupYSize: 860
OS2SupXOff: 0
OS2SupYOff: 550
OS2StrikeYSize: 100
OS2StrikeYPos: 530
OS2CapHeight: 1405
OS2XHeight: 931
OS2FamilyClass: 260
OS2Vendor: 'PfEd'
OS2CodePages: e000009f.dfd70000
OS2UnicodeRanges: e40002ff.5000f8fb.00008008.00000000
Lookup: 258 0 0 "'kern' Horizontal Kerning in Latin lookup 0" { "'kern' Horizontal Kerning in Latin lookup 0 subtable" [307,0,0] } ['kern' ('latn' <'dflt' > ) ]
DEI: 91125
KernClass2: 18 16 "'kern' Horizontal Kerning in Latin lookup 0 subtable"
 148 A Agrave Aacute Acircumflex Atilde Adieresis Aring Amacron Abreve Aogonek Aringacute uni1EA0 uni1EA2 uni1EA4 uni1EA6 uni1EA8 uni1EAA uni1EAC uni1EAE
 17 F uni03DC uni1E1E
 16 L Lacute uni1E36
 17 P uni1E54 uni1E56
 31 R Racute Rcaron uni1E58 uni1E5A
 24 T Tcaron uni1E6A uni1E6C
 63 V W Wcircumflex Wgrave Wacute Wdieresis uni1E7E uni1E86 uni1E88
 54 Y Ycircumflex Ydieresis uni0232 Ygrave uni1EF4 uni1EF6
 9 r uni1E5B
 108 v w y wcircumflex ycircumflex wgrave ygrave wacute wdieresis uni1D20 uni1D21 uni1E7F uni1E87 uni1E89 uni1E8F

StartChar: .notdef
Encoding: 65536 -1 0
Width: 772
GlyphClass: 1
Flags: W
LayerCount: 2
Fore
SplineSet
324 1404 m 1,0,-1
 1096 1404 l 1,1,-1
 772 0 l 1,2,-1
 0 0 l 1,3,-1
 324 1404 l 1,0,-1
328 244 m 2,5,-1
 312 175 l 2,6,7
 309 164 309 164 309 154 c 0,8,9
 309 102 309 102 388 102 c 0,10,11
 480 102 480 102 496 175 c 2,12,-1
 512 244 l 2,13,14
 515 255 515 255 515 265 c 0,15,16
 515 317 515 317 437 317 c 0,17,4
 345 317 345 317 328 244 c 2,5,-1
515 504 m 2,18,-1
 553 653 l 2,19,20
 568 713 568 713 592 744 c 0,21,22
 615 773 615 773 673 805 c 0,23,24
 697 819 697 819 715 829 c 0,25,26
 879 917 879 917 912 1059 c 0,27,28
 920 1094 920 1094 920 1124 c 0,29,30
 920 1192 920 1192 879 1237 c 0,31,32
 818 1302 818 1302 684 1302 c 0,33,34
 554 1302 554 1302 464 1235 c 0,35,36
 374 1169 374 1169 347 1054 c 0,37,38
 341 1028 341 1028 353 1016 c 0,39,40
 364 1005 364 1005 394 1005 c 0,41,42
 420 1005 420 1005 441 1016 c 0,43,44
 458 1026 458 1026 464 1046 c 0,45,46
 500 1162 500 1162 542 1204 c 0,47,48
 583 1248 583 1248 651 1248 c 0,49,50
 728 1248 728 1248 757 1201 c 0,51,52
 772 1175 772 1175 772 1135 c 0,53,54
 772 1102 772 1102 762 1059 c 0,55,56
 742 971 742 971 688 908 c 0,57,58
 631 844 631 844 509 771 c 1,59,-1
 448 505 l 2,60,61
 441 474 441 474 441 451 c 0,62,63
 441 443 441 443 442 436 c 0,64,65
 444 411 444 411 459 411 c 0,66,67
 476 411 476 411 490 433 c 256,68,69
 504 455 504 455 515 504 c 2,18,-1
EndSplineSet
Validated: 1
EndChar

StartChar: exclam
Encoding: 33 33 4
Width: 550
GlyphClass: 1
Flags: W
LayerCount: 2
Fore
SplineSet
310 230 m 0,0,1
 403 230 403 230 403 168 c 0,2,3
 403 157 403 157 400 143 c 2,4,-1
 381 61 l 2,5,6
 361 -25 361 -25 251 -25 c 0,7,8
 158 -25 158 -25 158 37 c 0,9,10
 158 48 158 48 161 61 c 2,11,-1
 180 143 l 2,12,13
 200 230 200 230 310 230 c 0,0,1
386 386 m 2,14,15
 380 360 380 360 353 361 c 2,16,-1
 332 361 l 2,17,18
 307 361 307 361 313 386 c 2,19,-1
 459 1332 l 1,20,-1
 461 1341 l 2,21,22
 476 1405 476 1405 551 1405 c 2,23,-1
 617 1405 l 2,24,25
 681 1405 681 1405 681 1361 c 0,26,27
 681 1353 681 1353 679 1345 c 0,28,29
 679 1344 679 1344 678 1343 c 2,30,-1
 676 1332 l 1,31,-1
 386 386 l 2,14,15
EndSplineSet
Validated: 1
EndChar

StartChar: quotedbl
Encoding: 34 34 5
Width: 799
GlyphClass: 1
Flags: W
LayerCount: 2
Fore
SplineSet
446 969 m 2,0,1
 443 957 443 957 424 957 c 2,2,-1
 409 957 l 2,3,4
 391 957 391 957 394 969 c 2,5,-1
 443 1409 l 1,6,-1
 444 1413 l 2,7,8
 451 1443 451 1443 505 1443 c 2,9,-1
 552 1443 l 2,10,11
 600 1443 600 1443 600 1420 c 0,12,13
 600 1417 600 1417 599 1414 c 2,14,-1
 598 1409 l 1,15,-1
 446 969 l 2,0,1
820 969 m 2,16,17
 817 957 817 957 798 957 c 2,18,-1
 783 957 l 2,19,20
 765 957 765 957 768 969 c 2,21,-1
 817 1409 l 1,22,-1
 818 1413 l 2,23,24
 825 1443 825 1443 879 1443 c 2,25,-1
 926 1443 l 2,26,27
 974 1443 974 1443 974 1420 c 0,28,29
 974 1417 974 1417 973 1414 c 2,30,-1
 972 1409 l 1,31,-1
 820 969 l 2,16,17
EndSplineSet
Validated: 1
EndChar

StartChar: numbersign
Encoding: 35 35 6
Width: 1100
GlyphClass: 1
Flags: W
LayerCount: 2
Fore
SplineSet
250 19 m 2,0,-1
 397 382 l 1,1,-1
 118 382 l 2,2,3
 104 382 104 382 108 392 c 2,4,-1
 142 477 l 2,5,6
 146 487 146 487 160 487 c 2,7,-1
 439 487 l 1,8,-1
 551 762 l 1,9,-1
 272 762 l 2,10,11
 258 762 258 762 261 772 c 2,12,-1
 296 857 l 2,13,14
 300 867 300 867 314 867 c 2,15,-1
 593 867 l 1,16,-1
 740 1230 l 2,17,18
 747 1247 747 1247 757 1247 c 2,19,-1
 842 1247 l 2,20,21
 852 1247 852 1247 845 1230 c 2,22,-1
 698 867 l 1,23,-1
 885 867 l 1,24,-1
 1032 1230 l 2,25,26
 1039 1247 1039 1247 1050 1247 c 2,27,-1
 1134 1247 l 2,28,29
 1145 1247 1145 1247 1138 1230 c 2,30,-1
 991 867 l 1,31,-1
 1269 867 l 2,32,33
 1284 867 1284 867 1280 857 c 2,34,-1
 1245 772 l 2,35,36
 1242 762 1242 762 1227 762 c 2,37,-1
 949 762 l 1,38,-1
 837 487 l 1,39,-1
 1115 487 l 2,40,41
 1130 487 1130 487 1126 477 c 2,42,-1
 1092 392 l 2,43,44
 1089 382 1089 382 1073 382 c 2,45,-1
 795 382 l 1,46,-1
 648 19 l 2,47,48
 641 0 641 0 630 0 c 2,49,-1
 546 0 l 2,50,51
 535 0 535 0 542 19 c 2,52,-1
 689 382 l 1,53,-1
 502 382 l 1,54,-1
 355 19 l 2,55,56
 348 0 348 0 338 0 c 2,57,-1
 253 0 l 2,58,59
 243 0 243 0 250 19 c 2,0,-1
656 762 m 1,60,-1
 544 487 l 1,61,-1
 731 487 l 1,62,-1
 843 762 l 1,63,-1
 656 762 l 1,60,-1
EndSplineSet
Validated: 1
EndChar

StartChar: dollar
Encoding: 36 36 7
Width: 1100
GlyphClass: 1
Flags: W
LayerCount: 2
Fore
SplineSet
947 388 m 1,0,-1
 949 399 l 2,1,2
 955 427 955 427 955 452 c 0,3,4
 955 527 955 527 903 572 c 0,5,6
 871 600 871 600 797 622 c 0,7,8
 768 630 768 630 734 637 c 1,9,-1
 601 59 l 1,10,11
 648 68 648 68 713 98 c 0,12,13
 796 136 796 136 859 208 c 0,14,15
 923 282 923 282 947 388 c 1,0,-1
851 1561 m 1,16,-1
 947 1561 l 1,17,-1
 921 1448 l 1,18,19
 1133 1436 1133 1436 1263 1338 c 1,20,-1
 1190 1128 l 2,21,22
 1184 1110 1184 1110 1167 1110 c 2,23,-1
 1163 1110 l 2,24,25
 1150 1111 1150 1111 1145 1138 c 0,26,27
 1123 1228 1123 1228 1055 1292 c 0,28,29
 990 1354 990 1354 901 1359 c 1,30,-1
 776 820 l 1,31,32
 813 814 813 814 858 806 c 0,33,34
 920 796 920 796 994 772 c 0,35,36
 1068 747 1068 747 1100 700 c 0,37,38
 1131 654 1131 654 1144 596 c 0,39,40
 1149 574 1149 574 1149 548 c 0,41,42
 1149 507 1149 507 1137 459 c 0,43,44
 1086 240 1086 240 881 103 c 0,45,46
 775 32 775 32 668 0 c 0,47,48
 621 -14 621 -14 582 -23 c 1,49,-1
 551 -156 l 1,50,-1
 455 -156 l 1,51,-1
 482 -37 l 1,52,53
 448 -39 448 -39 429 -39 c 0,54,55
 423 -39 423 -39 418 -39 c 0,56,57
 279 -39 279 -39 161 0 c 1,58,-1
 127 264 l 2,59,60
 126 268 126 268 128 276 c 128,-1,61
 130 284 130 284 140.5 296 c 128,-1,62
 151 308 151 308 163 307 c 0,63,64
 174 304 174 304 181 278 c 0,65,66
 214 139 214 139 292 96 c 128,-1,67
 370 53 370 53 493 53 c 0,68,69
 498 53 498 53 503 53 c 1,70,-1
 642 653 l 1,71,72
 628 655 628 655 614 657 c 0,73,74
 507 669 507 669 423 714 c 0,75,76
 339 758 339 758 320 821 c 128,-1,77
 301 884 301 884 301 931 c 0,78,79
 301 973 301 973 311 1018 c 0,80,81
 354 1206 354 1206 515 1328 c 0,82,83
 653 1434 653 1434 825 1447 c 1,84,-1
 851 1561 l 1,16,-1
803 1353 m 1,85,86
 756 1346 756 1346 719 1330 c 0,87,88
 653 1302 653 1302 620 1274 c 128,-1,89
 587 1246 587 1246 560 1208 c 0,90,91
 533 1171 533 1171 516.5 1133 c 128,-1,92
 500 1095 500 1095 493.5 1066.5 c 128,-1,93
 487 1038 487 1038 487 1016 c 0,94,95
 487 1005 487 1005 488 994 c 0,96,97
 493 926 493 926 531 894 c 128,-1,98
 569 862 569 862 603 853 c 128,-1,99
 637 844 637 844 670 838 c 2,100,-1
 684 836 l 1,101,-1
 803 1353 l 1,85,86
EndSplineSet
Validated: 1
EndChar

StartChar: ampersand
Encoding: 38 38 9
Width: 1292
GlyphClass: 1
Flags: W
LayerCount: 2
Fore
SplineSet
947 302 m 1,0,-1
 1032 155 l 2,1,2
 1066 91 1066 91 1161 41 c 0,3,4
 1185 29 1185 29 1190 17 c 0,5,6
 1191 11 1191 11 1190 8 c 0,7,8
 1187 4 1187 4 1187 3 c 0,9,10
 1181 0 1181 0 1172 0 c 2,11,-1
 928 0 l 2,12,13
 893 0 893 0 865 66 c 0,14,15
 843 118 843 118 818 158 c 1,16,17
 714 59 714 59 613 13 c 0,18,19
 511 -32 511 -32 396 -32 c 0,20,21
 260 -32 260 -32 197 49 c 0,22,23
 163 95 163 95 163 174 c 0,24,25
 163 204 163 204 168 240 c 0,26,27
 170 252 170 252 174 264 c 0,28,29
 208 384 208 384 297 478 c 0,30,31
 381 570 381 570 558 672 c 1,32,33
 516 754 516 754 501 835 c 0,34,35
 496 857 496 857 496 887 c 0,36,37
 496 927 496 927 505 982 c 0,38,39
 506 991 506 991 511 1009 c 0,40,41
 546 1141 546 1141 648 1223 c 0,42,43
 746 1302 746 1302 870 1302 c 0,44,45
 873 1302 873 1302 876 1302 c 0,46,47
 1001 1302 1001 1302 1054 1236 c 0,48,49
 1088 1195 1088 1195 1088 1136 c 0,50,51
 1088 1109 1088 1109 1081 1079 c 2,52,-1
 1077 1062 l 1,53,54
 1046 957 1046 957 966 875 c 0,55,56
 881 789 881 789 729 706 c 1,57,-1
 916 355 l 1,58,-1
 1076 564 l 2,59,60
 1088 580 1088 580 1094 597 c 0,61,62
 1096 603 1096 603 1097 608 c 0,63,64
 1099 618 1099 618 1099 627 c 0,65,66
 1098 639 1098 639 1093 647 c 128,-1,67
 1088 655 1088 655 1087 664 c 0,68,69
 1087 668 1087 668 1088 671 c 2,70,-1
 1089 674 l 2,71,72
 1089 675 1089 675 1092 681 c 0,73,74
 1103 700 1103 700 1118 700 c 2,75,-1
 1376 700 l 2,76,77
 1386 700 1386 700 1389 694 c 0,78,79
 1390 693 1390 693 1389 690 c 2,80,-1
 1389 688 l 2,81,82
 1388 685 1388 685 1386 681 c 0,83,84
 1377 670 1377 670 1346 656 c 0,85,86
 1329 649 1329 649 1309.5 641 c 128,-1,87
 1290 633 1290 633 1271 622 c 0,88,89
 1186 574 1186 574 1116 496 c 128,-1,90
 1046 418 1046 418 947 302 c 1,0,-1
702 759 m 1,91,92
 805 813 805 813 863 881 c 0,93,94
 919 948 919 948 951 1051 c 1,95,-1
 954 1066 l 2,96,97
 963 1102 963 1102 963 1133 c 0,98,99
 963 1160 963 1160 956 1183 c 0,100,101
 940 1236 940 1236 853 1236 c 0,102,103
 785 1236 785 1236 736 1191 c 0,104,105
 685 1143 685 1143 662 1062 c 0,106,107
 658 1051 658 1051 656 1041 c 0,108,109
 647 1000 647 1000 647 959 c 0,110,111
 647 859 647 859 702 759 c 1,91,92
790 214 m 1,112,-1
 580 615 l 1,113,114
 397 501 397 501 351 337 c 0,115,116
 348 327 348 327 345 316 c 0,117,118
 336 278 336 278 336 244 c 0,119,120
 336 187 336 187 361 142 c 0,121,122
 404 62 404 62 498 62 c 0,123,124
 579 62 579 62 652.5 106 c 128,-1,125
 726 150 726 150 790 214 c 1,112,-1
EndSplineSet
Validated: 1
EndChar

StartChar: quotesingle
Encoding: 39 39 10
Width: 426
GlyphClass: 1
Flags: W
LayerCount: 2
Fore
SplineSet
446 969 m 2,0,1
 443 957 443 957 424 957 c 2,2,-1
 409 957 l 2,3,4
 391 957 391 957 394 969 c 2,5,-1
 443 1409 l 1,6,-1
 444 1413 l 2,7,8
 451 1443 451 1443 505 1443 c 2,9,-1
 552 1443 l 2,10,11
 600 1443 600 1443 600 1420 c 0,12,13
 600 1417 600 1417 599 1414 c 2,14,-1
 598 1409 l 1,15,-1
 446 969 l 2,0,1
EndSplineSet
Validated: 1
EndChar

StartChar: parenleft
Encoding: 40 40 11
Width: 628
GlyphClass: 1
Flags: W
LayerCount: 2
Fore
SplineSet
210 568 m 0,0,1
 264 802 264 802 417 1049 c 128,-1,2
 570 1296 570 1296 919 1467 c 0,3,4
 927 1471 927 1471 932 1471 c 0,5,6
 934 1471 934 1471 935 1470 c 0,7,8
 937 1467 937 1467 932 1442 c 2,9,-1
 925 1412 l 1,10,11
 647 1211 647 1211 539.5 1031.5 c 128,-1,12
 432 852 432 852 366 568 c 0,13,14
 318 361 318 361 318 210 c 0,15,16
 318 153 318 153 325 104 c 0,17,18
 350 -75 350 -75 535 -276 c 1,19,-1
 528 -306 l 2,20,21
 522 -331 522 -331 519 -334 c 0,22,23
 517 -335 517 -335 515 -335 c 0,24,25
 510 -335 510 -335 504 -331 c 0,26,27
 234 -160 234 -160 195 86 c 0,28,29
 179 189 179 189 179 291 c 0,30,31
 179 432 179 432 210 568 c 0,0,1
EndSplineSet
Validated: 1
EndChar

StartChar: parenright
Encoding: 41 41 12
Width: 628
GlyphClass: 1
Flags: W
LayerCount: 2
Fore
SplineSet
730 568 m 0,0,1
 676 334 676 334 523 87 c 128,-1,2
 370 -160 370 -160 22 -331 c 0,3,4
 14 -335 14 -335 9 -335 c 0,5,6
 7 -335 7 -335 5 -334 c 0,7,8
 3 -331 3 -331 8 -306 c 2,9,-1
 15 -276 l 1,10,11
 293 -75 293 -75 401 104.5 c 128,-1,12
 509 284 509 284 574 568 c 0,13,14
 622 776 622 776 622 927 c 0,15,16
 622 983 622 983 616 1032 c 0,17,18
 592 1211 592 1211 405 1412 c 1,19,-1
 412 1442 l 2,20,21
 418 1467 418 1467 421 1470 c 0,22,23
 423 1471 423 1471 426 1471 c 0,24,25
 431 1471 431 1471 437 1467 c 0,26,27
 708 1296 708 1296 746 1050 c 0,28,29
 762 947 762 947 762 846 c 0,30,31
 762 705 762 705 730 568 c 0,0,1
EndSplineSet
Validated: 1
EndChar

StartChar: asterisk
Encoding: 42 42 13
Width: 1100
GlyphClass: 1
Flags: W
LayerCount: 2
Fore
SplineSet
953 495 m 2,0,1
 979 475 979 475 961 453 c 2,2,-1
 921 408 l 2,3,4
 902 387 902 387 876 407 c 2,5,-1
 708 535 l 1,6,-1
 653 300 l 2,7,8
 644 262 644 262 618 262 c 2,9,-1
 566 262 l 2,10,11
 540 262 540 262 549 300 c 2,12,-1
 604 535 l 1,13,-1
 376 407 l 2,14,15
 340 387 340 387 331 408 c 2,16,-1
 313 453 l 2,17,18
 304 475 304 475 339 495 c 2,19,-1
 582 632 l 1,20,-1
 402 768 l 2,21,22
 376 788 376 788 395 810 c 2,23,-1
 434 855 l 2,24,25
 453 876 453 876 480 856 c 2,26,-1
 648 728 l 1,27,-1
 703 964 l 2,28,29
 711 1000 711 1000 737 1000 c 2,30,-1
 789 1000 l 2,31,32
 815 1000 815 1000 807 964 c 2,33,-1
 752 728 l 1,34,-1
 980 856 l 2,35,36
 1016 876 1016 876 1024 855 c 2,37,-1
 1043 810 l 2,38,39
 1052 788 1052 788 1016 768 c 2,40,-1
 774 632 l 1,41,-1
 953 495 l 2,0,1
EndSplineSet
Validated: 1
EndChar

StartChar: plus
Encoding: 43 43 14
Width: 1100
GlyphClass: 1
Flags: W
LayerCount: 2
Fore
SplineSet
614 579 m 1,0,-1
 334 579 l 2,1,2
 297 579 297 579 303 605 c 2,3,-1
 315 658 l 2,4,5
 321 684 321 684 358 684 c 2,6,-1
 638 684 l 1,7,-1
 703 964 l 2,8,9
 711 1000 711 1000 737 1000 c 2,10,-1
 789 1000 l 2,11,12
 815 1000 815 1000 807 964 c 2,13,-1
 742 684 l 1,14,-1
 1022 684 l 2,15,16
 1059 684 1059 684 1053 658 c 2,17,-1
 1041 605 l 2,18,19
 1035 579 1035 579 998 579 c 2,20,-1
 718 579 l 1,21,-1
 653 300 l 2,22,23
 644 262 644 262 618 262 c 2,24,-1
 566 262 l 2,25,26
 540 262 540 262 549 300 c 2,27,-1
 614 579 l 1,0,-1
EndSplineSet
Validated: 1
EndChar

StartChar: comma
Encoding: 44 44 15
Width: 480
GlyphClass: 1
Flags: W
LayerCount: 2
Fore
SplineSet
136 -226 m 0,0,1
 102 -249 102 -249 77 -249 c 0,2,3
 61 -249 61 -249 49 -240 c 1,4,5
 39 -224 39 -224 58.5 -206.5 c 128,-1,6
 78 -189 78 -189 106 -175 c 0,7,8
 212 -118 212 -118 251 -25 c 1,9,10
 158 -25 158 -25 158 37 c 0,11,12
 158 48 158 48 161 61 c 2,13,-1
 180 143 l 2,14,15
 200 230 200 230 310 230 c 0,16,17
 403 230 403 230 403 168 c 0,18,19
 403 157 403 157 400 143 c 2,20,-1
 381 61 l 1,21,22
 314 -126 314 -126 136 -226 c 0,0,1
EndSplineSet
Validated: 1
EndChar

StartChar: hyphen
Encoding: 45 45 16
Width: 1100
GlyphClass: 1
Flags: W
LayerCount: 2
Fore
SplineSet
327 549 m 2,0,-1
 991 549 l 2,1,2
 1028 549 1028 549 1022 523 c 2,3,-1
 1010 470 l 2,4,5
 1004 444 1004 444 967 444 c 2,6,-1
 303 444 l 2,7,8
 266 444 266 444 272 470 c 2,9,-1
 284 523 l 2,10,11
 290 549 290 549 327 549 c 2,0,-1
EndSplineSet
Validated: 1
EndChar

StartChar: period
Encoding: 46 46 17
Width: 480
GlyphClass: 1
Flags: W
LayerCount: 2
Fore
SplineSet
310 230 m 0,0,1
 403 230 403 230 403 168 c 0,2,3
 403 157 403 157 400 143 c 2,4,-1
 381 61 l 2,5,6
 361 -25 361 -25 251 -25 c 0,7,8
 158 -25 158 -25 158 37 c 0,9,10
 158 48 158 48 161 61 c 2,11,-1
 180 143 l 2,12,13
 200 230 200 230 310 230 c 0,0,1
EndSplineSet
Validated: 1
EndChar

StartChar: slash
Encoding: 47 47 18
Width: 1100
GlyphClass: 1
Flags: W
LayerCount: 2
Fore
SplineSet
42 -70 m 1,0,-1
 1242 1474 l 1,1,-1
 1382 1474 l 1,2,-1
 184 -70 l 1,3,-1
 42 -70 l 1,0,-1
EndSplineSet
Validated: 1
EndChar

StartChar: zero
Encoding: 48 48 19
Width: 1100
GlyphClass: 1
Flags: W
LayerCount: 2
Fore
SplineSet
867 1374 m 0,0,1
 679 1374 679 1374 610.5 1220 c 128,-1,2
 542 1066 542 1066 519 966 c 2,3,-1
 401 454 l 2,4,5
 377 352 377 352 377 204 c 0,6,7
 378 201 378 201 378 198 c 0,8,9
 378 46 378 46 532.5 46 c 128,-1,10
 687 46 687 46 778.5 166 c 128,-1,11
 870 286 870 286 909 454 c 2,12,-1
 1027 966 l 2,13,14
 1049 1062 1049 1062 1049 1142 c 0,15,16
 1049 1203 1049 1203 1036 1254 c 0,17,18
 1004 1374 1004 1374 867 1374 c 0,0,1
886.5 1446 m 128,-1,20
 1103 1446 1103 1446 1188 1311 c 0,21,22
 1244 1222 1244 1222 1244 1111 c 0,23,24
 1244 1053 1244 1053 1229 989 c 2,25,-1
 1116 498 l 2,26,27
 995 -25 995 -25 520 -25 c 0,28,29
 186 -25 186 -25 186 291 c 0,30,31
 186 379 186 379 212 491 c 2,32,-1
 327 989 l 2,33,34
 370 1177 370 1177 520 1311.5 c 128,-1,19
 670 1446 670 1446 886.5 1446 c 128,-1,20
EndSplineSet
Validated: 1
EndChar

StartChar: one
Encoding: 49 49 20
Width: 1100
GlyphClass: 1
Flags: W
LayerCount: 2
Fore
SplineSet
417 21 m 1,0,-1
 417 23 l 1,1,2
 421 45 421 45 476 63 c 128,-1,3
 531 81 531 81 546 146 c 2,4,-1
 801 1252 l 1,5,-1
 597 1252 l 1,6,-1
 608 1299 l 1,7,-1
 1030 1463 l 1,8,-1
 726 146 l 2,9,10
 722 130 722 130 722 117 c 0,11,12
 722 76 722 76 757 63 c 0,13,14
 799 47 799 47 797 23 c 2,15,-1
 797 21 l 2,16,17
 795 0 795 0 772 0 c 2,18,-1
 432 0 l 2,19,20
 412 0 412 0 417 21 c 1,0,-1
EndSplineSet
Validated: 1
EndChar

StartChar: two
Encoding: 50 50 21
Width: 1100
GlyphClass: 1
Flags: W
LayerCount: 2
Fore
SplineSet
152 0 m 1,0,-1
 170 78 l 2,1,2
 190 165 190 165 256 230 c 256,3,4
 322 295 322 295 462 415 c 1,5,6
 543 478 543 478 624 550.5 c 128,-1,7
 705 623 705 623 798 709.5 c 128,-1,8
 891 796 891 796 945 883.5 c 128,-1,9
 999 971 999 971 1013 1032 c 0,10,11
 1020 1062 1020 1062 1020 1089.5 c 128,-1,12
 1020 1117 1020 1117 1013 1141 c 0,13,14
 983 1240 983 1240 892 1279 c 0,15,16
 839 1301 839 1301 783.5 1301 c 128,-1,17
 728 1301 728 1301 675 1289 c 0,18,19
 549 1259 549 1259 447 1147 c 0,20,21
 415 1111 415 1111 396 1080 c 1,22,-1
 392 1080 l 1,23,-1
 422 1210 l 1,24,25
 438 1238 438 1238 453 1257 c 0,26,27
 511 1325 511 1325 596.5 1377.5 c 128,-1,28
 682 1430 682 1430 791 1446 c 0,29,30
 834 1452 834 1452 875 1452 c 0,31,32
 1008 1452 1008 1452 1113 1385 c 0,33,34
 1216 1318 1216 1318 1216 1184 c 0,35,36
 1216 1141 1216 1141 1205 1090 c 2,37,-1
 1204 1086 l 2,38,39
 1172 949 1172 949 1070.5 827 c 128,-1,40
 969 705 969 705 842 593 c 128,-1,41
 715 481 715 481 584 363.5 c 128,-1,42
 453 246 453 246 374 150 c 1,43,-1
 744 150 l 2,44,45
 873 150 873 150 999 192 c 1,46,-1
 967 42 l 1,47,48
 902 7 902 7 835 3.5 c 128,-1,49
 768 0 768 0 711 0 c 2,50,-1
 152 0 l 1,0,-1
EndSplineSet
Validated: 1
EndChar

StartChar: three
Encoding: 51 51 22
Width: 1100
GlyphClass: 1
Flags: W
LayerCount: 2
Fore
SplineSet
386 -31 m 0,0,1
 258 -31 258 -31 181 42 c 1,2,-1
 214 209 l 1,3,-1
 220 209 l 1,4,5
 258 105 258 105 392 73 c 0,6,7
 440 61 440 61 504 61 c 128,-1,8
 568 61 568 61 645 97 c 0,9,10
 760 151 760 151 821 253 c 0,11,12
 854 308 854 308 866 359 c 0,13,14
 875 397 875 397 875 433 c 0,15,16
 875 445 875 445 874 456 c 0,17,18
 866 558 866 558 782.5 633.5 c 128,-1,19
 699 709 699 709 528 712 c 1,20,-1
 533 740 l 1,21,22
 607 762 607 762 705 801.5 c 128,-1,23
 803 841 803 841 863 914 c 128,-1,24
 923 987 923 987 938 1053 c 0,25,26
 942 1072 942 1072 944 1092 c 0,27,28
 944 1098 944 1098 944 1105 c 0,29,30
 944 1180 944 1180 899 1242 c 0,31,32
 850 1308 850 1308 749 1309 c 0,33,34
 740 1309 740 1309 732 1308 c 0,35,36
 617 1301 617 1301 525 1214 c 0,37,38
 483 1174 483 1174 459 1128 c 1,39,-1
 455 1128 l 1,40,-1
 491 1283 l 1,41,42
 596 1375 596 1375 694.5 1410.5 c 128,-1,43
 793 1446 793 1446 876 1446 c 0,44,45
 1103 1443 1103 1443 1137 1262 c 0,46,47
 1141 1239 1141 1239 1141 1217 c 0,48,49
 1141 1187 1141 1187 1134 1157 c 0,50,51
 1104 1029 1104 1029 942 903 c 0,52,53
 908 876 908 876 864 848 c 1,54,55
 992 777 992 777 1028 671 c 0,56,57
 1050 607 1050 607 1050 543 c 0,58,59
 1050 500 1050 500 1040 458 c 0,60,61
 1037 443 1037 443 1032 428 c 0,62,63
 964 212 964 212 725 65 c 0,64,65
 599 -12 599 -12 436 -28 c 0,66,67
 410 -31 410 -31 386 -31 c 0,0,1
EndSplineSet
Validated: 1
EndChar

StartChar: four
Encoding: 52 52 23
Width: 1100
GlyphClass: 1
Flags: W
LayerCount: 2
Fore
SplineSet
684 146 m 2,0,-1
 746 415 l 1,1,-1
 164 415 l 1,2,-1
 190 529 l 1,3,-1
 974 1405 l 1,4,-1
 1154 1405 l 1,5,-1
 958 556 l 1,6,-1
 1160 556 l 1,7,-1
 1128 415 l 1,8,-1
 926 415 l 1,9,-1
 864 146 l 2,10,11
 861 134 861 134 861 124 c 0,12,13
 862 79 862 79 916 64 c 0,14,15
 978 47 978 47 978 26 c 0,16,17
 978 0 978 0 952 0 c 2,18,-1
 528 0 l 2,19,20
 505 1 505 1 512 23.5 c 128,-1,21
 519 46 519 46 594 63.5 c 128,-1,22
 669 81 669 81 684 146 c 2,0,-1
778 556 m 1,23,-1
 938 1246 l 1,24,-1
 324 556 l 1,25,-1
 778 556 l 1,23,-1
EndSplineSet
Validated: 1
EndChar

StartChar: five
Encoding: 53 53 24
Width: 1100
GlyphClass: 1
Flags: W
LayerCount: 2
Fore
SplineSet
904 450 m 1,0,-1
 910 477 l 2,1,2
 911 483 911 483 913 489 c 0,3,4
 917 505 917 505 917 524 c 0,5,6
 917 554 917 554 908 591 c 0,7,8
 891 687 891 687 803 741 c 1,9,10
 733 776 733 776 661 776 c 0,11,12
 547 776 547 776 429 688 c 1,13,14
 391 653 391 653 344 653 c 0,15,16
 334 653 334 653 323 655 c 0,17,18
 309 655 309 655 295.5 656 c 128,-1,19
 282 657 282 657 289 687 c 2,20,-1
 447 1371 l 2,21,22
 453 1397 453 1397 458.5 1401 c 128,-1,23
 464 1405 464 1405 500 1405 c 2,24,-1
 994 1405 l 2,25,26
 1029 1405 1029 1405 1103 1401 c 128,-1,27
 1177 1397 1177 1397 1223 1363 c 1,28,-1
 1183 1189 l 1,29,30
 1082 1230 1082 1230 954 1230 c 2,31,-1
 510 1230 l 1,32,-1
 402 762 l 1,33,34
 508 820 508 820 599 852 c 0,35,36
 690 886 690 886 770 886 c 0,37,38
 813 886 813 886 853 876 c 0,39,40
 970 848 970 848 1036 769 c 1,41,42
 1112 688 1112 688 1112 564 c 0,43,44
 1112 511 1112 511 1098 450 c 0,45,46
 1092 424 1092 424 1083 396 c 0,47,48
 1019 225 1019 225 874 112 c 0,49,50
 706 -20 706 -20 450 -24 c 0,51,52
 248 -24 248 -24 124 70 c 1,53,-1
 168 259 l 1,54,-1
 172 259 l 1,55,56
 201 170 201 170 293 125 c 0,57,58
 382 81 382 81 479 81 c 0,59,60
 499 80 499 80 517 82 c 0,61,62
 633 92 633 92 738 184 c 1,63,64
 863 286 863 286 904 450 c 1,0,-1
EndSplineSet
Validated: 1
EndChar

StartChar: six
Encoding: 54 54 25
Width: 1100
GlyphClass: 1
Flags: W
LayerCount: 2
Fore
SplineSet
501 768 m 256,0,1
 383 636 383 636 342 458 c 0,2,3
 325 385 325 385 325 322 c 0,4,5
 325 232 325 232 360 162 c 0,6,7
 419 44 419 44 536 43 c 2,8,-1
 548 43 l 1,9,10
 673 49 673 49 791.5 180.5 c 128,-1,11
 910 312 910 312 951 491 c 0,12,13
 968 564 968 564 968 628 c 0,14,15
 968 718 968 718 933 788 c 0,16,17
 874 906 874 906 757 907 c 2,18,-1
 745 907 l 1,19,20
 619 900 619 900 501 768 c 256,0,1
750 971 m 0,21,22
 782 971 782 971 815 967 c 0,23,24
 976 949 976 949 1061 850 c 0,25,26
 1155 741 1155 741 1155 596 c 0,27,28
 1155 542 1155 542 1142 484 c 1,29,-1
 1141 481 l 1,30,31
 1092 268 1092 268 917 122 c 0,32,33
 741 -26 741 -26 548 -26 c 2,34,-1
 533 -26 l 1,35,36
 326 -20 326 -20 228 122 c 0,37,38
 162 218 162 218 162 341 c 0,39,40
 162 400 162 400 177 466 c 2,41,-1
 179 475 l 1,42,43
 256 796 256 796 447 1023 c 128,-1,44
 638 1250 638 1250 925 1420 c 0,45,46
 956 1438 956 1438 970 1444.5 c 128,-1,47
 984 1451 984 1451 1016 1451 c 2,48,-1
 1085 1450 l 2,49,50
 1128 1450 1128 1450 1126.5 1443 c 128,-1,51
 1125 1436 1125 1436 1107 1428 c 0,52,53
 912 1311 912 1311 776.5 1197.5 c 128,-1,54
 641 1084 641 1084 512 914 c 1,55,56
 624 971 624 971 750 971 c 0,21,22
EndSplineSet
Validated: 1
EndChar

StartChar: seven
Encoding: 55 55 26
Width: 1100
GlyphClass: 1
Flags: W
LayerCount: 2
Fore
SplineSet
419 153 m 0,0,1
 364 79 364 79 328 0 c 1,2,-1
 158 0 l 1,3,4
 159 15 159 15 162 25 c 0,5,6
 173 71 173 71 206 123 c 0,7,8
 248 186 248 186 282 232 c 0,9,10
 389 376 389 376 699 756 c 0,11,12
 936 1047 936 1047 1086 1230 c 1,13,-1
 688 1230 l 2,14,15
 558 1230 558 1230 441 1189 c 1,16,-1
 481 1363 l 1,17,18
 538 1395 538 1395 607 1400 c 0,19,20
 672 1405 672 1405 728 1405 c 2,21,-1
 1222 1405 l 2,22,23
 1258 1405 1258 1405 1262 1400 c 0,24,25
 1267 1394 1267 1394 1258 1358 c 0,26,27
 1242 1291 1242 1291 1198 1230 c 0,28,29
 1002 961 1002 961 807.5 691.5 c 128,-1,30
 613 422 613 422 419 153 c 0,0,1
EndSplineSet
Validated: 1
EndChar

StartChar: eight
Encoding: 56 56 27
Width: 1100
GlyphClass: 1
Flags: W
LayerCount: 2
Fore
SplineSet
928 678 m 0,0,1
 858 756 858 756 734 756 c 0,2,3
 608 756 608 756 501 674 c 0,4,5
 393 591 393 591 350 406 c 0,6,7
 350 404 350 404 349 402 c 0,8,9
 332 324 332 324 332 265 c 0,10,11
 332 181 332 181 366 134 c 0,12,13
 424 54 424 54 570.5 54 c 128,-1,14
 717 54 717 54 813 132.5 c 128,-1,15
 909 211 909 211 954 405 c 0,16,17
 971 481 971 481 971 539 c 0,18,19
 971 630 971 630 928 678 c 0,0,1
382 1102 m 0,20,21
 424 1278 424 1278 568.5 1363 c 128,-1,22
 713 1448 713 1448 922 1448 c 128,-1,23
 1131 1448 1131 1448 1211 1349 c 0,24,25
 1263 1283 1263 1283 1263 1191 c 0,26,27
 1263 1148 1263 1148 1252 1100 c 0,28,29
 1251 1094 1251 1094 1249 1088 c 0,30,31
 1189 852 1189 852 914 796 c 1,32,33
 1045 761 1045 761 1109 664 c 0,34,35
 1153 602 1153 602 1153 506 c 0,36,37
 1153 446 1153 446 1136 374 c 1,38,-1
 1136 372 l 1,39,40
 1092 182 1092 182 929 83 c 0,41,42
 763 -20 763 -20 535 -20 c 0,43,44
 534 -20 534 -20 533 -20 c 0,45,46
 306 -20 306 -20 201 88 c 0,47,48
 128 162 128 162 128 283 c 0,49,50
 128 338 128 338 143 402 c 0,51,52
 181 563 181 563 295.5 662 c 128,-1,53
 410 761 410 761 566 797 c 1,54,55
 371 846 371 846 371 1015 c 0,56,57
 371 1055 371 1055 382 1102 c 0,20,21
674 1301 m 0,58,59
 597 1219 597 1219 570 1104 c 0,60,61
 569 1100 569 1100 568 1095 c 0,62,63
 557 1047 557 1047 557 1005 c 0,64,65
 557 952 557 952 574 908 c 0,66,67
 605 826 605 826 755 826 c 1,68,-1
 756 825 l 1,69,70
 906 825 906 825 974 907 c 0,71,72
 1042 988 1042 988 1069 1104 c 0,73,74
 1080 1150 1080 1150 1080 1191 c 0,75,76
 1080 1254 1080 1254 1055 1302 c 0,77,78
 1014 1384 1014 1384 884 1384 c 0,79,80
 882 1384 882 1384 882 1384 c 2,81,82
 750 1384 750 1384 674 1301 c 0,58,59
EndSplineSet
Validated: 1
EndChar

StartChar: nine
Encoding: 57 57 28
Width: 1100
GlyphClass: 1
Flags: W
LayerCount: 2
Fore
SplineSet
927 656.5 m 128,-1,1
 1045 788 1045 788 1086 966 c 0,2,3
 1103 1039 1103 1039 1103 1103 c 0,4,5
 1103 1194 1103 1194 1068 1264 c 0,6,7
 1009 1382 1009 1382 892 1382 c 2,8,-1
 880 1382 l 1,9,10
 755 1376 755 1376 636.5 1244.5 c 128,-1,11
 518 1113 518 1113 477 934 c 0,12,13
 460 861 460 861 460 797 c 0,14,15
 460 706 460 706 495 636 c 0,16,17
 554 518 554 518 671 518 c 2,18,-1
 683 518 l 1,19,0
 809 525 809 525 927 656.5 c 128,-1,1
678 454 m 0,20,21
 646 454 646 454 613 458 c 0,22,23
 452 476 452 476 367 575 c 0,24,25
 273 684 273 684 273 829 c 0,26,27
 273 883 273 883 286 941 c 1,28,-1
 287 944 l 1,29,30
 336 1157 336 1157 511 1303 c 0,31,32
 687 1451 687 1451 880 1451 c 2,33,-1
 895 1451 l 1,34,35
 1102 1445 1102 1445 1200 1303 c 0,36,37
 1266 1207 1266 1207 1266 1084 c 0,38,39
 1266 1025 1266 1025 1251 959 c 2,40,-1
 1249 950 l 1,41,42
 1172 629 1172 629 981 402 c 128,-1,43
 790 175 790 175 503 5 c 0,44,45
 472 -13 472 -13 458 -19.5 c 128,-1,46
 444 -26 444 -26 412 -26 c 2,47,-1
 343 -25 l 2,48,49
 300 -25 300 -25 301.5 -18 c 128,-1,50
 303 -11 303 -11 321 -3 c 0,51,52
 516 114 516 114 651.5 227.5 c 128,-1,53
 787 341 787 341 916 511 c 1,54,55
 804 454 804 454 678 454 c 0,20,21
EndSplineSet
Validated: 1
EndChar

StartChar: colon
Encoding: 58 58 29
Width: 480
GlyphClass: 1
Flags: W
LayerCount: 2
Fore
SplineSet
310 230 m 0,0,1
 403 230 403 230 403 168 c 0,2,3
 403 157 403 157 400 143 c 2,4,-1
 381 61 l 2,5,6
 361 -25 361 -25 251 -25 c 0,7,8
 158 -25 158 -25 158 37 c 0,9,10
 158 48 158 48 161 61 c 2,11,-1
 180 143 l 2,12,13
 200 230 200 230 310 230 c 0,0,1
476 948 m 0,14,15
 569 948 569 948 569 886 c 0,16,17
 569 875 569 875 566 861 c 2,18,-1
 547 779 l 2,19,20
 527 693 527 693 417 693 c 0,21,22
 324 693 324 693 324 755 c 0,23,24
 324 766 324 766 327 779 c 2,25,-1
 346 861 l 2,26,27
 366 948 366 948 476 948 c 0,14,15
EndSplineSet
Validated: 1
EndChar

StartChar: semicolon
Encoding: 59 59 30
Width: 480
GlyphClass: 1
Flags: W
LayerCount: 2
Fore
SplineSet
451 948 m 0,0,1
 544 948 544 948 544 886 c 0,2,3
 544 875 544 875 541 861 c 2,4,-1
 522 779 l 2,5,6
 502 693 502 693 392 693 c 0,7,8
 299 693 299 693 299 755 c 0,9,10
 299 766 299 766 302 779 c 2,11,-1
 321 861 l 2,12,13
 341 948 341 948 451 948 c 0,0,1
136 -226 m 0,14,15
 102 -249 102 -249 77 -249 c 0,16,17
 61 -249 61 -249 49 -240 c 1,18,19
 39 -224 39 -224 58.5 -206.5 c 128,-1,20
 78 -189 78 -189 106 -175 c 0,21,22
 212 -118 212 -118 251 -25 c 1,23,24
 158 -25 158 -25 158 37 c 0,25,26
 158 48 158 48 161 61 c 2,27,-1
 180 143 l 2,28,29
 200 230 200 230 310 230 c 0,30,31
 403 230 403 230 403 168 c 0,32,33
 403 157 403 157 400 143 c 2,34,-1
 381 61 l 1,35,36
 314 -126 314 -126 136 -226 c 0,14,15
EndSplineSet
Validated: 1
EndChar

StartChar: less
Encoding: 60 60 31
Width: 1100
GlyphClass: 1
Flags: W
LayerCount: 2
Fore
SplineSet
324 607 m 2,0,1
 317 616 317 616 319 629 c 0,2,3
 321 644 321 644 348 665 c 2,4,-1
 1105 1268 l 2,5,6
 1129 1287 1129 1287 1145 1287 c 0,7,8
 1157 1287 1157 1287 1165 1277 c 2,9,-1
 1202 1228 l 2,10,11
 1207 1219 1207 1219 1204 1206 c 0,12,13
 1201 1190 1201 1190 1178 1170 c 2,14,-1
 502 631 l 1,15,-1
 929 93 l 2,16,17
 941 75 941 75 939 56 c 0,18,19
 937 45 937 45 926 35 c 2,20,-1
 867 -13 l 2,21,22
 855 -23 855 -23 843 -23 c 0,23,24
 827 -23 827 -23 811 -4 c 2,25,-1
 324 607 l 2,0,1
EndSplineSet
Validated: 1
EndChar

StartChar: equal
Encoding: 61 61 32
Width: 1100
GlyphClass: 1
Flags: W
LayerCount: 2
Fore
SplineSet
323 533 m 2,0,-1
 987 533 l 2,1,2
 1024 533 1024 533 1018 507 c 2,3,-1
 1006 454 l 2,4,5
 1000 428 1000 428 963 428 c 2,6,-1
 299 428 l 2,7,8
 262 428 262 428 268 454 c 2,9,-1
 280 507 l 2,10,11
 286 533 286 533 323 533 c 2,0,-1
392 833 m 2,12,-1
 1056 833 l 2,13,14
 1093 833 1093 833 1087 807 c 2,15,-1
 1075 754 l 2,16,17
 1069 728 1069 728 1032 728 c 2,18,-1
 368 728 l 2,19,20
 331 728 331 728 337 754 c 2,21,-1
 349 807 l 2,22,23
 355 833 355 833 392 833 c 2,12,-1
EndSplineSet
Validated: 1
EndChar

StartChar: greater
Encoding: 62 62 33
Width: 1100
GlyphClass: 1
Flags: W
LayerCount: 2
Fore
SplineSet
1068 657 m 2,0,1
 1075 648 1075 648 1073 635 c 0,2,3
 1071 620 1071 620 1044 599 c 2,4,-1
 287 -4 l 2,5,6
 263 -23 263 -23 247 -23 c 0,7,8
 235 -23 235 -23 227 -13 c 2,9,-1
 190 36 l 2,10,11
 185 45 185 45 187 58 c 0,12,13
 190 74 190 74 214 94 c 2,14,-1
 890 633 l 1,15,-1
 462 1171 l 2,16,17
 450 1189 450 1189 453 1208 c 0,18,19
 455 1219 455 1219 466 1229 c 2,20,-1
 525 1277 l 2,21,22
 537 1287 537 1287 549 1287 c 0,23,24
 565 1287 565 1287 581 1268 c 2,25,-1
 1068 657 l 2,0,1
EndSplineSet
Validated: 1
EndChar

StartChar: question
Encoding: 63 63 34
Width: 784
GlyphClass: 1
Flags: W
LayerCount: 2
Fore
SplineSet
429 230 m 0,0,1
 522 230 522 230 522 168 c 0,2,3
 522 157 522 157 519 143 c 2,4,-1
 500 61 l 2,5,6
 480 -25 480 -25 370 -25 c 0,7,8
 277 -25 277 -25 277 37 c 0,9,10
 277 48 277 48 280 61 c 2,11,-1
 299 143 l 2,12,13
 319 230 319 230 429 230 c 0,0,1
534 496 m 2,14,15
 522 443 522 443 504 413 c 0,16,17
 487 387 487 387 468 387 c 0,18,19
 451 387 451 387 448 417 c 0,20,21
 447 424 447 424 447 433 c 0,22,23
 447 459 447 459 456 497 c 2,24,-1
 527 804 l 1,25,26
 671 892 671 892 734 964 c 0,27,28
 798 1038 798 1038 821 1138 c 0,29,30
 832 1186 832 1186 832 1223 c 0,31,32
 832 1271 832 1271 814 1303 c 0,33,34
 781 1357 781 1357 691 1357 c 0,35,36
 612 1357 612 1357 564 1307 c 0,37,38
 515 1255 515 1255 474 1124 c 0,39,40
 467 1101 467 1101 446 1089 c 0,41,42
 425 1076 425 1076 392 1076 c 0,43,44
 358 1076 358 1076 344 1089 c 0,45,46
 332 1102 332 1102 339 1132 c 0,47,48
 370 1265 370 1265 475 1343 c 0,49,50
 580 1420 580 1420 729 1420 c 0,51,52
 883 1420 883 1420 955 1345 c 0,53,54
 1004 1293 1004 1293 1004 1214 c 0,55,56
 1004 1179 1004 1179 994 1139 c 0,57,58
 956 975 956 975 765 871 c 0,59,60
 744 860 744 860 716 845 c 0,61,62
 646 806 646 806 622 773 c 0,63,64
 597 742 597 742 577 668 c 2,65,-1
 534 496 l 2,14,15
EndSplineSet
Validated: 1
EndChar

StartChar: at
Encoding: 64 64 35
Width: 2119
GlyphClass: 1
Flags: W
LayerCount: 2
Fore
SplineSet
1880 178 m 0,0,1
 1814 112 1814 112 1734.5 56 c 128,-1,2
 1655 0 1655 0 1571 -31 c 0,3,4
 1473 -69 1473 -69 1387 -69 c 0,5,6
 1323 -69 1323 -69 1266 -48 c 0,7,8
 1197 -22 1197 -22 1197 47 c 0,9,10
 1197 65 1197 65 1202 87 c 2,11,-1
 1203 91 l 1,12,-1
 871 -14 l 2,13,14
 835 -25 835 -25 813 -25 c 2,15,-1
 772 -25 l 1,16,17
 632 -18 632 -18 581 91 c 0,18,19
 557 142 557 142 557 206 c 0,20,21
 557 250 557 250 568 300 c 0,22,23
 594 411 594 411 665 523 c 128,-1,24
 736 635 736 635 818 711 c 0,25,26
 865 755 865 755 950 803 c 0,27,28
 977 818 977 818 1012 830 c 0,29,30
 1106 860 1106 860 1200 890 c 128,-1,31
 1294 920 1294 920 1389 950 c 0,32,33
 1408 956 1408 956 1425 956 c 2,34,-1
 1430 956 l 2,35,36
 1492 953 1492 953 1569 924 c 0,37,38
 1575 922 1575 922 1577 920 c 0,39,40
 1595 911 1595 911 1623 900 c 0,41,42
 1634 896 1634 896 1644 896 c 0,43,44
 1662 896 1662 896 1676 905 c 0,45,46
 1707 925 1707 925 1720 937 c 0,47,48
 1728 944 1728 944 1736.5 942 c 128,-1,49
 1745 940 1745 940 1745 940 c 1,50,51
 1761 932 1761 932 1759 922 c 2,52,-1
 1758 920 l 1,53,-1
 1425 199 l 2,54,55
 1407 159 1407 159 1400 128 c 0,56,57
 1395 108 1395 108 1395 91 c 0,58,59
 1395 36 1395 36 1447 22 c 0,60,61
 1464 17 1464 17 1483 17 c 0,62,63
 1521 17 1521 17 1569 35 c 0,64,65
 1643 61 1643 61 1710 112 c 0,66,67
 1819 194 1819 194 1915 350 c 0,68,69
 2011 508 2011 508 2055 699 c 0,70,71
 2080 806 2080 806 2080 896 c 0,72,73
 2080 1093 2080 1093 1960 1206 c 0,74,75
 1786 1370 1786 1370 1482 1370 c 0,76,77
 1255 1370 1255 1370 1009 1257 c 0,78,79
 762 1145 762 1145 571 912 c 0,80,81
 380 681 380 681 311 387 c 0,82,83
 283 268 283 268 283 160 c 0,84,85
 283 60 283 60 307 -29 c 0,86,87
 355 -215 355 -215 509 -320 c 0,88,89
 660 -424 660 -424 907 -424 c 0,90,91
 1115 -424 1115 -424 1317 -351 c 0,92,93
 1500 -284 1500 -284 1655 -176 c 0,94,95
 1660 -172 1660 -172 1665 -172 c 0,96,97
 1671 -172 1671 -172 1677 -179 c 0,98,99
 1682 -186 1682 -186 1680 -196 c 0,100,101
 1678 -205 1678 -205 1670 -215 c 0,102,103
 1653 -239 1653 -239 1637 -252 c 0,104,105
 1459 -388 1459 -388 1257.5 -447.5 c 128,-1,106
 1056 -507 1056 -507 843 -507 c 0,107,108
 443 -507 443 -507 245 -255 c 0,109,110
 109 -82 109 -82 109 156 c 0,111,112
 109 265 109 265 138 388 c 0,113,114
 241 832 241 832 632 1138 c 0,115,116
 1023 1442 1023 1442 1490 1442 c 0,117,118
 1864 1442 1864 1442 2061 1240 c 0,119,120
 2203 1093 2203 1093 2203 879 c 0,121,122
 2203 795 2203 795 2181 702 c 0,123,124
 2114 413 2114 413 1880 178 c 0,0,1
1220 145 m 1,125,-1
 1508 769 l 1,126,127
 1485 807 1485 807 1432.5 839.5 c 128,-1,128
 1380 872 1380 872 1329 874 c 2,129,-1
 1325 874 l 2,130,131
 1305 874 1305 874 1282 866 c 0,132,133
 1240 853 1240 853 1198 839.5 c 128,-1,134
 1156 826 1156 826 1114 813 c 0,135,136
 1086 804 1086 804 1062 787 c 0,137,138
 970 721 970 721 904.5 627 c 128,-1,139
 839 533 839 533 804 441 c 0,140,141
 785 394 785 394 775 352 c 0,142,143
 765 308 765 308 765 271 c 0,144,145
 765 236 765 236 774 207 c 0,146,147
 800 114 800 114 886 86 c 0,148,149
 920 75 920 75 958 75 c 0,150,151
 970 75 970 75 984 76 c 0,152,153
 1007 78 1007 78 1043 89 c 0,154,155
 1067 96 1067 96 1123.5 114.5 c 128,-1,156
 1180 133 1180 133 1220 145 c 1,125,-1
EndSplineSet
Validated: 1
EndChar

StartChar: A
Encoding: 65 65 36
Width: 1593
GlyphClass: 1
Flags: W
LayerCount: 2
Fore
SplineSet
1549 13.5 m 128,-1,1
 1548 10 1548 10 1544.5 5 c 128,-1,2
 1541 0 1541 0 1532 0 c 2,3,-1
 1194 0 l 2,4,5
 1185 0 1185 0 1177 6.5 c 128,-1,6
 1169 13 1169 13 1168.5 18.5 c 128,-1,7
 1168 24 1168 24 1169 30 c 128,-1,8
 1170 36 1170 36 1183 45.5 c 128,-1,9
 1196 55 1196 55 1211 65 c 128,-1,10
 1226 75 1226 75 1233.5 87.5 c 128,-1,11
 1241 100 1241 100 1244 114 c 0,12,13
 1247 129 1247 129 1244 147 c 2,14,-1
 1175 489 l 1,15,-1
 592 489 l 1,16,17
 536 403 536 403 481 317.5 c 128,-1,18
 426 232 426 232 391 179.5 c 128,-1,19
 356 127 356 127 352.5 115.5 c 128,-1,20
 349 104 349 104 347 95.5 c 128,-1,21
 345 87 345 87 345.5 76 c 128,-1,22
 346 65 346 65 351 56.5 c 128,-1,23
 356 48 356 48 356 39.5 c 128,-1,24
 356 31 356 31 355 28 c 256,25,26
 354 25 354 25 352 21 c 0,27,28
 340 0 340 0 325 0 c 2,29,-1
 67 0 l 2,30,31
 47 0 47 0 57 21 c 0,32,33
 65 39 65 39 98 52 c 128,-1,34
 131 65 131 65 174 83 c 1,35,36
 218 110 218 110 243 146 c 2,37,-1
 1105 1427 l 1,38,-1
 1167 1427 l 1,39,40
 1190 1309 1190 1309 1224 1138 c 128,-1,41
 1258 967 1258 967 1295 786 c 128,-1,42
 1332 605 1332 605 1366 434 c 128,-1,43
 1400 263 1400 263 1424 146 c 0,44,45
 1430 109 1430 109 1458.5 86.5 c 128,-1,46
 1487 64 1487 64 1507 54 c 128,-1,47
 1527 44 1527 44 1537 36 c 128,-1,48
 1547 28 1547 28 1548.5 22.5 c 128,-1,0
 1550 17 1550 17 1549 13.5 c 128,-1,1
1159 570 m 1,49,-1
 1038 1179 l 1,50,51
 939 1026 939 1026 840.5 874 c 128,-1,52
 742 722 742 722 644 570 c 1,53,-1
 1159 570 l 1,49,-1
EndSplineSet
Validated: 1
EndChar

StartChar: B
Encoding: 66 66 37
Width: 1240
GlyphClass: 1
Flags: W
LayerCount: 2
Fore
SplineSet
1028 1405 m 2,0,1
 1126 1405 1126 1405 1224.5 1370 c 128,-1,2
 1323 1335 1323 1335 1357 1235 c 0,3,4
 1371 1194 1371 1194 1371 1145 c 0,5,6
 1371 1097 1371 1097 1358 1041 c 0,7,8
 1331 933 1331 933 1252 849 c 0,9,10
 1194 786 1194 786 1095 745 c 1,11,12
 1226 699 1226 699 1266 586 c 0,13,14
 1281 541 1281 541 1281 486 c 0,15,16
 1281 433 1281 433 1267 372 c 0,17,18
 1238 253 1238 253 1150 160 c 0,19,20
 1074 79 1074 79 961 39.5 c 128,-1,21
 848 0 848 0 761 0 c 2,22,-1
 134 0 l 2,23,24
 113 0 113 0 118 21 c 0,25,26
 124 46 124 46 178 64 c 128,-1,27
 232 82 232 82 247 146 c 2,28,-1
 503 1258 l 2,29,30
 507 1273 507 1273 507 1286 c 0,31,32
 507 1325 507 1325 472 1339 c 0,33,34
 431 1355 431 1355 431 1377 c 0,35,36
 431 1380 431 1380 432 1383 c 0,37,38
 437 1405 437 1405 458 1405 c 2,39,-1
 1028 1405 l 2,0,1
552 687 m 1,40,-1
 410 73 l 1,41,-1
 636 73 l 2,42,43
 709 73 709 73 788.5 94.5 c 128,-1,44
 868 116 868 116 934 169 c 0,45,46
 1036 250 1036 250 1066 383 c 0,47,48
 1075 423 1075 423 1075 458 c 0,49,50
 1075 537 1075 537 1029 597 c 0,51,52
 956 687 956 687 799 687 c 2,53,-1
 552 687 l 1,40,-1
572 774 m 1,54,-1
 848 774 l 1,55,56
 969 787 969 787 1057 856 c 0,57,58
 1149 929 1149 929 1176 1050 c 0,59,60
 1184 1086 1184 1086 1184 1118 c 0,61,62
 1184 1191 1184 1191 1142 1244 c 0,63,64
 1076 1325 1076 1325 935 1325 c 2,65,-1
 699 1325 l 1,66,-1
 572 774 l 1,54,-1
EndSplineSet
Validated: 1
EndChar

StartChar: C
Encoding: 67 67 38
Width: 1405
GlyphClass: 1
Flags: W
LayerCount: 2
Fore
SplineSet
839 -37 m 0,0,1
 532 -37 532 -37 340 159 c 0,2,3
 205 297 205 297 205 510 c 0,4,5
 205 599 205 599 229 701 c 0,6,7
 307 1038 307 1038 584.5 1241.5 c 128,-1,8
 862 1445 862 1445 1182 1445 c 0,9,10
 1297 1445 1297 1445 1420.5 1419.5 c 128,-1,11
 1544 1394 1544 1394 1644 1319 c 1,12,-1
 1571 1109 l 2,13,14
 1563 1091 1563 1091 1547 1091 c 2,15,-1
 1544 1091 l 2,16,17
 1532 1092 1532 1092 1524 1119 c 0,18,19
 1495 1244 1495 1244 1393 1303 c 0,20,21
 1297 1356 1297 1356 1175 1356 c 2,22,-1
 1154 1356 l 1,23,24
 881 1344 881 1344 682 1140 c 0,25,26
 503 957 503 957 452 735 c 0,27,28
 446 710 446 710 442 685 c 0,29,30
 431 622 431 622 431 563 c 0,31,32
 432 404 432 404 508 266 c 0,33,34
 612 77 612 77 863 65 c 0,35,36
 887 64 887 64 909 64 c 0,37,38
 1037 64 1037 64 1129 103 c 0,39,40
 1236 149 1236 149 1332 288 c 0,41,42
 1351 316 1351 316 1371 316 c 0,43,44
 1375 316 1375 316 1379 315 c 0,45,46
 1394 309 1394 309 1389 292 c 0,47,48
 1387 284 1387 284 1381 274 c 2,49,-1
 1238 31 l 1,50,51
 1133 -9 1133 -9 1030.5 -23 c 128,-1,52
 928 -37 928 -37 839 -37 c 0,0,1
EndSplineSet
Validated: 1
EndChar

StartChar: D
Encoding: 68 68 39
Width: 1585
GlyphClass: 1
Flags: W
LayerCount: 2
Fore
SplineSet
422 100 m 1,0,1
 542 76 542 76 657 76 c 0,2,3
 700 76 700 76 742 79 c 0,4,5
 1099 109 1099 109 1304 380 c 0,6,7
 1410 520 1410 520 1460 736 c 2,8,-1
 1468 769 l 1,9,10
 1484 855 1484 855 1484 928 c 0,11,12
 1484 1119 1484 1119 1372 1216 c 0,13,14
 1242 1334 1242 1334 985 1334 c 0,15,16
 972 1334 972 1334 959 1334 c 0,17,18
 836 1334 836 1334 702 1313 c 1,19,-1
 422 100 l 1,0,1
538 1405 m 2,20,-1
 853 1413 l 2,21,22
 874 1413 874 1413 895 1413 c 0,23,24
 907 1413 907 1413 919 1413 c 0,25,26
 1026 1413 1026 1413 1173 1405 c 0,27,28
 1339 1396 1339 1396 1468 1334 c 128,-1,29
 1597 1272 1597 1272 1658 1144 c 0,30,31
 1697 1063 1697 1063 1697 946 c 0,32,33
 1697 849 1697 849 1670 727 c 0,34,35
 1632 561 1632 561 1530 416 c 0,36,37
 1430 272 1430 272 1274 169 c 0,38,39
 1011 -5 1011 -5 687 -9 c 1,40,-1
 607 -9 l 2,41,42
 549 -9 549 -9 499 -6 c 2,43,-1
 382 -6 l 2,44,45
 299 -6 299 -6 256 -3 c 2,46,-1
 232 -3 l 2,47,48
 192 -3 192 -3 127 -9 c 0,49,50
 106 -9 106 -9 111.5 14.5 c 128,-1,51
 117 38 117 38 171 56 c 128,-1,52
 225 74 225 74 240 139 c 2,53,-1
 499 1262 l 2,54,55
 503 1278 503 1278 503 1291 c 0,56,57
 503 1332 503 1332 468 1344 c 0,58,59
 427 1359 427 1359 427 1381 c 0,60,61
 427 1384 427 1384 428 1387 c 0,62,63
 433 1410 433 1410 454 1408 c 0,64,65
 495 1405 495 1405 538 1405 c 2,20,-1
EndSplineSet
Validated: 1
EndChar

StartChar: E
Encoding: 69 69 40
Width: 1251
GlyphClass: 1
Flags: W
LayerCount: 2
Fore
SplineSet
458 94 m 1,0,-1
 885 94 l 2,1,2
 978 94 978 94 1059 165.5 c 128,-1,3
 1140 237 1140 237 1182 277 c 0,4,5
 1205 299 1205 299 1215 299 c 0,6,7
 1236 299 1236 299 1231 278 c 0,8,9
 1228 265 1228 265 1224 257 c 2,10,-1
 1092 0 l 1,11,-1
 173 0 l 2,12,13
 155 0 155 0 160 21 c 0,14,15
 166 46 166 46 220 63.5 c 128,-1,16
 274 81 274 81 289 146 c 2,17,-1
 545 1257 l 2,18,19
 549 1273 549 1273 549 1286 c 0,20,21
 549 1326 549 1326 514 1340 c 0,22,23
 473 1355 473 1355 473 1377 c 0,24,25
 473 1380 473 1380 474 1383 c 0,26,27
 479 1405 479 1405 500 1405 c 2,28,-1
 1428 1405 l 1,29,-1
 1369 1147 l 2,30,31
 1364 1126 1364 1126 1343 1126 c 0,32,33
 1333 1126 1333 1126 1315 1166 c 0,34,35
 1281 1235 1281 1235 1253.5 1273 c 128,-1,36
 1226 1311 1226 1311 1166 1311 c 2,37,-1
 739 1311 l 1,38,-1
 613 768 l 1,39,-1
 842 768 l 2,40,41
 906 768 906 768 938 819.5 c 128,-1,42
 970 871 970 871 996 871 c 0,43,44
 1016 871 1016 871 1011 850 c 2,45,-1
 953 596 l 2,46,47
 948 575 948 575 928 575 c 0,48,49
 902 575 902 575 890.5 626 c 128,-1,50
 879 677 879 677 815 677 c 2,51,-1
 592 677 l 1,52,-1
 458 94 l 1,0,-1
EndSplineSet
Validated: 1
EndChar

StartChar: F
Encoding: 70 70 41
Width: 1139
GlyphClass: 1
Flags: W
LayerCount: 2
Fore
SplineSet
174 0 m 2,0,1
 155 0 155 0 160 21 c 0,2,3
 163 33 163 33 187 46 c 0,4,5
 204 56 204 56 227.5 69 c 128,-1,6
 251 82 251 82 269 104 c 0,7,8
 284 124 284 124 289 146 c 2,9,-1
 545 1257 l 2,10,11
 549 1273 549 1273 549 1286 c 0,12,13
 549 1326 549 1326 514 1340 c 0,14,15
 473 1355 473 1355 473 1377 c 0,16,17
 473 1380 473 1380 474 1383 c 0,18,19
 479 1405 479 1405 500 1405 c 2,20,-1
 1428 1405 l 1,21,-1
 1369 1147 l 2,22,23
 1364 1126 1364 1126 1343 1126 c 0,24,25
 1333 1126 1333 1126 1315 1166 c 0,26,27
 1281 1235 1281 1235 1253.5 1273 c 128,-1,28
 1226 1311 1226 1311 1166 1311 c 2,29,-1
 739 1311 l 1,30,-1
 613 768 l 1,31,-1
 842 768 l 2,32,33
 884 768 884 768 925 805 c 0,34,35
 948 827 948 827 964 849 c 128,-1,36
 980 871 980 871 996 871 c 0,37,38
 1016 871 1016 871 1011 850 c 2,39,-1
 953 596 l 2,40,41
 948 575 948 575 928 575 c 0,42,43
 910 575 910 575 903.5 600.5 c 128,-1,44
 897 626 897 626 881 650 c 0,45,46
 859 678 859 678 822 678 c 2,47,-1
 593 678 l 1,48,-1
 470 146 l 2,49,50
 464 118 464 118 471 97 c 0,51,52
 479 79 479 79 494.5 67.5 c 128,-1,53
 510 56 510 56 523 47 c 0,54,55
 543 33 543 33 540 21 c 0,56,57
 539 15 539 15 537 12 c 0,58,59
 527 0 527 0 515 0 c 2,60,-1
 174 0 l 2,0,1
EndSplineSet
Validated: 1
EndChar

StartChar: G
Encoding: 71 71 42
Width: 1563
GlyphClass: 1
Flags: W
LayerCount: 2
Fore
SplineSet
839 -37 m 0,0,1
 532 -37 532 -37 340 159 c 0,2,3
 205 297 205 297 205 510 c 0,4,5
 205 599 205 599 229 701 c 0,6,7
 307 1038 307 1038 584.5 1241.5 c 128,-1,8
 862 1445 862 1445 1182 1445 c 0,9,10
 1297 1445 1297 1445 1420.5 1419.5 c 128,-1,11
 1544 1394 1544 1394 1644 1319 c 1,12,-1
 1571 1109 l 2,13,14
 1563 1091 1563 1091 1547 1091 c 2,15,-1
 1544 1091 l 2,16,17
 1532 1092 1532 1092 1524 1119 c 0,18,19
 1491 1258 1491 1258 1405.5 1304 c 128,-1,20
 1320 1350 1320 1350 1160 1350 c 0,21,22
 937 1350 937 1350 727 1195 c 128,-1,23
 517 1040 517 1040 439 701 c 0,24,25
 424 635 424 635 424 571 c 0,26,27
 424 422 424 422 504 280 c 0,28,29
 620 77 620 77 863 65 c 0,30,31
 887 64 887 64 909 64 c 0,32,33
 1023 64 1023 64 1108 94 c 0,34,35
 1209 130 1209 130 1297 240 c 1,36,-1
 1341 428 l 2,37,38
 1346 459 1346 459 1320 476 c 0,39,40
 1296 490 1296 490 1249 512 c 0,41,42
 1207 531 1207 531 1207 550 c 0,43,44
 1207 575 1207 575 1233 575 c 2,45,-1
 1634 575 l 2,46,47
 1655 575 1655 575 1650 554 c 0,48,49
 1644 528 1644 528 1590 510 c 128,-1,50
 1536 492 1536 492 1521 428 c 2,51,-1
 1431 39 l 1,52,53
 1275 32 1275 32 1124 -4 c 0,54,55
 1048 -23 1048 -23 976 -30 c 128,-1,56
 904 -37 904 -37 839 -37 c 0,0,1
EndSplineSet
Validated: 1
EndChar

StartChar: H
Encoding: 72 72 43
Width: 1638
GlyphClass: 1
Flags: W
LayerCount: 2
Fore
SplineSet
1752 1256 m 2,0,-1
 1496 147 l 2,1,2
 1492 131 1492 131 1492 117 c 0,3,4
 1492 76 1492 76 1527 64 c 0,5,6
 1573 46 1573 46 1567 21 c 0,7,8
 1562 0 1562 0 1541 0 c 2,9,-1
 1202 0 l 2,10,11
 1182 0 1182 0 1187 21 c 0,12,13
 1193 46 1193 46 1247 63.5 c 128,-1,14
 1301 81 1301 81 1316 146 c 2,15,-1
 1443 696 l 1,16,-1
 596 696 l 1,17,-1
 469 147 l 2,18,19
 465 131 465 131 465 117 c 0,20,21
 465 76 465 76 500 64 c 0,22,23
 546 46 546 46 540 21 c 0,24,25
 535 0 535 0 514 0 c 2,26,-1
 175 0 l 2,27,28
 155 0 155 0 160 21 c 0,29,30
 166 46 166 46 220 63.5 c 128,-1,31
 274 81 274 81 289 146 c 2,32,-1
 545 1256 l 2,33,34
 549 1272 549 1272 549 1285 c 0,35,36
 549 1324 549 1324 514 1338 c 0,37,38
 473 1353 473 1353 473 1376 c 0,39,40
 473 1379 473 1379 474 1382 c 0,41,42
 479 1404 479 1404 500 1404 c 2,43,-1
 838 1404 l 2,44,45
 859 1404 859 1404 854 1382 c 0,46,47
 848 1356 848 1356 794 1338.5 c 128,-1,48
 740 1321 740 1321 725 1256 c 2,49,-1
 618 791 l 1,50,-1
 1465 791 l 1,51,-1
 1572 1256 l 2,52,53
 1576 1272 1576 1272 1576 1285 c 0,54,55
 1576 1324 1576 1324 1541 1338 c 0,56,57
 1500 1353 1500 1353 1500 1376 c 0,58,59
 1500 1379 1500 1379 1501 1382 c 0,60,61
 1506 1404 1506 1404 1527 1404 c 2,62,-1
 1865 1404 l 2,63,64
 1886 1404 1886 1404 1881 1382 c 0,65,66
 1875 1356 1875 1356 1821 1338.5 c 128,-1,67
 1767 1321 1767 1321 1752 1256 c 2,0,-1
EndSplineSet
Validated: 1
EndChar

StartChar: I
Encoding: 73 73 44
Width: 690
GlyphClass: 1
Flags: W
LayerCount: 2
Fore
SplineSet
725 1256 m 2,0,-1
 469 147 l 2,1,2
 465 131 465 131 465 117 c 0,3,4
 465 76 465 76 500 64 c 0,5,6
 546 46 546 46 540 21 c 0,7,8
 535 0 535 0 514 0 c 2,9,-1
 175 0 l 2,10,11
 155 0 155 0 160 21 c 0,12,13
 166 46 166 46 220 63.5 c 128,-1,14
 274 81 274 81 289 146 c 2,15,-1
 545 1256 l 2,16,17
 549 1272 549 1272 549 1285 c 0,18,19
 549 1324 549 1324 514 1338 c 0,20,21
 473 1353 473 1353 473 1376 c 0,22,23
 473 1379 473 1379 474 1382 c 0,24,25
 479 1404 479 1404 500 1404 c 2,26,-1
 838 1404 l 2,27,28
 859 1404 859 1404 854 1382 c 0,29,30
 848 1356 848 1356 794 1338.5 c 128,-1,31
 740 1321 740 1321 725 1256 c 2,0,-1
EndSplineSet
Validated: 1
EndChar

StartChar: J
Encoding: 74 74 45
Width: 682
GlyphClass: 1
Flags: W
LayerCount: 2
Fore
SplineSet
472 180 m 2,0,1
 427 -17 427 -17 378 -113 c 128,-1,2
 329 -209 329 -209 248 -277 c 0,3,4
 137 -369 137 -369 18 -399 c 1,5,-1
 29 -349 l 1,6,7
 74 -325 74 -325 117 -288 c 0,8,9
 160 -250 160 -250 192 -189 c 0,10,11
 215 -147 215 -147 232 -74 c 0,12,13
 241 -37 241 -37 255 25 c 128,-1,14
 269 87 269 87 289 174 c 2,15,-1
 539 1258 l 2,16,17
 543 1274 543 1274 543 1287 c 0,18,19
 542 1327 542 1327 508 1340 c 0,20,21
 468 1356 468 1356 468 1378 c 0,22,23
 468 1381 468 1381 469 1384 c 0,24,25
 474 1405 474 1405 494 1405 c 2,26,-1
 833 1405 l 2,27,28
 854 1405 854 1405 850 1384 c 0,29,30
 844 1358 844 1358 789.5 1340 c 128,-1,31
 735 1322 735 1322 720 1258 c 2,32,-1
 472 180 l 2,0,1
EndSplineSet
Validated: 1
EndChar

StartChar: K
Encoding: 75 75 46
Width: 1487
GlyphClass: 1
Flags: W
LayerCount: 2
Fore
SplineSet
595 693 m 1,0,-1
 469 147 l 2,1,2
 465 131 465 131 465 117 c 0,3,4
 465 76 465 76 500 64 c 0,5,6
 546 46 546 46 540 21 c 0,7,8
 535 0 535 0 514 0 c 2,9,-1
 175 0 l 2,10,11
 155 0 155 0 160 21 c 0,12,13
 166 46 166 46 220 63.5 c 128,-1,14
 274 81 274 81 289 146 c 2,15,-1
 545 1256 l 2,16,17
 549 1272 549 1272 549 1285 c 0,18,19
 549 1324 549 1324 514 1338 c 0,20,21
 473 1353 473 1353 473 1376 c 0,22,23
 473 1379 473 1379 474 1382 c 0,24,25
 479 1404 479 1404 500 1404 c 2,26,-1
 838 1404 l 2,27,28
 859 1404 859 1404 854 1382 c 0,29,30
 848 1356 848 1356 794 1338.5 c 128,-1,31
 740 1321 740 1321 725 1256 c 2,32,-1
 607 746 l 1,33,-1
 1245 1241 l 2,34,35
 1360 1330 1360 1330 1395 1360 c 0,36,37
 1450 1405 1450 1405 1477 1405 c 0,38,39
 1500 1405 1500 1405 1520 1394 c 2,40,-1
 1614 1342 l 2,41,42
 1629 1332 1629 1332 1626 1322 c 0,43,44
 1624 1313 1624 1313 1619 1305 c 2,45,-1
 1534 1159 l 1,46,-1
 1471 1188 l 2,47,48
 1437 1204 1437 1204 1394 1204 c 0,49,50
 1352 1204 1352 1204 1303 1165 c 2,51,-1
 809 772 l 1,52,-1
 1401 78 l 2,53,54
 1417 57 1417 57 1438 46.5 c 128,-1,55
 1459 36 1459 36 1456 21 c 0,56,57
 1451 0 1451 0 1431 0 c 2,58,-1
 1092 0 l 2,59,60
 1071 0 1071 0 1076 21 c 0,61,62
 1078 28 1078 28 1096 42 c 0,63,64
 1109 52 1109 52 1112 64 c 0,65,66
 1117 84 1117 84 1092 111 c 2,67,-1
 595 693 l 1,0,-1
EndSplineSet
Validated: 1
EndChar

StartChar: L
Encoding: 76 76 47
Width: 1251
GlyphClass: 1
Flags: W
LayerCount: 2
Fore
SplineSet
458 94 m 1,0,-1
 885 94 l 2,1,2
 978 94 978 94 1059 165.5 c 128,-1,3
 1140 237 1140 237 1182 277 c 0,4,5
 1205 299 1205 299 1215 299 c 0,6,7
 1236 299 1236 299 1231 278 c 0,8,9
 1228 265 1228 265 1224 257 c 2,10,-1
 1092 0 l 1,11,-1
 176 0 l 2,12,13
 155 0 155 0 160 21 c 0,14,15
 166 46 166 46 220 63.5 c 128,-1,16
 274 81 274 81 289 146 c 2,17,-1
 545 1257 l 2,18,19
 549 1273 549 1273 549 1286 c 0,20,21
 549 1326 549 1326 514 1339 c 0,22,23
 473 1355 473 1355 473 1377 c 0,24,25
 473 1380 473 1380 474 1383 c 0,26,27
 479 1405 479 1405 500 1405 c 2,28,-1
 839 1405 l 2,29,30
 859 1405 859 1405 854 1383 c 0,31,32
 848 1357 848 1357 794 1339 c 128,-1,33
 740 1321 740 1321 725 1257 c 2,34,-1
 458 94 l 1,0,-1
EndSplineSet
Validated: 1
EndChar

StartChar: M
Encoding: 77 77 48
Width: 1908
GlyphClass: 1
Flags: W
LayerCount: 2
Fore
SplineSet
1987 1257 m 2,0,-1
 1731 146 l 2,1,2
 1727 130 1727 130 1727 117 c 0,3,4
 1726 78 1726 78 1762 64 c 0,5,6
 1803 48 1803 48 1804 27 c 0,7,8
 1804 24 1804 24 1803 21 c 0,9,10
 1798 0 1798 0 1777 0 c 2,11,-1
 1438 0 l 2,12,13
 1417 0 1417 0 1422 21 c 0,14,15
 1428 46 1428 46 1482 63.5 c 128,-1,16
 1536 81 1536 81 1551 146 c 2,17,-1
 1798 1217 l 1,18,-1
 933 -30 l 1,19,-1
 894 -30 l 1,20,-1
 600 1170 l 1,21,-1
 364 146 l 2,22,23
 360 130 360 130 360 117 c 0,24,25
 360 78 360 78 395 64 c 0,26,27
 441 46 441 46 435 21 c 0,28,29
 430 0 430 0 409 0 c 2,30,-1
 155 0 l 2,31,32
 134 0 134 0 139 21 c 0,33,34
 145 46 145 46 199 63.5 c 128,-1,35
 253 81 253 81 268 146 c 2,36,-1
 524 1257 l 2,37,38
 528 1273 528 1273 528 1286 c 0,39,40
 528 1326 528 1326 493 1339 c 0,41,42
 452 1355 452 1355 452 1377 c 0,43,44
 452 1380 452 1380 453 1383 c 0,45,46
 458 1405 458 1405 479 1405 c 2,47,-1
 745 1405 l 1,48,-1
 1033 282 l 1,49,-1
 1822 1405 l 1,50,-1
 2101 1405 l 2,51,52
 2122 1405 2122 1405 2117 1383 c 0,53,54
 2111 1357 2111 1357 2056.5 1339 c 128,-1,55
 2002 1321 2002 1321 1987 1257 c 2,0,-1
EndSplineSet
Validated: 1
EndChar

StartChar: N
Encoding: 78 78 49
Width: 1644
GlyphClass: 1
Flags: W
LayerCount: 2
Fore
SplineSet
1416 203 m 1,0,-1
 1659 1257 l 2,1,2
 1663 1273 1663 1273 1663 1286 c 0,3,4
 1662 1326 1662 1326 1628 1339 c 0,5,6
 1588 1355 1588 1355 1588 1377 c 0,7,8
 1588 1380 1588 1380 1589 1383 c 0,9,10
 1594 1405 1594 1405 1614 1405 c 2,11,-1
 1869 1405 l 2,12,13
 1890 1405 1890 1405 1885 1383 c 0,14,15
 1879 1357 1879 1357 1825 1339 c 128,-1,16
 1771 1321 1771 1321 1756 1257 c 2,17,-1
 1455 -43 l 1,18,-1
 1288 0 l 1,19,-1
 605 1189 l 1,20,-1
 364 146 l 2,21,22
 360 130 360 130 360 117 c 0,23,24
 360 78 360 78 395 64 c 0,25,26
 441 46 441 46 435 21 c 0,27,28
 430 0 430 0 409 0 c 2,29,-1
 155 0 l 2,30,31
 134 0 134 0 139 21 c 0,32,33
 145 46 145 46 199 63.5 c 128,-1,34
 253 81 253 81 268 146 c 2,35,-1
 524 1257 l 2,36,37
 528 1273 528 1273 528 1286 c 0,38,39
 528 1326 528 1326 493 1339 c 0,40,41
 452 1355 452 1355 452 1377 c 0,42,43
 452 1380 452 1380 453 1383 c 0,44,45
 458 1405 458 1405 479 1405 c 2,46,-1
 736 1405 l 1,47,-1
 1416 203 l 1,0,-1
EndSplineSet
Validated: 1
EndChar

StartChar: O
Encoding: 79 79 50
Width: 1610
GlyphClass: 1
Flags: W
LayerCount: 2
Fore
SplineSet
1122 1358 m 0,0,1
 815 1357 815 1357 648 1164.5 c 128,-1,2
 481 972 481 972 419 702 c 0,3,4
 396 603 396 603 396 514 c 0,5,6
 396 362 396 362 465 240 c 0,7,8
 574 48 574 48 819 46 c 2,9,-1
 824 46 l 2,10,11
 1063 46 1063 46 1264 250 c 0,12,13
 1463 452 1463 452 1519 696 c 1,14,-1
 1520 702 l 1,15,16
 1542 803 1542 803 1542 897 c 0,17,18
 1542 1034 1542 1034 1494 1154 c 0,19,20
 1414 1358 1414 1358 1122 1358 c 0,0,1
1142 1446 m 1,21,-1
 1152 1446 l 2,22,23
 1475 1446 1475 1446 1651 1248 c 0,24,25
 1766 1118 1766 1118 1766 931 c 0,26,27
 1766 851 1766 851 1745 760 c 0,28,29
 1739 733 1739 733 1731 705 c 0,30,31
 1631 361 1631 361 1369.5 171.5 c 128,-1,32
 1108 -18 1108 -18 798 -35 c 0,33,34
 775 -36 775 -36 752 -36 c 0,35,36
 474 -36 474 -36 304 156 c 0,37,38
 181 294 181 294 181 493 c 0,39,40
 181 576 181 576 202 669 c 0,41,42
 206 687 206 687 212 705 c 0,43,44
 303 1046 303 1046 557 1244 c 128,-1,45
 811 1442 811 1442 1142 1446 c 1,21,-1
EndSplineSet
Validated: 1
EndChar

StartChar: P
Encoding: 80 80 51
Width: 1237
GlyphClass: 1
Flags: W
LayerCount: 2
Fore
SplineSet
448 146 m 2,0,1
 444 130 444 130 444 117 c 0,2,3
 444 78 444 78 479 64 c 0,4,5
 525 46 525 46 519 21 c 0,6,7
 514 0 514 0 494 0 c 2,8,-1
 155 0 l 2,9,10
 134 0 134 0 139 21 c 0,11,12
 145 46 145 46 199 63.5 c 128,-1,13
 253 81 253 81 268 146 c 2,14,-1
 524 1257 l 2,15,16
 528 1273 528 1273 528 1286 c 0,17,18
 528 1326 528 1326 493 1339 c 0,19,20
 452 1355 452 1355 452 1377 c 0,21,22
 452 1380 452 1380 453 1383 c 0,23,24
 458 1405 458 1405 479 1405 c 2,25,-1
 1069 1405 l 2,26,27
 1172 1405 1172 1405 1275.5 1368 c 128,-1,28
 1379 1331 1379 1331 1416 1226 c 0,29,30
 1430 1183 1430 1183 1430 1131 c 0,31,32
 1430 1081 1430 1081 1417 1022 c 0,33,34
 1389 909 1389 909 1305 819 c 0,35,36
 1233 742 1233 742 1125 704.5 c 128,-1,37
 1017 667 1017 667 935 667 c 2,38,-1
 568 667 l 1,39,-1
 448 146 l 2,0,1
719 1321 m 1,40,-1
 584 737 l 1,41,-1
 816 737 l 2,42,43
 885 737 885 737 960.5 757 c 128,-1,44
 1036 777 1036 777 1099 828 c 0,45,46
 1197 905 1197 905 1226 1032 c 0,47,48
 1235 1069 1235 1069 1235 1103 c 0,49,50
 1235 1179 1235 1179 1190 1236 c 0,51,52
 1121 1321 1121 1321 971 1321 c 2,53,-1
 719 1321 l 1,40,-1
EndSplineSet
Validated: 1
EndChar

StartChar: Q
Encoding: 81 81 52
Width: 1610
GlyphClass: 1
Flags: W
LayerCount: 2
Fore
SplineSet
1142 1446 m 1,0,-1
 1152 1446 l 2,1,2
 1475 1446 1475 1446 1651 1248 c 0,3,4
 1766 1118 1766 1118 1766 931 c 0,5,6
 1766 851 1766 851 1745 760 c 0,7,8
 1739 733 1739 733 1731 705 c 0,9,10
 1632 362 1632 362 1370 172 c 0,11,12
 1121 -8 1121 -8 827 -33 c 1,13,14
 929 -65 929 -65 1186 -174 c 0,15,16
 1202 -181 1202 -181 1234 -181 c 0,17,18
 1281 -181 1281 -181 1366 -165 c 1,19,-1
 1354 -215 l 1,20,21
 1244 -271 1244 -271 1188 -320 c 1,22,23
 1069 -304 1069 -304 889 -222.5 c 128,-1,24
 709 -141 709 -141 642 -141 c 0,25,26
 604 -141 604 -141 475 -215 c 1,27,-1
 490 -152 l 1,28,29
 649 -63 649 -63 719 -35 c 1,30,31
 464 -24 464 -24 304 156 c 0,32,33
 181 294 181 294 181 493 c 0,34,35
 181 576 181 576 202 669 c 0,36,37
 206 687 206 687 212 705 c 0,38,39
 303 1046 303 1046 557 1244 c 128,-1,40
 811 1442 811 1442 1142 1446 c 1,0,-1
1122 1358 m 0,41,42
 815 1357 815 1357 648 1164.5 c 128,-1,43
 481 972 481 972 419 702 c 0,44,45
 396 603 396 603 396 514 c 0,46,47
 396 362 396 362 465 240 c 0,48,49
 574 48 574 48 819 46 c 2,50,-1
 824 46 l 2,51,52
 1063 46 1063 46 1264 250 c 0,53,54
 1463 452 1463 452 1519 696 c 1,55,-1
 1520 702 l 1,56,57
 1542 803 1542 803 1542 897 c 0,58,59
 1542 1034 1542 1034 1494 1154 c 0,60,61
 1414 1358 1414 1358 1122 1358 c 0,41,42
EndSplineSet
Validated: 1
EndChar

StartChar: R
Encoding: 82 82 53
Width: 1368
GlyphClass: 1
Flags: W
LayerCount: 2
Fore
SplineSet
1280 72 m 1,0,1
 1303 49 1303 49 1346 45 c 0,2,3
 1373 42 1373 42 1370 24 c 2,4,-1
 1369 21 l 2,5,6
 1361 0 1361 0 1343 0 c 2,7,-1
 1076 0 l 2,8,9
 1067 0 1067 0 1026 78 c 128,-1,10
 985 156 985 156 932 264 c 128,-1,11
 879 372 879 372 823 485 c 128,-1,12
 767 598 767 598 728 667 c 1,13,-1
 568 667 l 1,14,-1
 448 146 l 2,15,16
 444 130 444 130 444 117 c 0,17,18
 444 78 444 78 479 64 c 0,19,20
 525 46 525 46 519 21 c 0,21,22
 514 0 514 0 494 0 c 2,23,-1
 155 0 l 2,24,25
 134 0 134 0 139 21 c 0,26,27
 145 46 145 46 199 63.5 c 128,-1,28
 253 81 253 81 268 146 c 2,29,-1
 524 1257 l 2,30,31
 528 1273 528 1273 528 1286 c 0,32,33
 528 1326 528 1326 493 1339 c 0,34,35
 452 1355 452 1355 452 1377 c 0,36,37
 452 1380 452 1380 453 1383 c 0,38,39
 458 1405 458 1405 479 1405 c 2,40,-1
 1069 1405 l 2,41,42
 1172 1405 1172 1405 1275.5 1368 c 128,-1,43
 1379 1331 1379 1331 1416 1226 c 0,44,45
 1430 1183 1430 1183 1430 1131 c 0,46,47
 1430 1081 1430 1081 1417 1022 c 0,48,49
 1389 909 1389 909 1305 819 c 0,50,51
 1239 748 1239 748 1141 710 c 128,-1,52
 1043 672 1043 672 962 667 c 1,53,-1
 1280 72 l 1,0,1
719 1321 m 1,54,-1
 584 737 l 1,55,-1
 816 737 l 2,56,57
 885 737 885 737 960.5 757 c 128,-1,58
 1036 777 1036 777 1099 828 c 0,59,60
 1197 905 1197 905 1226 1032 c 0,61,62
 1235 1069 1235 1069 1235 1103 c 0,63,64
 1235 1179 1235 1179 1190 1236 c 0,65,66
 1121 1321 1121 1321 971 1321 c 2,67,-1
 719 1321 l 1,54,-1
EndSplineSet
Validated: 1
EndChar

StartChar: S
Encoding: 83 83 54
Width: 1075
GlyphClass: 1
Flags: W
LayerCount: 2
Fore
SplineSet
947 388 m 1,0,-1
 949 399 l 2,1,2
 955 427 955 427 955 452 c 0,3,4
 955 527 955 527 903 572 c 0,5,6
 871 600 871 600 796.5 622.5 c 128,-1,7
 722 645 722 645 614 657 c 128,-1,8
 506 669 506 669 422 714 c 0,9,10
 339 758 339 758 314 840 c 0,11,12
 301 883 301 883 301 931 c 0,13,14
 301 973 301 973 311 1018 c 0,15,16
 354 1206 354 1206 515 1327.5 c 128,-1,17
 676 1449 676 1449 880 1449 c 2,18,-1
 910 1449 l 1,19,20
 1131 1439 1131 1439 1263 1338 c 1,21,-1
 1190 1128 l 2,22,23
 1184 1110 1184 1110 1167 1110 c 2,24,-1
 1163 1110 l 2,25,26
 1150 1111 1150 1111 1145 1138 c 0,27,28
 1123 1228 1123 1228 1055.5 1291.5 c 128,-1,29
 988 1355 988 1355 894 1359 c 1,30,-1
 878 1359 l 2,31,32
 786 1359 786 1359 720 1330.5 c 128,-1,33
 654 1302 654 1302 620 1273.5 c 128,-1,34
 586 1245 586 1245 559.5 1208 c 128,-1,35
 533 1171 533 1171 516.5 1133 c 128,-1,36
 500 1095 500 1095 492 1061 c 0,37,38
 487 1038 487 1038 487 1016 c 0,39,40
 487 1005 487 1005 488 994 c 0,41,42
 494 927 494 927 531.5 894.5 c 128,-1,43
 569 862 569 862 602.5 853 c 128,-1,44
 636 844 636 844 670.5 837.5 c 128,-1,45
 705 831 705 831 751 823.5 c 128,-1,46
 797 816 797 816 858.5 806.5 c 128,-1,47
 920 797 920 797 994 772 c 128,-1,48
 1068 747 1068 747 1100 700 c 0,49,50
 1132 654 1132 654 1144 596 c 0,51,52
 1148 574 1148 574 1148 547 c 0,53,54
 1148 507 1148 507 1137 459 c 0,55,56
 1086 240 1086 240 881 103 c 0,57,58
 775 32 775 32 668 0 c 0,59,60
 563 -32 563 -32 501 -35.5 c 128,-1,61
 439 -39 439 -39 418 -39 c 0,62,63
 279 -39 279 -39 161 0 c 1,64,-1
 127 264 l 2,65,66
 126 269 126 269 128 276.5 c 128,-1,67
 130 284 130 284 140 295.5 c 128,-1,68
 150 307 150 307 163 307 c 0,69,70
 174 304 174 304 181 278 c 0,71,72
 213 139 213 139 291.5 96 c 128,-1,73
 370 53 370 53 493 53 c 0,74,75
 519 53 519 53 574.5 56.5 c 128,-1,76
 630 60 630 60 713 97.5 c 128,-1,77
 796 135 796 135 859.5 208.5 c 128,-1,78
 923 282 923 282 947 388 c 1,0,-1
EndSplineSet
Validated: 1
EndChar

StartChar: T
Encoding: 84 84 55
Width: 1255
GlyphClass: 1
Flags: W
LayerCount: 2
Fore
SplineSet
1010 1256 m 2,0,-1
 754 147 l 2,1,2
 750 131 750 131 750 117 c 0,3,4
 750 76 750 76 785 64 c 0,5,6
 831 46 831 46 825 21 c 0,7,8
 820 0 820 0 799 0 c 2,9,-1
 460 0 l 2,10,11
 440 0 440 0 445 21 c 0,12,13
 451 46 451 46 505 63.5 c 128,-1,14
 559 81 559 81 574 146 c 2,15,-1
 830 1256 l 2,16,17
 837 1286 837 1286 831 1306 c 1,18,-1
 588 1306 l 2,19,20
 528 1306 528 1306 481 1268 c 0,21,22
 428 1224 428 1224 369 1161 c 0,23,24
 332 1121 332 1121 323 1121 c 0,25,26
 302 1121 302 1121 307 1142 c 2,27,-1
 350 1328 l 2,28,29
 362 1382 362 1382 383 1393.5 c 128,-1,30
 404 1405 404 1405 481 1405 c 2,31,-1
 1425 1405 l 2,32,33
 1508 1405 1508 1405 1522 1395 c 0,34,35
 1529 1390 1529 1390 1528 1373 c 0,36,37
 1528 1356 1528 1356 1522 1328 c 2,38,-1
 1479 1142 l 2,39,40
 1474 1121 1474 1121 1453 1121 c 0,41,42
 1444 1121 1444 1121 1424 1161 c 0,43,44
 1389 1230 1389 1230 1361.5 1268 c 128,-1,45
 1334 1306 1334 1306 1274 1306 c 2,46,-1
 1033 1306 l 1,47,48
 1017 1286 1017 1286 1010 1256 c 2,0,-1
EndSplineSet
Validated: 1
EndChar

StartChar: U
Encoding: 85 85 56
Width: 1554
GlyphClass: 1
Flags: W
LayerCount: 2
Fore
SplineSet
370 588 m 2,0,-1
 524 1258 l 2,1,2
 528 1274 528 1274 528 1287 c 0,3,4
 528 1327 528 1327 494 1340 c 0,5,6
 453 1356 453 1356 453 1378 c 0,7,8
 453 1405 453 1405 479 1405 c 2,9,-1
 818 1405 l 2,10,11
 838 1405 838 1405 833 1383 c 0,12,13
 827 1356 827 1356 774.5 1340 c 128,-1,14
 722 1324 722 1324 707 1260 c 2,15,-1
 582 721 l 2,16,17
 547 568 547 568 530 450 c 0,18,19
 523 400 523 400 523 356 c 0,20,21
 523 297 523 297 536 251 c 0,22,23
 558 170 558 170 633.5 128 c 128,-1,24
 709 86 709 86 859 86 c 0,25,26
 1123 86 1123 86 1265 294 c 0,27,28
 1366 440 1366 440 1430 721 c 2,29,-1
 1554 1257 l 2,30,31
 1558 1273 1558 1273 1558 1286 c 0,32,33
 1558 1326 1558 1326 1524 1340 c 0,34,35
 1483 1356 1483 1356 1483 1378 c 0,36,37
 1483 1405 1483 1405 1509 1405 c 2,38,-1
 1764 1405 l 2,39,40
 1784 1405 1784 1405 1779 1383 c 0,41,42
 1773 1358 1773 1358 1719 1340 c 0,43,44
 1666 1322 1666 1322 1651 1257 c 2,45,-1
 1497 588 l 2,46,47
 1462 439 1462 439 1406.5 315.5 c 128,-1,48
 1351 192 1351 192 1261 108 c 0,49,50
 1100 -39 1100 -39 830 -39 c 0,51,52
 659 -39 659 -39 546.5 -7 c 128,-1,53
 434 25 434 25 381 109 c 0,54,55
 334 184 334 184 334 315 c 0,56,57
 334 430 334 430 370 588 c 2,0,-1
EndSplineSet
Validated: 1
EndChar

StartChar: V
Encoding: 86 86 57
Width: 1479
GlyphClass: 1
Flags: W
LayerCount: 2
Fore
SplineSet
684 1263 m 2,0,-1
 857 177 l 1,1,-1
 1526 1107 l 2,2,3
 1545 1133 1545 1133 1549 1154 c 0,4,5
 1553 1172 1553 1172 1548 1186 c 0,6,7
 1536 1216 1536 1216 1507 1264 c 2,8,-1
 1471 1321 l 1,9,-1
 1617 1415 l 2,10,11
 1627 1422 1627 1422 1635 1422 c 0,12,13
 1645 1422 1645 1422 1655 1412 c 2,14,-1
 1718 1328 l 2,15,16
 1731 1310 1731 1310 1731 1287 c 0,17,18
 1731 1275 1731 1275 1728 1262 c 0,19,20
 1723 1240 1723 1240 1710 1215 c 0,21,22
 1670 1144 1670 1144 1600 1048 c 2,23,-1
 875 32 l 2,24,25
 864 15 864 15 855 6 c 0,26,27
 846 0 846 0 838 0 c 2,28,-1
 687 0 l 2,29,30
 677 0 677 0 673 8 c 0,31,32
 671 11 671 11 668 31 c 128,-1,33
 665 51 665 51 664 60 c 2,34,-1
 528 1110 l 2,35,36
 512 1216 512 1216 504 1258 c 0,37,38
 495 1295 495 1295 461 1325 c 0,39,40
 440 1340 440 1340 420 1349.5 c 128,-1,41
 400 1359 400 1359 388 1369 c 0,42,43
 380 1374 380 1374 379 1383 c 0,44,45
 377 1387 377 1387 378 1392 c 0,46,47
 378 1394 378 1394 382 1398 c 0,48,49
 388 1405 388 1405 395 1405 c 2,50,-1
 734 1405 l 2,51,52
 743 1405 743 1405 751 1398 c 0,53,54
 758 1390 758 1390 759 1383 c 0,55,56
 759 1380 759 1380 759 1378 c 0,57,58
 757 1368 757 1368 744 1358 c 0,59,60
 732 1349 732 1349 717 1338.5 c 128,-1,61
 702 1328 702 1328 692 1313 c 0,62,63
 686 1303 686 1303 683 1292 c 0,64,65
 680 1278 680 1278 684 1263 c 2,0,-1
EndSplineSet
Validated: 1
EndChar

StartChar: W
Encoding: 87 87 58
Width: 2069
GlyphClass: 1
Flags: W
LayerCount: 2
Fore
SplineSet
684 1263 m 2,0,-1
 857 177 l 1,1,-1
 1181 627 l 1,2,-1
 1118 1110 l 2,3,4
 1102 1216 1102 1216 1094 1258 c 0,5,6
 1085 1295 1085 1295 1051 1325 c 0,7,8
 1030 1340 1030 1340 1010 1349.5 c 128,-1,9
 990 1359 990 1359 978 1369 c 0,10,11
 971 1376 971 1376 970 1385 c 0,12,13
 968 1389 968 1389 968 1392 c 0,14,15
 968 1394 968 1394 972 1398 c 0,16,17
 978 1405 978 1405 985 1405 c 2,18,-1
 1324 1405 l 2,19,20
 1333 1405 1333 1405 1340.5 1398.5 c 128,-1,21
 1348 1392 1348 1392 1350 1385 c 0,22,23
 1350 1382 1350 1382 1349 1378 c 0,24,25
 1347 1368 1347 1368 1334 1358 c 0,26,27
 1322 1349 1322 1349 1307 1338.5 c 128,-1,28
 1292 1328 1292 1328 1282 1313 c 0,29,30
 1276 1303 1276 1303 1273 1292 c 0,31,32
 1270 1278 1270 1278 1274 1263 c 2,33,-1
 1340 849 l 1,34,-1
 1526 1107 l 2,35,36
 1545 1133 1545 1133 1549 1154 c 0,37,38
 1553 1172 1553 1172 1548 1186 c 0,39,40
 1536 1216 1536 1216 1507 1264 c 2,41,-1
 1471 1321 l 1,42,-1
 1617 1415 l 2,43,44
 1627 1422 1627 1422 1635 1422 c 0,45,46
 1645 1422 1645 1422 1655 1412 c 2,47,-1
 1718 1328 l 2,48,49
 1731 1310 1731 1310 1731 1287 c 0,50,51
 1731 1275 1731 1275 1728 1262 c 0,52,53
 1723 1240 1723 1240 1710 1215 c 0,54,55
 1670 1144 1670 1144 1600 1048 c 2,56,-1
 1362 713 l 1,57,-1
 1447 177 l 1,58,-1
 2116 1107 l 2,59,60
 2135 1133 2135 1133 2139 1154 c 0,61,62
 2143 1172 2143 1172 2138 1186 c 0,63,64
 2126 1216 2126 1216 2097 1264 c 2,65,-1
 2061 1321 l 1,66,-1
 2207 1415 l 2,67,68
 2217 1422 2217 1422 2225 1422 c 0,69,70
 2235 1422 2235 1422 2245 1412 c 2,71,-1
 2308 1328 l 2,72,73
 2321 1310 2321 1310 2321 1287 c 0,74,75
 2321 1275 2321 1275 2318 1262 c 0,76,77
 2313 1240 2313 1240 2300 1215 c 0,78,79
 2260 1144 2260 1144 2190 1048 c 2,80,-1
 1465 32 l 2,81,82
 1454 15 1454 15 1445 6 c 0,83,84
 1436 0 1436 0 1428 0 c 2,85,-1
 1277 0 l 2,86,87
 1267 0 1267 0 1263 8 c 0,88,89
 1261 11 1261 11 1258 31 c 128,-1,90
 1255 51 1255 51 1254 60 c 2,91,-1
 1199 486 l 1,92,-1
 875 32 l 2,93,94
 864 15 864 15 855 6 c 0,95,96
 846 0 846 0 838 0 c 2,97,-1
 687 0 l 2,98,99
 677 0 677 0 673 8 c 0,100,101
 671 11 671 11 668 31 c 128,-1,102
 665 51 665 51 664 60 c 2,103,-1
 528 1110 l 2,104,105
 512 1216 512 1216 504 1258 c 0,106,107
 495 1295 495 1295 461 1325 c 0,108,109
 440 1340 440 1340 420 1349.5 c 128,-1,110
 400 1359 400 1359 388 1369 c 0,111,112
 381 1376 381 1376 380 1385 c 0,113,114
 378 1389 378 1389 378 1392 c 0,115,116
 378 1394 378 1394 382 1398 c 0,117,118
 388 1405 388 1405 395 1405 c 2,119,-1
 734 1405 l 2,120,121
 743 1405 743 1405 750.5 1398.5 c 128,-1,122
 758 1392 758 1392 760 1385 c 0,123,124
 760 1382 760 1382 759 1378 c 0,125,126
 757 1368 757 1368 744 1358 c 0,127,128
 732 1349 732 1349 717 1338.5 c 128,-1,129
 702 1328 702 1328 692 1313 c 0,130,131
 686 1303 686 1303 683 1292 c 0,132,133
 680 1278 680 1278 684 1263 c 2,0,-1
EndSplineSet
Validated: 1
EndChar

StartChar: X
Encoding: 88 88 59
Width: 1404
GlyphClass: 1
Flags: W
LayerCount: 2
Fore
SplineSet
350 78 m 1,0,-1
 350 39 l 2,1,2
 347 27 347 27 334 13.5 c 128,-1,3
 321 0 321 0 307 0 c 2,4,-1
 49 0 l 2,5,6
 37 0 37 0 37 6 c 2,7,-1
 39 11 l 2,8,9
 43 28 43 28 77 41 c 2,10,-1
 134 62 l 2,11,12
 219 95 219 95 267 146 c 2,13,-1
 762 677 l 1,14,-1
 521 1258 l 2,15,16
 495 1316 495 1316 413 1350 c 0,17,18
 390 1358 390 1358 377 1366 c 0,19,20
 356 1380 356 1380 360 1394 c 2,21,-1
 361 1398 l 2,22,23
 364 1405 364 1405 372 1405 c 2,24,-1
 744 1405 l 2,25,26
 761 1405 761 1405 769 1391.5 c 128,-1,27
 777 1378 777 1378 776 1372 c 256,28,29
 775 1366 775 1366 765.5 1357.5 c 128,-1,30
 756 1349 756 1349 744 1338.5 c 128,-1,31
 732 1328 732 1328 727 1313 c 2,32,-1
 726 1308 l 2,33,34
 721 1285 721 1285 732 1263 c 2,35,-1
 913 831 l 1,36,-1
 1266 1204 l 2,37,38
 1355 1298 1355 1298 1418 1355 c 0,39,40
 1480 1411 1480 1411 1514 1411 c 0,41,42
 1518 1411 1518 1411 1521 1410 c 0,43,44
 1532 1407 1532 1407 1539 1405 c 2,45,-1
 1632 1376 l 2,46,47
 1647 1369 1647 1369 1644.5 1359 c 128,-1,48
 1642 1349 1642 1349 1639 1341 c 2,49,-1
 1557 1171 l 1,50,-1
 1496 1186 l 2,51,52
 1447 1198 1447 1198 1412 1200 c 2,53,-1
 1409 1200 l 2,54,55
 1378 1200 1378 1200 1334 1153 c 2,56,-1
 950 742 l 1,57,-1
 1200 146 l 2,58,59
 1222 94 1222 94 1308 54 c 0,60,61
 1330 44 1330 44 1342 36 c 0,62,63
 1365 21 1365 21 1363 11 c 0,64,65
 1360 0 1360 0 1349 0 c 2,66,-1
 977 0 l 2,67,68
 968 0 968 0 958 6 c 0,69,70
 941 16 941 16 944 27 c 256,71,72
 947 38 947 38 968 58 c 128,-1,73
 989 78 989 78 994 91 c 2,74,-1
 996 98 l 2,75,76
 1001 118 1001 118 993 141 c 2,77,-1
 800 588 l 1,78,-1
 395 147 l 2,79,80
 356 105 356 105 350 78 c 1,0,-1
EndSplineSet
Validated: 1
EndChar

StartChar: Y
Encoding: 89 89 60
Width: 1288
GlyphClass: 1
Flags: W
LayerCount: 2
Fore
SplineSet
745 677 m 2,0,-1
 530 1258 l 2,1,2
 515 1292 515 1292 469 1325 c 0,3,4
 444 1340 444 1340 422 1350 c 0,5,6
 394 1361 394 1361 384.5 1369 c 128,-1,7
 375 1377 375 1377 371 1385 c 0,8,9
 368 1391 368 1391 369 1394 c 2,10,-1
 370 1398 l 2,11,12
 373 1405 373 1405 381 1405 c 2,13,-1
 720 1405 l 2,14,15
 728 1405 728 1405 738 1398 c 0,16,17
 750 1389 750 1389 752 1385 c 0,18,19
 754 1380 754 1380 752 1373 c 128,-1,20
 750 1366 750 1366 742 1358 c 0,21,22
 733 1349 733 1349 720.5 1338.5 c 128,-1,23
 708 1328 708 1328 703 1313 c 2,24,-1
 702 1308 l 2,25,26
 697 1286 697 1286 708 1263 c 2,27,-1
 921 729 l 1,28,-1
 1271 1124 l 2,29,30
 1311 1168 1311 1168 1324 1200 c 0,31,32
 1326 1205 1326 1205 1326 1210 c 0,33,34
 1326 1220 1326 1220 1326 1229 c 0,35,36
 1326 1265 1326 1265 1320 1288 c 2,37,-1
 1302 1356 l 1,38,-1
 1459 1418 l 2,39,40
 1467 1421 1467 1421 1473 1421 c 0,41,42
 1486 1421 1486 1421 1493 1405 c 2,43,-1
 1530 1304 l 2,44,45
 1537 1285 1537 1285 1532 1266 c 0,46,47
 1524 1232 1524 1232 1482 1197 c 0,48,49
 1416 1141 1416 1141 1336 1054 c 2,50,-1
 981 666 l 2,51,52
 957 639 957 639 940 590 c 128,-1,53
 923 541 923 541 913 497 c 2,54,-1
 832 146 l 2,55,56
 828 130 828 130 828 117 c 0,57,58
 828 78 828 78 863 64 c 0,59,60
 909 46 909 46 903 21 c 0,61,62
 898 0 898 0 877 0 c 2,63,-1
 538 0 l 2,64,65
 517 0 517 0 522 21 c 0,66,67
 528 46 528 46 582 63.5 c 128,-1,68
 636 81 636 81 651 146 c 2,69,-1
 749 573 l 2,70,71
 755 598 755 598 755 621 c 0,72,73
 755 651 755 651 745 677 c 2,0,-1
EndSplineSet
Validated: 1
EndChar

StartChar: Z
Encoding: 90 90 61
Width: 1423
GlyphClass: 1
Flags: W
LayerCount: 2
Fore
SplineSet
450 1126 m 0,0,1
 429 1126 429 1126 434 1147 c 2,2,-1
 477 1332 l 2,3,4
 489 1386 489 1386 510.5 1397.5 c 128,-1,5
 532 1409 532 1409 608 1409 c 2,6,-1
 1532 1409 l 2,7,8
 1616 1409 1616 1409 1625 1397 c 0,9,10
 1634 1384 1634 1384 1630 1369 c 0,11,12
 1627 1352 1627 1352 1607 1332 c 2,13,-1
 340 98 l 1,14,-1
 1121 99 l 2,15,16
 1181 99 1181 99 1226.5 136.5 c 128,-1,17
 1272 174 1272 174 1324 228.5 c 128,-1,18
 1376 283 1376 283 1385 283 c 0,19,20
 1406 283 1406 283 1401 262 c 2,21,-1
 1359 77 l 2,22,23
 1346 19 1346 19 1328 9.5 c 128,-1,24
 1310 0 1310 0 1228 0 c 2,25,-1
 157 0 l 2,26,27
 74 0 74 0 53 6 c 0,28,29
 36 13 36 13 36 25 c 0,30,31
 36 40 36 40 62 61 c 2,32,-1
 1323 1312 l 1,33,-1
 715 1311 l 2,34,35
 655 1311 655 1311 609 1273 c 128,-1,36
 563 1235 563 1235 511.5 1180.5 c 128,-1,37
 460 1126 460 1126 450 1126 c 0,0,1
EndSplineSet
Validated: 1
EndChar

StartChar: bracketleft
Encoding: 91 91 62
Width: 682
GlyphClass: 1
Flags: W
LayerCount: 2
Fore
SplineSet
398 -367 m 2,0,1
 415 -367 415 -367 409 -394 c 0,2,3
 403 -420 403 -420 391 -420 c 2,4,-1
 144 -420 l 2,5,6
 123 -420 123 -420 128 -400 c 2,7,-1
 552 1436 l 2,8,9
 559 1466 559 1466 579 1466 c 2,10,-1
 826 1466 l 2,11,12
 838 1466 838 1466 832 1438 c 0,13,14
 825 1409 825 1409 808 1409 c 2,15,-1
 663 1409 l 1,16,-1
 253 -367 l 1,17,-1
 398 -367 l 2,0,1
EndSplineSet
Validated: 1
EndChar

StartChar: backslash
Encoding: 92 92 63
Width: 1100
GlyphClass: 1
Flags: W
LayerCount: 2
Fore
SplineSet
1026 -70 m 1,0,-1
 884 -70 l 1,1,-1
 398 1474 l 1,2,-1
 538 1474 l 1,3,-1
 1026 -70 l 1,0,-1
EndSplineSet
Validated: 1
EndChar

StartChar: bracketright
Encoding: 93 93 64
Width: 682
GlyphClass: 1
Flags: W
LayerCount: 2
Fore
SplineSet
563 1413 m 2,0,1
 546 1413 546 1413 552 1440 c 0,2,3
 558 1466 558 1466 570 1466 c 2,4,-1
 817 1466 l 2,5,6
 838 1466 838 1466 834 1446 c 2,7,-1
 410 -390 l 2,8,9
 403 -420 403 -420 382 -420 c 2,10,-1
 135 -420 l 2,11,12
 124 -420 124 -420 130 -392 c 0,13,14
 137 -363 137 -363 153 -363 c 2,15,-1
 298 -363 l 1,16,-1
 708 1413 l 1,17,-1
 563 1413 l 2,0,1
EndSplineSet
Validated: 1
EndChar

StartChar: asciicircum
Encoding: 94 94 65
Width: 1100
GlyphClass: 1
Flags: W
LayerCount: 2
Fore
SplineSet
826 1430 m 1,0,-1
 934 1430 l 1,1,-1
 1127 912 l 1,2,-1
 1071 912 l 1,3,-1
 853 1312 l 1,4,-1
 449 912 l 1,5,-1
 395 912 l 1,6,-1
 826 1430 l 1,0,-1
EndSplineSet
Validated: 1
EndChar

StartChar: underscore
Encoding: 95 95 66
Width: 1100
GlyphClass: 1
Flags: W
LayerCount: 2
Fore
SplineSet
-50 -218 m 1,0,-1
 1050 -218 l 1,1,-1
 1022 -336 l 1,2,-1
 -78 -336 l 1,3,-1
 -50 -218 l 1,0,-1
EndSplineSet
Validated: 1
EndChar

StartChar: grave
Encoding: 96 96 67
Width: 1000
GlyphClass: 1
Flags: W
LayerCount: 2
Fore
SplineSet
977 1098 m 2,0,1
 977 1098 977 1098 588 1257 c 0,2,3
 555 1270 555 1270 555 1305 c 0,4,5
 555 1315 555 1315 558 1326 c 0,6,7
 575 1400 575 1400 649 1400 c 0,8,9
 671 1400 671 1400 686 1387 c 2,10,-1
 1003 1129 l 2,11,12
 1007 1122 1007 1122 1005 1114 c 0,13,14
 1001 1097 1001 1097 983 1097 c 0,15,16
 979 1097 979 1097 977 1098 c 2,0,1
EndSplineSet
Validated: 1
EndChar

StartChar: a
Encoding: 97 97 68
Width: 1155
GlyphClass: 1
Flags: W
LayerCount: 2
Fore
SplineSet
717 861 m 0,0,1
 629 835 629 835 605 824 c 0,2,3
 543 803 543 803 501 767 c 0,4,5
 447 721 447 721 393 604 c 0,6,7
 371 556 371 556 359 502 c 0,8,9
 342 430 342 430 341 369 c 0,10,11
 341 361 341 361 341 354 c 0,12,13
 341 263 341 263 375 196 c 0,14,15
 436 75 436 75 573 75 c 0,16,17
 627 75 627 75 698 99 c 2,18,-1
 830 143 l 1,19,-1
 976 776 l 1,20,21
 947 804 947 804 889 837 c 0,22,23
 843 862 843 862 812 869 c 0,24,25
 799 872 799 872 783 872 c 0,26,27
 755 872 755 872 717 861 c 0,0,1
1079 893 m 1,28,29
 1098 893 1098 893 1123 913 c 2,30,-1
 1149 936 l 2,31,32
 1162 947 1162 947 1181 936 c 0,33,34
 1193 930 1193 930 1190 919 c 2,35,-1
 1175 854 l 1,36,-1
 1012 148 l 1,37,-1
 1012 146 l 1,38,39
 1008 130 1008 130 1008 117 c 0,40,41
 1008 77 1008 77 1043 64 c 0,42,43
 1084 48 1084 48 1084 27 c 0,44,45
 1084 24 1084 24 1083 21 c 0,46,47
 1078 0 1078 0 1057 0 c 2,48,-1
 814 0 l 2,49,50
 797 0 797 0 800 13 c 2,51,-1
 816 84 l 1,52,-1
 519 -14 l 2,53,54
 485 -25 485 -25 463 -25 c 2,55,-1
 422 -25 l 2,56,57
 358 -25 358 -25 307 -1 c 0,58,59
 246 28 246 28 203 92 c 0,60,61
 145 180 145 180 145 298 c 0,62,63
 145 362 145 362 162 434 c 0,64,65
 175 492 175 492 192 538 c 0,66,67
 225 626 225 626 289 700 c 0,68,69
 336 755 336 755 401 796 c 0,70,71
 435 818 435 818 465 830 c 0,72,73
 712 915 712 915 821 949 c 0,74,75
 840 955 840 955 864 955 c 0,76,77
 895 955 895 955 934 945 c 0,78,79
 964 938 964 938 1079 893 c 1,28,29
EndSplineSet
Validated: 1
EndChar

StartChar: b
Encoding: 98 98 69
Width: 1139
GlyphClass: 1
Flags: W
LayerCount: 2
Fore
SplineSet
456 1257 m 2,0,1
 460 1273 460 1273 460 1286 c 0,2,3
 460 1326 460 1326 425 1339 c 0,4,5
 384 1355 384 1355 384 1377 c 0,6,7
 384 1380 384 1380 385 1383 c 0,8,9
 390 1404 390 1404 411 1404 c 0,10,11
 468 1404 468 1404 534.5 1422.5 c 128,-1,12
 601 1441 601 1441 635 1473 c 0,13,14
 645 1483 645 1483 662 1475.5 c 128,-1,15
 679 1468 679 1468 676 1456 c 2,16,-1
 535 843 l 1,17,-1
 841 944 l 2,18,19
 875 955 875 955 896 955 c 2,20,-1
 937 955 l 2,21,22
 1001 955 1001 955 1053 931 c 0,23,24
 1114 902 1114 902 1156 838 c 0,25,26
 1214 750 1214 750 1214 630 c 0,27,28
 1214 567 1214 567 1198 496 c 0,29,30
 1186 438 1186 438 1168 392 c 0,31,32
 1135 304 1135 304 1071 230 c 0,33,34
 1024 175 1024 175 959 134 c 0,35,36
 925 112 925 112 895 100 c 0,37,38
 648 15 648 15 539 -19 c 0,39,40
 520 -25 520 -25 495 -25 c 0,41,42
 464 -25 464 -25 426 -15 c 0,43,44
 394 -7 394 -7 271 42 c 1,45,46
 254 44 254 44 241 30 c 0,47,48
 222 10 222 10 210.5 -2.5 c 128,-1,49
 199 -15 199 -15 182.5 -7 c 128,-1,50
 166 1 166 1 169 13 c 2,51,-1
 456 1257 l 2,0,1
643 69 m 0,52,53
 731 95 731 95 754 106 c 0,54,55
 816 127 816 127 859 163 c 0,56,57
 913 209 913 209 966 326 c 0,58,59
 988 374 988 374 1001 428 c 0,60,61
 1018 500 1018 500 1019 561 c 0,62,63
 1019 568 1019 568 1019 575 c 0,64,65
 1019 666 1019 666 984 734 c 0,66,67
 923 855 923 855 786 855 c 0,68,69
 732 855 732 855 662 831 c 2,70,-1
 521 784 l 1,71,-1
 449 470 l 1,72,-1
 377 161 l 1,73,74
 405 130 405 130 470 93 c 0,75,76
 516 68 516 68 548 61 c 0,77,78
 561 58 561 58 576 58 c 0,79,80
 605 58 605 58 643 69 c 0,52,53
EndSplineSet
Validated: 1
EndChar

StartChar: c
Encoding: 99 99 70
Width: 925
GlyphClass: 1
Flags: W
LayerCount: 2
Fore
SplineSet
797 956 m 2,0,1
 960 956 960 956 1076 868 c 1,2,-1
 1020 699 l 2,3,4
 1015 686 1015 686 1005 686 c 0,5,6
 1004 686 1004 686 1003 686 c 0,7,8
 991 687 991 687 988 706 c 0,9,10
 968 793 968 793 912.5 831.5 c 128,-1,11
 857 870 857 870 765 870 c 2,12,-1
 741 870 l 1,13,14
 630 864 630 864 561 810 c 0,15,16
 431 709 431 709 387 519 c 0,17,18
 380 490 380 490 376 458 c 0,19,20
 368 408 368 408 368 365 c 0,21,22
 368 278 368 278 400 214 c 0,23,24
 464 90 464 90 576 72 c 0,25,26
 596 70 596 70 614 70 c 0,27,28
 713 70 713 70 797 114.5 c 128,-1,29
 881 159 881 159 897.5 159 c 128,-1,30
 914 159 914 159 918 158 c 0,31,32
 919 153 919 153 916.5 142 c 128,-1,33
 914 131 914 131 895 106.5 c 128,-1,34
 876 82 876 82 853 65 c 0,35,36
 721 -25 721 -25 535 -25 c 128,-1,37
 349 -25 349 -25 246 78 c 0,38,39
 164 164 164 164 164 304 c 0,40,41
 164 369 164 369 182 446 c 0,42,43
 195 501 195 501 217 563 c 1,44,45
 311 784 311 784 522 891 c 0,46,47
 640 950 640 950 776 956 c 1,48,-1
 797 956 l 2,0,1
EndSplineSet
Validated: 1
EndChar

StartChar: d
Encoding: 100 100 71
Width: 1155
GlyphClass: 1
Flags: W
LayerCount: 2
Fore
SplineSet
1096 1258 m 2,0,1
 1100 1273 1100 1273 1100 1286 c 0,2,3
 1100 1325 1100 1325 1065 1339 c 0,4,5
 1024 1355 1024 1355 1024 1377 c 0,6,7
 1024 1380 1024 1380 1025 1383 c 0,8,9
 1030 1404 1030 1404 1051 1404 c 0,10,11
 1108 1404 1108 1404 1180 1424 c 0,12,13
 1241 1441 1241 1441 1275 1473 c 0,14,15
 1283 1480 1283 1480 1288 1479 c 0,16,17
 1300 1477 1300 1477 1307 1473 c 0,18,19
 1320 1467 1320 1467 1316 1456 c 0,20,21
 1135 670 1135 670 1014 146 c 0,22,23
 1010 130 1010 130 1010 117 c 0,24,25
 1010 78 1010 78 1045 64 c 0,26,27
 1091 46 1091 46 1085 21 c 0,28,29
 1080 0 1080 0 1059 0 c 2,30,-1
 823 0 l 2,31,32
 806 0 806 0 809 13 c 2,33,-1
 826 87 l 1,34,-1
 519 -14 l 2,35,36
 485 -25 485 -25 463 -25 c 2,37,-1
 422 -25 l 2,38,39
 358 -25 358 -25 307 -1 c 0,40,41
 246 28 246 28 203 92 c 0,42,43
 145 180 145 180 145 298 c 0,44,45
 145 362 145 362 162 434 c 0,46,47
 175 492 175 492 192 538 c 0,48,49
 225 626 225 626 289 700 c 0,50,51
 336 755 336 755 401 796 c 0,52,53
 435 818 435 818 465 830 c 0,54,55
 712 915 712 915 821 949 c 0,56,57
 840 955 840 955 864 955 c 0,58,59
 895 955 895 955 934 945 c 0,60,61
 955 940 955 940 1017 916 c 1,62,-1
 1096 1258 l 2,0,1
717 861 m 0,63,64
 629 835 629 835 605 824 c 0,65,66
 543 803 543 803 501 767 c 0,67,68
 447 721 447 721 393 604 c 0,69,70
 371 556 371 556 359 502 c 0,71,72
 342 430 342 430 341 369 c 0,73,74
 341 361 341 361 341 354 c 0,75,76
 341 263 341 263 375 196 c 0,77,78
 436 75 436 75 573 75 c 0,79,80
 627 75 627 75 698 99 c 2,81,-1
 839 146 l 1,82,-1
 983 769 l 1,83,84
 955 800 955 800 889 837 c 0,85,86
 843 862 843 862 812 869 c 0,87,88
 799 872 799 872 783 872 c 0,89,90
 755 872 755 872 717 861 c 0,63,64
EndSplineSet
Validated: 1
EndChar

StartChar: e
Encoding: 101 101 72
Width: 1004
GlyphClass: 1
Flags: W
LayerCount: 2
Fore
SplineSet
759 960 m 2,0,1
 956 960 956 960 1034 847 c 0,2,3
 1084 774 1084 774 1084 671 c 0,4,5
 1084 615 1084 615 1069 551 c 0,6,7
 1059 511 1059 511 1053 494.5 c 128,-1,8
 1047 478 1047 478 1008 478 c 2,9,-1
 371 478 l 1,10,11
 358 416 358 416 358 362 c 0,12,13
 358 276 358 276 392 210 c 0,14,15
 446 104 446 104 560 79 c 0,16,17
 593 71 593 71 629 71 c 0,18,19
 724 71 724 71 813.5 114 c 128,-1,20
 903 157 903 157 915.5 157 c 128,-1,21
 928 157 928 157 930.5 154.5 c 128,-1,22
 933 152 933 152 931 142.5 c 128,-1,23
 929 133 929 133 911 109 c 128,-1,24
 893 85 893 85 883.5 77 c 128,-1,25
 874 69 874 69 867 63 c 0,26,27
 736 -31 736 -31 549 -31 c 0,28,29
 287 -29 287 -29 195 137 c 0,30,31
 150 219 150 219 150 320 c 0,32,33
 150 377 150 377 164 441 c 0,34,35
 176 494 176 494 198 551 c 0,36,37
 269 736 269 736 414 847 c 128,-1,38
 559 958 559 958 755 960 c 2,39,-1
 759 960 l 2,0,1
915 551 m 1,40,41
 928 609 928 609 928 662 c 0,42,43
 928 720 928 720 912 772 c 0,44,45
 881 872 881 872 740 872 c 2,46,-1
 729 872 l 1,47,48
 587 868 587 868 503.5 770 c 128,-1,49
 420 672 420 672 388 551 c 1,50,-1
 915 551 l 1,40,41
EndSplineSet
Validated: 1
EndChar

StartChar: f
Encoding: 102 102 73
Width: 683
GlyphClass: 1
Flags: W
LayerCount: 2
Fore
SplineSet
856 928 m 0,0,1
 837 844 837 844 788 844 c 2,2,-1
 577 844 l 1,3,-1
 416 146 l 2,4,5
 412 130 412 130 412 117 c 0,6,7
 412 78 412 78 447 64 c 0,8,9
 493 46 493 46 487.5 23 c 128,-1,10
 482 0 482 0 461 0 c 2,11,-1
 129 0 l 2,12,13
 108 0 108 0 113.5 23 c 128,-1,14
 119 46 119 46 173 63.5 c 128,-1,15
 227 81 227 81 242 146 c 2,16,-1
 403 844 l 1,17,-1
 283 844 l 2,18,19
 263 844 263 844 267 864 c 1,20,-1
 268 866 l 1,21,22
 271 881 271 881 293 891 c 0,23,24
 410 944 410 944 427 948 c 1,25,-1
 445 1027 l 2,26,27
 474 1154 474 1154 508.5 1219.5 c 128,-1,28
 543 1285 543 1285 569.5 1310.5 c 128,-1,29
 596 1336 596 1336 623 1345 c 2,30,-1
 892 1440 l 2,31,32
 901 1443 901 1443 928 1445 c 2,33,-1
 932 1445 l 2,34,35
 954 1445 954 1445 973 1429.5 c 128,-1,36
 992 1414 992 1414 996 1401 c 128,-1,37
 1000 1388 1000 1388 997 1374 c 128,-1,38
 994 1360 994 1360 986 1332 c 128,-1,39
 978 1304 978 1304 966 1301 c 2,40,-1
 963 1301 l 2,41,42
 952 1301 952 1301 923 1324 c 128,-1,43
 894 1347 894 1347 856.5 1347 c 128,-1,44
 819 1347 819 1347 789 1336 c 0,45,46
 697 1300 697 1300 664 1199 c 0,47,48
 651 1161 651 1161 640.5 1117 c 128,-1,49
 630 1073 630 1073 619 1027 c 2,50,-1
 601 948 l 1,51,-1
 846 948 l 2,52,53
 861 948 861 948 856 928 c 0,0,1
EndSplineSet
Validated: 1
EndChar

StartChar: g
Encoding: 103 103 74
Width: 1103
GlyphClass: 1
Flags: W
LayerCount: 2
Fore
SplineSet
937 -179 m 2,0,1
 899 -345 899 -345 842 -386 c 0,2,3
 787 -426 787 -426 691 -459 c 2,4,-1
 392 -562 l 2,5,6
 363 -572 363 -572 336.5 -573 c 128,-1,7
 310 -574 310 -574 296 -573 c 0,8,9
 156 -568 156 -568 78 -456 c 0,10,11
 38 -398 38 -398 24 -315 c 1,12,13
 119 -281 119 -281 218 -248 c 1,14,15
 224 -299 224 -299 245 -340 c 0,16,17
 293 -435 293 -435 385 -461 c 0,18,19
 421 -471 421 -471 457 -471 c 0,20,21
 471 -471 471 -471 484 -470 c 0,22,23
 515 -467 515 -467 539 -458 c 0,24,25
 554 -452 554 -452 573 -446 c 0,26,27
 594 -439 594 -439 617 -431 c 0,28,29
 671 -407 671 -407 704 -334 c 128,-1,30
 737 -261 737 -261 742 -237 c 2,31,-1
 816 84 l 1,32,-1
 519 -14 l 2,33,34
 485 -25 485 -25 463 -25 c 2,35,-1
 422 -25 l 2,36,37
 358 -25 358 -25 307 -1 c 0,38,39
 246 28 246 28 203 92 c 0,40,41
 145 180 145 180 145 298 c 0,42,43
 145 362 145 362 162 434 c 0,44,45
 175 492 175 492 192 538 c 0,46,47
 225 626 225 626 289 700 c 0,48,49
 336 755 336 755 401 796 c 0,50,51
 435 818 435 818 465 830 c 0,52,53
 712 915 712 915 821 949 c 0,54,55
 840 955 840 955 864 955 c 0,56,57
 895 955 895 955 934 945 c 0,58,59
 964 938 964 938 1082 892 c 1,60,61
 1106 890 1106 890 1123 913 c 128,-1,62
 1140 936 1140 936 1149 936 c 1,63,64
 1162 947 1162 947 1181 936 c 0,65,66
 1193 930 1193 930 1190 919 c 2,67,-1
 1175 854 l 1,68,-1
 1012 148 l 1,69,-1
 937 -179 l 2,0,1
717 861 m 0,70,71
 629 835 629 835 605 824 c 0,72,73
 543 803 543 803 501 767 c 0,74,75
 447 721 447 721 393 604 c 0,76,77
 371 556 371 556 359 502 c 0,78,79
 342 430 342 430 341 369 c 0,80,81
 341 361 341 361 341 354 c 0,82,83
 341 263 341 263 375 196 c 0,84,85
 436 75 436 75 573 75 c 0,86,87
 627 75 627 75 698 99 c 2,88,-1
 830 143 l 1,89,-1
 976 776 l 1,90,91
 947 804 947 804 889 837 c 0,92,93
 843 862 843 862 812 869 c 0,94,95
 799 872 799 872 783 872 c 0,96,97
 755 872 755 872 717 861 c 0,70,71
EndSplineSet
Validated: 1
EndChar

StartChar: h
Encoding: 104 104 75
Width: 1211
GlyphClass: 1
Flags: W
LayerCount: 2
Fore
SplineSet
393 146 m 2,0,1
 389 130 389 130 389 117 c 0,2,3
 389 78 389 78 424 64 c 0,4,5
 470 46 470 46 464 21 c 0,6,7
 459 0 459 0 439 0 c 2,8,-1
 106 0 l 2,9,10
 85 0 85 0 90 21 c 0,11,12
 96 46 96 46 150 63.5 c 128,-1,13
 204 81 204 81 219 146 c 0,14,15
 389 882 389 882 475 1258 c 0,16,17
 479 1273 479 1273 479 1286 c 0,18,19
 479 1325 479 1325 444 1339 c 0,20,21
 403 1355 403 1355 403 1377 c 0,22,23
 403 1380 403 1380 404 1383 c 0,24,25
 409 1404 409 1404 430 1404 c 0,26,27
 487 1404 487 1404 559 1424 c 0,28,29
 620 1441 620 1441 654 1473 c 0,30,31
 662 1480 662 1480 667 1479 c 0,32,33
 679 1477 679 1477 686 1473 c 0,34,35
 698 1467 698 1467 695 1456 c 2,36,-1
 555 849 l 1,37,38
 602 866 602 866 650 883 c 0,39,40
 713 906 713 906 783 928 c 0,41,42
 888 962 888 962 976 962 c 128,-1,43
 1064 962 1064 962 1127 905 c 0,44,45
 1181 856 1181 856 1181 733 c 0,46,47
 1181 640 1181 640 1150 506 c 2,48,-1
 1067 146 l 2,49,50
 1063 130 1063 130 1063 117 c 0,51,52
 1063 78 1063 78 1098 64 c 0,53,54
 1144 46 1144 46 1138.5 23 c 128,-1,55
 1133 0 1133 0 1113 0 c 2,56,-1
 876 0 l 2,57,58
 859 0 859 0 862 13 c 2,59,-1
 976 506 l 2,60,61
 997 598 997 598 997 666 c 0,62,63
 997 762 997 762 956 814 c 0,64,65
 911 871 911 871 830 871 c 128,-1,66
 749 871 749 871 541 790 c 1,67,-1
 393 146 l 2,0,1
EndSplineSet
Validated: 1
EndChar

StartChar: i
Encoding: 105 105 76
Width: 593
GlyphClass: 1
Flags: W
LayerCount: 2
Fore
SplineSet
552 1169 m 0,0,1
 551 1169 551 1169 549 1169 c 0,2,3
 501 1169 501 1169 474 1204 c 0,4,5
 455 1229 455 1229 454 1261 c 0,6,7
 454 1274 454 1274 458 1290 c 0,8,9
 470 1340 470 1340 513.5 1376.5 c 128,-1,10
 557 1413 557 1413 608 1413 c 0,11,12
 658 1413 658 1413 686 1377 c 0,13,14
 705 1352 705 1352 706 1320 c 0,15,16
 706 1306 706 1306 702 1290 c 0,17,18
 690 1240 690 1240 646.5 1204.5 c 128,-1,19
 603 1169 603 1169 552 1169 c 0,0,1
416 146 m 0,20,21
 412 130 412 130 412 117 c 0,22,23
 412 78 412 78 447 64 c 0,24,25
 488 48 488 48 488 27 c 0,26,27
 488 24 488 24 487 21 c 0,28,29
 482 0 482 0 462 0 c 0,30,31
 129 0 129 0 129 0 c 2,32,33
 112 0 112 0 112 14 c 0,34,35
 112 17 112 17 113 21 c 0,36,37
 119 46 119 46 173 63.5 c 128,-1,38
 227 81 227 81 242 146 c 0,39,40
 389 783 389 783 389 783 c 2,41,42
 393 798 393 798 393 811 c 0,43,44
 393 850 393 850 358 864 c 0,45,46
 317 880 317 880 317 902 c 0,47,48
 317 905 317 905 318 908 c 0,49,50
 323 929 323 929 343 929 c 0,51,52
 400 929 400 929 472 949 c 0,53,54
 533 966 533 966 567 998 c 0,55,56
 574 1004 574 1004 579 1004 c 0,57,58
 580 1004 580 1004 581 1004 c 0,59,60
 593 1002 593 1002 599 998 c 0,61,62
 609 993 609 993 609 985 c 0,63,64
 609 983 609 983 608 981 c 1,65,66
 608 981 608 981 608 981 c 1,67,68
 608 977 608 977 416 146 c 0,20,21
EndSplineSet
Validated: 1
EndChar

StartChar: j
Encoding: 106 106 77
Width: 487
GlyphClass: 1
Flags: W
LayerCount: 2
Fore
SplineSet
344 12 m 0,0,1
 298 -185 298 -185 253 -281 c 128,-1,2
 208 -377 208 -377 127 -445 c 0,3,4
 12 -540 12 -540 -104 -567 c 1,5,6
 -92 -517 -92 -517 -92 -517 c 1,7,8
 18 -459 18 -459 72 -357 c 0,9,10
 93 -316 93 -316 110.5 -242.5 c 128,-1,11
 128 -169 128 -169 168 6 c 0,12,13
 260 406 260 406 348 783 c 0,14,15
 352 798 352 798 352 811 c 0,16,17
 352 850 352 850 317 864 c 0,18,19
 276 880 276 880 276 902 c 0,20,21
 276 905 276 905 277 908 c 0,22,23
 282 929 282 929 302 929 c 0,24,25
 359 929 359 929 431 949 c 0,26,27
 492 966 492 966 526 998 c 0,28,29
 533 1004 533 1004 538 1004 c 0,30,31
 539 1004 539 1004 540 1004 c 0,32,33
 552 1002 552 1002 558 998 c 0,34,35
 568 993 568 993 568 985 c 0,36,37
 568 983 568 983 567 981 c 0,38,39
 461 518 461 518 344 12 c 0,0,1
522 1169 m 0,40,41
 521 1169 521 1169 519 1169 c 0,42,43
 471 1169 471 1169 444 1204 c 0,44,45
 425 1229 425 1229 424 1261 c 0,46,47
 424 1274 424 1274 428 1290 c 0,48,49
 440 1340 440 1340 483.5 1376.5 c 128,-1,50
 527 1413 527 1413 578 1413 c 0,51,52
 628 1413 628 1413 656 1377 c 0,53,54
 675 1352 675 1352 676 1320 c 0,55,56
 676 1306 676 1306 672 1290 c 0,57,58
 660 1240 660 1240 616.5 1204.5 c 128,-1,59
 573 1169 573 1169 522 1169 c 0,40,41
EndSplineSet
Validated: 1
EndChar

StartChar: k
Encoding: 107 107 78
Width: 1163
GlyphClass: 1
Flags: W
LayerCount: 2
Fore
SplineSet
941 176 m 2,0,1
 1000 86 1000 86 1039 66 c 0,2,3
 1075 48 1075 48 1120 48 c 0,4,5
 1124 48 1124 48 1127 48 c 0,6,7
 1161 47 1161 47 1158 25 c 0,8,9
 1157 16 1157 16 1145 11 c 2,10,-1
 1081 -16 l 2,11,12
 1018 -43 1018 -43 980 -43 c 0,13,14
 879 -43 879 -43 818 47 c 2,15,-1
 500 513 l 1,16,-1
 416 146 l 2,17,18
 412 130 412 130 412 117 c 0,19,20
 412 78 412 78 447 64 c 0,21,22
 493 46 493 46 487 21 c 0,23,24
 482 0 482 0 462 0 c 2,25,-1
 129 0 l 2,26,27
 108 0 108 0 113 21 c 0,28,29
 119 46 119 46 173 63.5 c 128,-1,30
 227 81 227 81 242 146 c 0,31,32
 412 882 412 882 498 1258 c 0,33,34
 502 1273 502 1273 502 1286 c 0,35,36
 502 1325 502 1325 467 1339 c 0,37,38
 426 1355 426 1355 426 1377 c 0,39,40
 426 1380 426 1380 427 1383 c 0,41,42
 432 1404 432 1404 453 1404 c 0,43,44
 510 1404 510 1404 582 1424 c 0,45,46
 643 1441 643 1441 677 1473 c 0,47,48
 685 1480 685 1480 690 1479 c 0,49,50
 702 1477 702 1477 709 1473 c 0,51,52
 721 1467 721 1467 718 1456 c 2,53,-1
 515 574 l 1,54,55
 624 649 624 649 1054 931 c 0,56,57
 1082 950 1082 950 1106 950 c 0,58,59
 1121 950 1121 950 1134 942 c 2,60,-1
 1211 895 l 2,61,62
 1220 889 1220 889 1217 880 c 0,63,64
 1216 875 1216 875 1213 870 c 2,65,-1
 1141 762 l 1,66,-1
 1098 790 l 2,67,68
 1072 807 1072 807 1045 807 c 0,69,70
 1013 807 1013 807 979 784 c 2,71,-1
 673 581 l 1,72,-1
 941 176 l 2,0,1
EndSplineSet
Validated: 1
EndChar

StartChar: l
Encoding: 108 108 79
Width: 597
GlyphClass: 1
Flags: W
LayerCount: 2
Fore
SplineSet
416 146 m 0,0,1
 412 130 412 130 412 117 c 0,2,3
 412 78 412 78 447 64 c 0,4,5
 493 46 493 46 487 21 c 0,6,7
 482 0 482 0 462 0 c 0,8,9
 129 0 129 0 129 0 c 2,10,11
 108 0 108 0 113 21 c 0,12,13
 119 46 119 46 173 63.5 c 128,-1,14
 227 81 227 81 242 146 c 0,15,16
 412 882 412 882 498 1258 c 0,17,18
 502 1273 502 1273 502 1286 c 0,19,20
 502 1325 502 1325 467 1339 c 0,21,22
 426 1355 426 1355 426 1377 c 0,23,24
 426 1380 426 1380 427 1383 c 0,25,26
 432 1404 432 1404 453 1404 c 0,27,28
 510 1404 510 1404 582 1424 c 0,29,30
 643 1441 643 1441 677 1473 c 0,31,32
 685 1480 685 1480 690 1479 c 0,33,34
 702 1477 702 1477 709 1473 c 0,35,36
 721 1467 721 1467 718 1456 c 0,37,38
 611 992 611 992 416 146 c 0,0,1
EndSplineSet
Validated: 1
EndChar

StartChar: m
Encoding: 109 109 80
Width: 1773
GlyphClass: 1
Flags: W
LayerCount: 2
Fore
SplineSet
407 146 m 2,0,1
 403 130 403 130 403 117 c 0,2,3
 403 78 403 78 438 64 c 0,4,5
 484 46 484 46 478 21 c 0,6,7
 473 0 473 0 453 0 c 2,8,-1
 120 0 l 2,9,10
 99 0 99 0 104 21 c 0,11,12
 110 46 110 46 164 63.5 c 128,-1,13
 218 81 218 81 233 146 c 2,14,-1
 380 783 l 2,15,16
 384 798 384 798 384 811 c 0,17,18
 384 850 384 850 349 864 c 0,19,20
 308 880 308 880 308 902 c 0,21,22
 308 905 308 905 309 908 c 0,23,24
 314 929 314 929 334 929 c 0,25,26
 391 929 391 929 463 949 c 0,27,28
 524 966 524 966 558 998 c 0,29,30
 566 1005 566 1005 572 1004 c 0,31,32
 584 1002 584 1002 590 998 c 0,33,34
 602 992 602 992 599 981 c 2,35,-1
 571 856 l 1,36,37
 607 869 607 869 646 883 c 0,38,39
 709 906 709 906 779 928 c 0,40,41
 884 962 884 962 972 962 c 128,-1,42
 1060 962 1060 962 1123 905 c 0,43,44
 1142 888 1142 888 1154 861 c 1,45,46
 1184 872 1184 872 1214 883 c 0,47,48
 1277 906 1277 906 1347 928 c 0,49,50
 1452 962 1452 962 1540 962 c 128,-1,51
 1628 962 1628 962 1691 905 c 0,52,53
 1745 856 1745 856 1745 733 c 0,54,55
 1745 640 1745 640 1714 506 c 2,56,-1
 1631 146 l 2,57,58
 1627 130 1627 130 1627 117 c 0,59,60
 1627 78 1627 78 1662 64 c 0,61,62
 1708 46 1708 46 1702.5 23 c 128,-1,63
 1697 0 1697 0 1677 0 c 2,64,-1
 1440 0 l 2,65,66
 1423 0 1423 0 1426 13 c 2,67,-1
 1540 506 l 2,68,69
 1561 598 1561 598 1561 666 c 0,70,71
 1561 762 1561 762 1520 814 c 0,72,73
 1475 871 1475 871 1394 871 c 0,74,75
 1326 871 1326 871 1169 814 c 1,76,77
 1177 778 1177 778 1177 732 c 0,78,79
 1177 640 1177 640 1146 506 c 2,80,-1
 1063 146 l 2,81,82
 1059 130 1059 130 1059 117 c 0,83,84
 1059 78 1059 78 1094 64 c 0,85,86
 1140 46 1140 46 1134 21 c 0,87,88
 1129 0 1129 0 1109 0 c 2,89,-1
 776 0 l 2,90,91
 755 0 755 0 760 21 c 0,92,93
 766 46 766 46 820 63.5 c 128,-1,94
 874 81 874 81 889 146 c 2,95,-1
 972 506 l 2,96,97
 993 598 993 598 993 666 c 0,98,99
 993 762 993 762 952 814 c 0,100,101
 907 871 907 871 826 871 c 0,102,103
 749 871 749 871 557 798 c 1,104,-1
 407 146 l 2,0,1
EndSplineSet
Validated: 1
EndChar

StartChar: n
Encoding: 110 110 81
Width: 1211
GlyphClass: 1
Flags: W
LayerCount: 2
Fore
SplineSet
394 146 m 2,0,1
 390 130 390 130 390 117 c 0,2,3
 390 78 390 78 425 64 c 0,4,5
 471 46 471 46 465 21 c 0,6,7
 460 0 460 0 440 0 c 2,8,-1
 107 0 l 2,9,10
 86 0 86 0 91 21 c 0,11,12
 97 46 97 46 151 63.5 c 128,-1,13
 205 81 205 81 220 146 c 2,14,-1
 367 783 l 2,15,16
 371 798 371 798 371 811 c 0,17,18
 371 850 371 850 336 864 c 0,19,20
 295 880 295 880 295 902 c 0,21,22
 295 905 295 905 296 908 c 0,23,24
 301 929 301 929 321 929 c 0,25,26
 378 929 378 929 450 949 c 0,27,28
 511 966 511 966 545 998 c 0,29,30
 553 1005 553 1005 559 1004 c 0,31,32
 571 1002 571 1002 577 998 c 0,33,34
 589 992 589 992 586 981 c 2,35,-1
 556 849 l 1,36,37
 604 866 604 866 652 883 c 0,38,39
 715 906 715 906 784 928 c 0,40,41
 889 962 889 962 977 962 c 128,-1,42
 1065 962 1065 962 1128 905 c 0,43,44
 1182 856 1182 856 1182 733 c 0,45,46
 1182 640 1182 640 1151 506 c 2,47,-1
 1068 146 l 2,48,49
 1064 130 1064 130 1064 117 c 0,50,51
 1064 78 1064 78 1099 64 c 0,52,53
 1145 46 1145 46 1139.5 23 c 128,-1,54
 1134 0 1134 0 1114 0 c 2,55,-1
 877 0 l 2,56,57
 860 0 860 0 863 13 c 2,58,-1
 977 506 l 2,59,60
 998 598 998 598 998 666 c 0,61,62
 998 762 998 762 957 814 c 0,63,64
 912 871 912 871 831 871 c 128,-1,65
 750 871 750 871 542 790 c 1,66,-1
 394 146 l 2,0,1
EndSplineSet
Validated: 1
EndChar

StartChar: o
Encoding: 111 111 82
Width: 1107
GlyphClass: 1
Flags: W
LayerCount: 2
Fore
SplineSet
1151 459 m 1,0,1
 1105 259 1105 259 930.5 120 c 128,-1,2
 756 -19 756 -19 547 -25 c 1,3,-1
 531 -25 l 2,4,5
 339 -25 339 -25 231 119 c 0,6,7
 155 220 155 220 155 348 c 0,8,9
 155 403 155 403 169 462 c 1,10,-1
 169 465 l 1,11,12
 221 684 221 684 419 833 c 0,13,14
 442 851 442 851 482.5 864 c 128,-1,15
 523 877 523 877 587 898 c 128,-1,16
 651 919 651 919 706.5 937 c 128,-1,17
 762 955 762 955 795 956 c 2,18,-1
 798 956 l 1,19,20
 991 948 991 948 1093 806 c 0,21,22
 1165 706 1165 706 1165 578 c 0,23,24
 1165 524 1165 524 1152 465 c 2,25,-1
 1151 459 l 1,0,1
749 889 m 2,26,27
 632 889 632 889 518.5 772.5 c 128,-1,28
 405 656 405 656 365 481 c 0,29,30
 349 409 349 409 349 345 c 0,31,32
 349 342 349 342 349 340 c 0,33,34
 349 252 349 252 382 178 c 0,35,36
 440 50 440 50 564 43 c 1,37,-1
 578 43 l 2,38,39
 694 43 694 43 806.5 159 c 128,-1,40
 919 275 919 275 960 450 c 0,41,42
 976 521 976 521 976 585 c 0,43,44
 976 678 976 678 942 754 c 0,45,46
 884 882 884 882 761 889 c 1,47,-1
 749 889 l 2,26,27
EndSplineSet
Validated: 1
EndChar

StartChar: p
Encoding: 112 112 83
Width: 1197
GlyphClass: 1
Flags: W
LayerCount: 2
Fore
SplineSet
280 -441 m 2,0,1
 276 -457 276 -457 276 -470 c 0,2,3
 276 -510 276 -510 311 -524 c 0,4,5
 357 -542 357 -542 351 -566 c 0,6,7
 346 -587 346 -587 326 -587 c 2,8,-1
 -7 -587 l 2,9,10
 -28 -587 -28 -587 -23 -566 c 0,11,12
 -17 -541 -17 -541 37 -523.5 c 128,-1,13
 91 -506 91 -506 106 -441 c 0,14,15
 276 296 276 296 389 783 c 0,16,17
 393 798 393 798 393 811 c 0,18,19
 393 850 393 850 358 864 c 0,20,21
 317 880 317 880 317 902 c 0,22,23
 317 905 317 905 318 908 c 0,24,25
 323 929 323 929 343 929 c 0,26,27
 400 929 400 929 472 949 c 0,28,29
 533 966 533 966 567 998 c 0,30,31
 575 1005 575 1005 581 1004 c 0,32,33
 593 1002 593 1002 599 998 c 0,34,35
 611 992 611 992 608 981 c 2,36,-1
 577 843 l 1,37,-1
 883 944 l 2,38,39
 917 955 917 955 938 955 c 2,40,-1
 979 955 l 2,41,42
 1043 955 1043 955 1095 931 c 0,43,44
 1156 902 1156 902 1198 838 c 0,45,46
 1256 750 1256 750 1256 630 c 0,47,48
 1256 567 1256 567 1240 496 c 0,49,50
 1228 438 1228 438 1210 392 c 0,51,52
 1177 304 1177 304 1113 230 c 0,53,54
 1066 175 1066 175 1001 134 c 0,55,56
 967 112 967 112 937 100 c 0,57,58
 690 15 690 15 581 -19 c 0,59,60
 562 -25 562 -25 537 -25 c 0,61,62
 506 -25 506 -25 468 -15 c 0,63,64
 447 -10 447 -10 385 13 c 1,65,-1
 280 -441 l 2,0,1
685 69 m 0,66,67
 773 95 773 95 796 106 c 0,68,69
 858 127 858 127 901 163 c 0,70,71
 955 209 955 209 1008 326 c 0,72,73
 1030 374 1030 374 1043 428 c 0,74,75
 1060 500 1060 500 1061 561 c 0,76,77
 1061 568 1061 568 1061 575 c 0,78,79
 1061 666 1061 666 1026 734 c 0,80,81
 965 855 965 855 828 855 c 0,82,83
 774 855 774 855 704 831 c 2,84,-1
 563 784 l 1,85,-1
 419 161 l 1,86,87
 447 130 447 130 512 93 c 0,88,89
 558 68 558 68 590 61 c 0,90,91
 603 58 603 58 618 58 c 0,92,93
 647 58 647 58 685 69 c 0,66,67
EndSplineSet
Validated: 1
EndChar

StartChar: q
Encoding: 113 113 84
Width: 1173
GlyphClass: 1
Flags: W
LayerCount: 2
Fore
SplineSet
891 -440 m 2,0,1
 887 -456 887 -456 887 -469 c 0,2,3
 887 -509 887 -509 922 -523 c 0,4,5
 963 -539 963 -539 963 -561 c 0,6,7
 963 -564 963 -564 962 -567 c 0,8,9
 957 -587 957 -587 936 -587 c 2,10,-1
 597 -587 l 2,11,12
 576 -587 576 -587 581 -567 c 0,13,14
 587 -541 587 -541 641 -523 c 128,-1,15
 695 -505 695 -505 710 -440 c 2,16,-1
 831 84 l 1,17,-1
 534 -14 l 2,18,19
 500 -25 500 -25 478 -25 c 2,20,-1
 437 -25 l 2,21,22
 373 -25 373 -25 322 -1 c 0,23,24
 261 28 261 28 218 92 c 0,25,26
 160 180 160 180 160 298 c 0,27,28
 160 362 160 362 177 434 c 0,29,30
 190 492 190 492 207 538 c 0,31,32
 240 626 240 626 304 700 c 0,33,34
 351 755 351 755 416 796 c 0,35,36
 450 818 450 818 480 830 c 0,37,38
 727 915 727 915 836 949 c 0,39,40
 855 955 855 955 879 955 c 0,41,42
 910 955 910 955 949 945 c 0,43,44
 979 938 979 938 1092 893 c 0,45,46
 1098 892 1098 892 1103 892 c 0,47,48
 1125 892 1125 892 1138 913 c 0,49,50
 1152 936 1152 936 1164 936 c 2,51,-1
 1196 936 l 2,52,53
 1209 936 1209 936 1205 919 c 2,54,-1
 1190 854 l 1,55,-1
 1027 148 l 1,56,-1
 891 -440 l 2,0,1
732 861 m 0,57,58
 644 835 644 835 620 824 c 0,59,60
 558 803 558 803 516 767 c 0,61,62
 462 721 462 721 408 604 c 0,63,64
 386 556 386 556 374 502 c 0,65,66
 357 430 357 430 356 369 c 0,67,68
 356 361 356 361 356 354 c 0,69,70
 356 263 356 263 390 196 c 0,71,72
 451 75 451 75 588 75 c 0,73,74
 642 75 642 75 713 99 c 2,75,-1
 845 143 l 1,76,-1
 991 776 l 1,77,78
 962 804 962 804 904 837 c 0,79,80
 858 862 858 862 827 869 c 0,81,82
 814 872 814 872 798 872 c 0,83,84
 770 872 770 872 732 861 c 0,57,58
EndSplineSet
Validated: 1
EndChar

StartChar: r
Encoding: 114 114 85
Width: 815
GlyphClass: 1
Flags: W
LayerCount: 2
Fore
SplineSet
416 146 m 2,0,1
 412 130 412 130 412 117 c 0,2,3
 412 78 412 78 447 64 c 0,4,5
 493 46 493 46 487 21 c 0,6,7
 482 0 482 0 462 0 c 2,8,-1
 129 0 l 2,9,10
 108 0 108 0 113 21 c 0,11,12
 119 46 119 46 173 63.5 c 128,-1,13
 227 81 227 81 242 146 c 2,14,-1
 389 783 l 2,15,16
 393 798 393 798 393 811 c 0,17,18
 393 850 393 850 358 864 c 0,19,20
 317 880 317 880 317 902 c 0,21,22
 317 905 317 905 318 908 c 0,23,24
 323 929 323 929 343 929 c 0,25,26
 400 929 400 929 472 949 c 0,27,28
 533 966 533 966 567 998 c 0,29,30
 575 1005 575 1005 581 1004 c 0,31,32
 593 1002 593 1002 599 998 c 0,33,34
 611 992 611 992 608 981 c 2,35,-1
 580 859 l 1,36,-1
 584 860 l 1,37,-1
 735 913 l 2,38,39
 833 947 833 947 865 956 c 0,40,41
 879 960 879 960 897 960 c 0,42,43
 934 960 934 960 986 940 c 1,44,-1
 906 689 l 1,45,-1
 860 689 l 1,46,47
 855 835 855 835 744 835 c 0,48,49
 733 835 733 835 722 834 c 0,50,51
 643 824 643 824 595 756 c 0,52,53
 549 691 549 691 526 623 c 1,54,-1
 416 146 l 2,0,1
EndSplineSet
Validated: 1
EndChar

StartChar: s
Encoding: 115 115 86
Width: 884
GlyphClass: 1
Flags: W
LayerCount: 2
Fore
SplineSet
888 679 m 2,0,-1
 885 679 l 2,1,2
 873 680 873 680 868 703 c 0,3,4
 849 778 849 778 792 828.5 c 128,-1,5
 735 879 735 879 656 882 c 2,6,-1
 652 882 l 2,7,8
 590 882 590 882 522 850.5 c 128,-1,9
 454 819 454 819 425 753 c 0,10,11
 415 731 415 731 411 713 c 0,12,13
 408 700 408 700 408 688 c 0,14,15
 408 642 408 642 452 618 c 0,16,17
 508 586 508 586 614 561.5 c 128,-1,18
 720 537 720 537 814 488 c 0,19,20
 888 450 888 450 888 346 c 0,21,22
 888 317 888 317 882 283 c 2,23,-1
 880 273 l 2,24,25
 863 199 863 199 785.5 122 c 128,-1,26
 708 45 708 45 605.5 12.5 c 128,-1,27
 503 -20 503 -20 414 -23 c 2,28,-1
 387 -23 l 2,29,30
 264 -23 264 -23 159 9 c 1,31,-1
 129 229 l 1,32,-1
 136 249 l 2,33,34
 140 264 140 264 158 264 c 2,35,-1
 160 264 l 2,36,37
 170 262 170 262 175 240 c 0,38,39
 198 141 198 141 255 99.5 c 128,-1,40
 312 58 312 58 414 55 c 2,41,-1
 426 55 l 2,42,43
 497 55 497 55 593.5 89.5 c 128,-1,44
 690 124 690 124 715 218 c 1,45,-1
 717 224 l 2,46,47
 722 246 722 246 722 265 c 0,48,49
 722 338 722 338 644 362 c 0,50,51
 546 392 546 392 463 416 c 0,52,53
 380 442 380 442 307 500 c 0,54,55
 253 543 253 543 253 616 c 0,56,57
 253 642 253 642 260 672 c 2,58,-1
 261 677 l 1,59,60
 298 832 298 832 426.5 895.5 c 128,-1,61
 555 959 555 959 687 959 c 0,62,63
 699 959 699 959 711 958 c 0,64,65
 856 950 856 950 969 869 c 1,66,-1
 907 694 l 2,67,68
 902 679 902 679 888 679 c 2,0,-1
EndSplineSet
Validated: 1
EndChar

StartChar: t
Encoding: 116 116 87
Width: 648
GlyphClass: 1
Flags: W
LayerCount: 2
Fore
SplineSet
263 840 m 2,0,1
 247 840 247 840 247 854 c 0,2,3
 247 857 247 857 248 860 c 2,4,-1
 248 862 l 1,5,6
 252 878 252 878 273 887 c 0,7,8
 295 896 295 896 339 917 c 128,-1,9
 383 938 383 938 392 941.5 c 128,-1,10
 401 945 401 945 406 945 c 1,11,-1
 446 1116 l 2,12,13
 458 1166 458 1166 482.5 1185.5 c 128,-1,14
 507 1205 507 1205 563 1229 c 128,-1,15
 619 1253 619 1253 635 1253 c 0,16,17
 653 1253 653 1253 653 1237 c 0,18,19
 653 1233 653 1233 652 1227 c 2,20,-1
 588 948 l 1,21,-1
 828 953 l 2,22,23
 840 953 840 953 840 941 c 0,24,25
 840 937 840 937 838 933 c 0,26,27
 834 913 834 913 825 893 c 0,28,29
 804 846 804 846 769 846 c 2,30,-1
 565 847 l 1,31,-1
 420 220 l 2,32,33
 414 194 414 194 414 172 c 0,34,35
 414 116 414 116 452 84 c 0,36,37
 505 39 505 39 549 33 c 1,38,-1
 541 0 l 1,39,40
 392 0 392 0 296 28 c 0,41,42
 232 47 232 47 232 140 c 0,43,44
 232 141 232 141 232 143 c 0,45,46
 232 188 232 188 246 250 c 2,47,-1
 383 845 l 1,48,-1
 263 840 l 2,0,1
EndSplineSet
Validated: 1
EndChar

StartChar: u
Encoding: 117 117 88
Width: 1217
GlyphClass: 1
Flags: W
LayerCount: 2
Fore
SplineSet
484 117 m 0,0,1
 529 60 529 60 611 60 c 128,-1,2
 693 60 693 60 898 140 c 1,3,-1
 1047 783 l 2,4,5
 1051 798 1051 798 1051 811 c 0,6,7
 1051 850 1051 850 1016 864 c 0,8,9
 975 880 975 880 975 902 c 0,10,11
 975 905 975 905 976 908 c 0,12,13
 981 929 981 929 1001 929 c 0,14,15
 1058 930 1058 930 1125 948 c 0,16,17
 1188 966 1188 966 1225 998 c 0,18,19
 1239 1010 1239 1010 1254 1001 c 128,-1,20
 1269 992 1269 992 1266 981 c 2,21,22
 1266 981 1266 981 1074 146 c 0,23,24
 1070 130 1070 130 1070 117 c 0,25,26
 1070 78 1070 78 1105 64 c 0,27,28
 1151 46 1151 46 1145.5 23 c 128,-1,29
 1140 0 1140 0 1119 0 c 2,30,-1
 883 0 l 2,31,32
 866 0 866 0 869 13 c 2,33,-1
 885 81 l 1,34,35
 600 -30 600 -30 458 -30 c 0,36,37
 375 -30 375 -30 313 26 c 0,38,39
 254 80 254 80 254 208 c 0,40,41
 254 298 254 298 283 425 c 2,42,-1
 366 783 l 2,43,44
 370 798 370 798 370 811 c 0,45,46
 370 850 370 850 335 864 c 0,47,48
 294 880 294 880 294 902 c 0,49,50
 294 905 294 905 295 908 c 0,51,52
 300 929 300 929 320 929 c 0,53,54
 377 930 377 930 444 948 c 0,55,56
 507 966 507 966 544 998 c 0,57,58
 557 1009 557 1009 572 1000 c 0,59,60
 588 991 588 991 585 981 c 2,61,62
 585 981 585 981 551.5 834.5 c 128,-1,63
 518 688 518 688 469 482 c 0,64,65
 454 418 454 418 454 415 c 0,66,67
 436 338 436 338 436 277 c 0,68,69
 436 177 436 177 484 117 c 0,0,1
EndSplineSet
Validated: 1
EndChar

StartChar: v
Encoding: 118 118 89
Width: 1036
GlyphClass: 1
Flags: W
LayerCount: 2
Fore
SplineSet
242 914 m 0,0,1
 245 929 245 929 257 929 c 2,2,-1
 585 929 l 2,3,4
 613 929 613 929 608 906 c 0,5,6
 606 897 606 897 579 877 c 0,7,8
 546 853 546 853 541 827 c 0,9,10
 538 816 538 816 541 805 c 2,11,-1
 652 182 l 1,12,-1
 1013 717 l 2,13,14
 1027 737 1027 737 1031 757 c 0,15,16
 1033 767 1033 767 1033 777 c 0,17,18
 1033 802 1033 802 1019 826 c 2,19,-1
 995 866 l 1,20,-1
 1101 937 l 2,21,22
 1116 947 1116 947 1127 934 c 2,23,-1
 1169 877 l 2,24,25
 1182 860 1182 860 1175 828.5 c 128,-1,26
 1168 797 1168 797 1090 688 c 2,27,-1
 624 0 l 2,28,29
 612 -19 612 -19 599 -19 c 2,30,-1
 525 -19 l 2,31,32
 506 -19 506 -19 502 0 c 2,33,-1
 352 800 l 2,34,35
 341 860 341 860 288 877 c 0,36,37
 237 894 237 894 242 914 c 0,0,1
EndSplineSet
Validated: 1
EndChar

StartChar: w
Encoding: 119 119 90
Width: 1647
GlyphClass: 1
Flags: W
LayerCount: 2
Fore
SplineSet
1624 717 m 2,0,1
 1638 738 1638 738 1644 765.5 c 128,-1,2
 1650 793 1650 793 1630 826 c 2,3,-1
 1606 865 l 1,4,-1
 1711 937 l 2,5,6
 1717 942 1717 942 1724 941 c 0,7,8
 1732 940 1732 940 1738 934 c 2,9,-1
 1780 877 l 2,10,11
 1793 859 1793 859 1788.5 838.5 c 128,-1,12
 1784 818 1784 818 1765.5 785 c 128,-1,13
 1747 752 1747 752 1701 688 c 2,14,-1
 1235 0 l 2,15,16
 1228 -10 1228 -10 1222 -14.5 c 128,-1,17
 1216 -19 1216 -19 1210 -19 c 2,18,-1
 1126 -19 l 2,19,20
 1119 -19 1119 -19 1116 -16 c 0,21,22
 1113 -12 1113 -12 1112 0 c 0,23,24
 1110 12 1110 12 1109 21 c 2,25,-1
 1006 565 l 1,26,-1
 624 0 l 2,27,28
 617 -10 617 -10 611 -14.5 c 128,-1,29
 605 -19 605 -19 599 -19 c 2,30,-1
 515 -19 l 2,31,32
 506 -19 506 -19 504 -16 c 0,33,34
 502 -12 502 -12 500 0 c 0,35,36
 499 12 499 12 499 21 c 2,37,-1
 352 800 l 2,38,39
 344 838 344 838 321.5 855.5 c 128,-1,40
 299 873 299 873 280.5 882 c 128,-1,41
 262 891 262 891 254 897.5 c 128,-1,42
 246 904 246 904 244.5 910.5 c 128,-1,43
 243 917 243 917 243 920 c 0,44,45
 244 923 244 923 246 926 c 0,46,47
 250 931 250 931 258 931 c 2,48,-1
 586 931 l 2,49,50
 593 931 593 931 601 926 c 0,51,52
 607 919 607 919 608 914.5 c 128,-1,53
 609 910 609 910 608 904.5 c 128,-1,54
 607 899 607 899 580 879 c 128,-1,55
 553 859 553 859 548 849.5 c 128,-1,56
 543 840 543 840 540.5 829 c 128,-1,57
 538 818 538 818 541 805 c 2,58,-1
 655 166 l 1,59,-1
 986 676 l 1,60,-1
 963 800 l 2,61,62
 955 838 955 838 932.5 855.5 c 128,-1,63
 910 873 910 873 891.5 882 c 128,-1,64
 873 891 873 891 863.5 898.5 c 128,-1,65
 854 906 854 906 854 911.5 c 128,-1,66
 854 917 854 917 854 920 c 0,67,68
 855 923 855 923 857 926 c 0,69,70
 861 931 861 931 869 931 c 2,71,-1
 1197 931 l 2,72,73
 1204 931 1204 931 1212 926 c 0,74,75
 1218 919 1218 919 1219 914.5 c 128,-1,76
 1220 910 1220 910 1219 904.5 c 128,-1,77
 1218 899 1218 899 1191 879 c 128,-1,78
 1164 859 1164 859 1159 849.5 c 128,-1,79
 1154 840 1154 840 1151.5 829 c 128,-1,80
 1149 818 1149 818 1152 805 c 2,81,-1
 1266 166 l 1,82,-1
 1624 717 l 2,0,1
EndSplineSet
Validated: 1
EndChar

StartChar: x
Encoding: 120 120 91
Width: 1098
GlyphClass: 1
Flags: W
LayerCount: 2
Fore
SplineSet
185 97 m 2,0,-1
 552 447 l 1,1,-1
 376 832 l 2,2,3
 366 856 366 856 332 876 c 0,4,5
 315 886 315 886 299 892.5 c 128,-1,6
 283 899 283 899 273 906 c 0,7,8
 253 919 253 919 254 924 c 256,9,10
 255 929 255 929 270 929 c 2,11,-1
 592 929 l 2,12,13
 607 929 607 929 614 915 c 0,14,15
 616 911 616 911 615 906 c 0,16,17
 614 900 614 900 604 895 c 0,18,19
 587 886 587 886 581 868 c 0,20,21
 578 853 578 853 586 836 c 2,22,-1
 700 587 l 1,23,-1
 918 796 l 2,24,25
 1035 907 1035 907 1064 929 c 0,26,27
 1075 937 1075 937 1091 937 c 0,28,29
 1115 937 1115 937 1149 917 c 2,30,-1
 1205 883 l 2,31,32
 1213 878 1213 878 1211 869 c 0,33,34
 1210 864 1210 864 1205 858 c 2,35,-1
 1130 754 l 1,36,37
 1098 774 1098 774 1070 789 c 0,38,39
 1063 793 1063 793 1055 793 c 0,40,41
 1031 793 1031 793 995 758 c 2,42,-1
 735 510 l 1,43,-1
 924 97 l 2,44,45
 935 68 935 68 973 51 c 0,46,47
 986 44 986 44 1000 37.5 c 128,-1,48
 1014 31 1014 31 1027 23 c 0,49,50
 1047 10 1047 10 1046 5 c 256,51,52
 1045 0 1045 0 1030 0 c 2,53,-1
 708 0 l 2,54,55
 693 0 693 0 686 13 c 0,56,57
 684 18 684 18 685 22 c 0,58,59
 686 28 686 28 697 34 c 0,60,61
 713 42 713 42 719 60 c 1,62,-1
 719 62 l 2,63,64
 722 76 722 76 714 93 c 2,65,-1
 588 370 l 1,66,-1
 301 97 l 2,67,68
 276 71 276 71 273 55 c 2,69,-1
 272 52 l 2,70,71
 269 39 269 39 272 32 c 0,72,73
 272 29 272 29 272 26 c 0,74,75
 271 20 271 20 264 14 c 0,76,77
 252 0 252 0 242 0 c 2,78,-1
 34 0 l 2,79,80
 24 0 24 0 25 5 c 0,81,82
 26 9 26 9 31 14 c 0,83,84
 48 30 48 30 93.5 41 c 128,-1,85
 139 52 139 52 185 97 c 2,0,-1
EndSplineSet
Validated: 1
EndChar

StartChar: y
Encoding: 121 121 92
Width: 1036
GlyphClass: 1
Flags: W
LayerCount: 2
Fore
SplineSet
510 -38 m 1,0,1
 510 -38 510 -38 352 800 c 0,2,3
 345 836 345 836 319 857 c 0,4,5
 294 876 294 876 269.5 887 c 128,-1,6
 245 898 245 898 243.5 908 c 128,-1,7
 242 918 242 918 243.5 924.5 c 128,-1,8
 245 931 245 931 258 931 c 2,9,-1
 586 931 l 2,10,11
 605 931 605 931 607.5 920 c 128,-1,12
 610 909 610 909 609 905 c 0,13,14
 606 893 606 893 584.5 883 c 128,-1,15
 563 873 563 873 553 856.5 c 128,-1,16
 543 840 543 840 540 829 c 0,17,18
 538 820 538 820 541 805 c 2,19,-1
 649 181 l 1,20,-1
 1013 717 l 2,21,22
 1027 737 1027 737 1033 766 c 0,23,24
 1039 793 1039 793 1019 826 c 2,25,-1
 995 865 l 1,26,-1
 1101 937 l 2,27,28
 1109 943 1109 943 1114 942 c 0,29,30
 1120 942 1120 942 1127 934 c 2,31,-1
 1169 877 l 2,32,33
 1182 860 1182 860 1177 838 c 0,34,35
 1168 797 1168 797 1090 688 c 2,36,-1
 340 -414 l 2,37,38
 297 -477 297 -477 261 -523 c 0,39,40
 227 -566 227 -566 190 -566 c 2,41,-1
 107 -566 l 2,42,43
 89 -563 89 -563 93 -544 c 2,44,-1
 120 -429 l 1,45,-1
 165 -429 l 2,46,47
 232 -429 232 -429 274 -370 c 2,48,-1
 510 -38 l 1,0,1
EndSplineSet
Validated: 1
EndChar

StartChar: z
Encoding: 122 122 93
Width: 1019
GlyphClass: 1
Flags: W
LayerCount: 2
Fore
SplineSet
1135 880 m 2,0,-1
 312 79 l 1,1,-1
 746 79 l 2,2,3
 797 81 797 81 840 114 c 128,-1,4
 883 147 883 147 940 207 c 0,5,6
 973 241 973 241 980 241 c 0,7,8
 998 241 998 241 993 223 c 2,9,-1
 957 65 l 2,10,11
 946 16 946 16 931 8 c 128,-1,12
 916 0 916 0 845 0 c 2,13,-1
 160 0 l 2,14,15
 88 1 88 1 65 8 c 0,16,17
 54 11 54 11 56 21 c 0,18,19
 59 32 59 32 79 51 c 2,20,-1
 898 861 l 1,21,-1
 546 861 l 2,22,23
 494 861 494 861 454.5 828 c 128,-1,24
 415 795 415 795 359 736 c 0,25,26
 326 703 326 703 319 703 c 0,27,28
 300 703 300 703 304 720 c 2,29,-1
 341 879 l 2,30,31
 352 926 352 926 370 937 c 0,32,33
 384 945 384 945 430 945 c 0,34,35
 439 946 439 946 454 945 c 2,36,-1
 1076 945 l 2,37,38
 1159 945 1159 945 1159 917 c 0,39,40
 1159 915 1159 915 1158 913 c 0,41,42
 1154 899 1154 899 1135 880 c 2,0,-1
EndSplineSet
Validated: 1
EndChar

StartChar: braceleft
Encoding: 123 123 94
Width: 1024
GlyphClass: 1
Flags: W
LayerCount: 2
Fore
SplineSet
300 613 m 0,0,1
 284 614 284 614 280 624 c 0,2,3
 276 631 276 631 278 643 c 0,4,5
 279 647 279 647 282 652 c 0,6,7
 289 670 289 670 313 673 c 0,8,9
 468 686 468 686 538 746 c 0,10,11
 579 782 579 782 604 843 c 128,-1,12
 629 904 629 904 642 961 c 2,13,-1
 691 1173 l 2,14,15
 708 1245 708 1245 740 1321.5 c 128,-1,16
 772 1398 772 1398 829 1443 c 0,17,18
 920 1516 920 1516 1124 1516 c 0,19,20
 1144 1516 1144 1516 1150 1507 c 0,21,22
 1157 1492 1157 1492 1154 1482 c 0,23,24
 1150 1466 1150 1466 1120 1466 c 0,25,26
 987 1464 987 1464 928 1411 c 0,27,28
 889 1378 889 1378 866.5 1317.5 c 128,-1,29
 844 1257 844 1257 832 1204 c 2,30,-1
 799 1061 l 2,31,32
 781 984 781 984 750 895.5 c 128,-1,33
 719 807 719 807 671 755 c 0,34,35
 595 673 595 673 434 642 c 1,36,37
 580 611 580 611 619 529 c 0,38,39
 636 492 636 492 636 438 c 0,40,41
 636 415 636 415 629.5 358 c 128,-1,42
 623 301 623 301 605 223 c 2,43,-1
 572 80 l 2,44,45
 555 5 555 5 555 -47 c 0,46,47
 555 -100 555 -100 573 -126 c 0,48,49
 609 -178 609 -178 740 -180 c 0,50,51
 756 -180 756 -180 759 -195 c 0,52,53
 760 -201 760 -201 758 -207 c 0,54,55
 756 -215 756 -215 749 -223 c 0,56,57
 740 -231 740 -231 721 -231 c 0,58,59
 519 -231 519 -231 460 -158 c 0,60,61
 426 -116 426 -116 426 -48 c 0,62,63
 426 -42 426 -42 427.5 -1.5 c 128,-1,64
 429 39 429 39 446 112 c 2,65,-1
 495 323 l 2,66,67
 508 380 508 380 509.5 414 c 128,-1,68
 511 448 511 448 511 455 c 0,69,70
 511 507 511 507 490 541 c 0,71,72
 463 577 463 577 408.5 593 c 128,-1,73
 354 609 354 609 300 613 c 0,0,1
EndSplineSet
Validated: 1
EndChar

StartChar: bar
Encoding: 124 124 95
Width: 1024
GlyphClass: 1
Flags: W
LayerCount: 2
Fore
SplineSet
794 1490 m 1,0,-1
 935 1490 l 1,1,-1
 539 -227 l 1,2,-1
 398 -227 l 1,3,-1
 794 1490 l 1,0,-1
EndSplineSet
Validated: 1
EndChar

StartChar: braceright
Encoding: 125 125 96
Width: 1024
GlyphClass: 1
Flags: W
LayerCount: 2
Fore
SplineSet
939 672 m 0,0,1
 955 671 955 671 959 661 c 0,2,3
 963 654 963 654 960 642 c 0,4,5
 959 638 959 638 957 633 c 0,6,7
 950 615 950 615 925 612 c 0,8,9
 770 599 770 599 700 539 c 0,10,11
 658 503 658 503 634 442 c 128,-1,12
 610 381 610 381 597 324 c 2,13,-1
 548 112 l 2,14,15
 531 40 531 40 499.5 -36 c 128,-1,16
 468 -112 468 -112 410 -158 c 0,17,18
 319 -231 319 -231 115 -231 c 0,19,20
 95 -231 95 -231 89 -222 c 0,21,22
 82 -207 82 -207 85 -197 c 0,23,24
 89 -181 89 -181 118 -181 c 0,25,26
 251 -179 251 -179 311 -126 c 0,27,28
 351 -92 351 -92 372.5 -32 c 128,-1,29
 394 28 394 28 407 81 c 2,30,-1
 440 224 l 2,31,32
 458 302 458 302 488 390 c 128,-1,33
 518 478 518 478 567 530 c 0,34,35
 643 612 643 612 804 643 c 1,36,37
 658 674 658 674 620 756 c 0,38,39
 602 793 602 793 602 849 c 0,40,41
 602 871 602 871 608.5 927.5 c 128,-1,42
 615 984 615 984 633 1062 c 2,43,-1
 666 1205 l 2,44,45
 684 1281 684 1281 684 1333 c 128,-1,46
 684 1385 684 1385 666 1411 c 0,47,48
 630 1463 630 1463 498 1465 c 0,49,50
 482 1465 482 1465 480 1480 c 0,51,52
 479 1486 479 1486 480 1492 c 0,53,54
 482 1500 482 1500 490 1508 c 0,55,56
 499 1516 499 1516 518 1516 c 0,57,58
 720 1516 720 1516 779 1443 c 0,59,60
 814 1402 814 1402 814 1335 c 0,61,62
 814 1329 814 1329 812 1287.5 c 128,-1,63
 810 1246 810 1246 793 1173 c 2,64,-1
 744 962 l 2,65,66
 731 906 731 906 729.5 871.5 c 128,-1,67
 728 837 728 837 728 831 c 0,68,69
 728 778 728 778 749 744 c 0,70,71
 776 708 776 708 830 692 c 128,-1,72
 884 676 884 676 939 672 c 0,0,1
EndSplineSet
Validated: 1
EndChar

StartChar: asciitilde
Encoding: 126 126 97
Width: 1024
GlyphClass: 1
Flags: W
LayerCount: 2
Fore
SplineSet
1131 729 m 0,0,1
 1044 616 1044 616 977 565 c 0,2,3
 904 510 904 510 840 510 c 0,4,5
 727 510 727 510 611 594 c 0,6,7
 547 640 547 640 480 640 c 0,8,9
 428 640 428 640 374 611 c 0,10,11
 360 603 360 603 340.5 592.5 c 128,-1,12
 321 582 321 582 297 564 c 0,13,14
 254 531 254 531 219 491 c 0,15,16
 210 481 210 481 200 481 c 0,17,18
 192 481 192 481 183 487 c 0,19,20
 172 494 172 494 175 506 c 0,21,22
 177 516 177 516 188 529 c 0,23,24
 252 601 252 601 318 677 c 128,-1,25
 384 753 384 753 486 753 c 0,26,27
 612 753 612 753 721 666 c 0,28,29
 779 619 779 619 847 619 c 0,30,31
 906 619 906 619 972 654 c 0,32,33
 1034 686 1034 686 1093 761 c 0,34,35
 1103 773 1103 773 1116 773 c 0,36,37
 1119 773 1119 773 1122 772 c 0,38,39
 1140 769 1140 769 1139 751 c 0,40,41
 1139 748 1139 748 1139 745 c 0,42,43
 1137 738 1137 738 1131 729 c 0,0,1
EndSplineSet
Validated: 1
EndChar

StartChar: exclamdown
Encoding: 161 161 99
Width: 550
GlyphClass: 1
Flags: W
LayerCount: 2
Fore
SplineSet
435 769 m 0,0,1
 342 769 342 769 342 831 c 0,2,3
 342 842 342 842 345 856 c 2,4,-1
 364 938 l 2,5,6
 384 1024 384 1024 493 1024 c 0,7,8
 587 1024 587 1024 587 961 c 0,9,10
 587 950 587 950 584 938 c 2,11,-1
 565 856 l 2,12,13
 545 769 545 769 435 769 c 0,0,1
359 613 m 2,14,15
 365 639 365 639 391 638 c 2,16,-1
 412 638 l 2,17,18
 437 638 437 638 432 613 c 2,19,-1
 286 -333 l 1,20,-1
 284 -342 l 2,21,22
 269 -406 269 -406 193 -406 c 2,23,-1
 127 -406 l 2,24,25
 64 -406 64 -406 64 -363 c 0,26,27
 64 -355 64 -355 66 -346 c 0,28,29
 66 -345 66 -345 67 -344 c 2,30,-1
 69 -333 l 1,31,-1
 359 613 l 2,14,15
EndSplineSet
Validated: 1
EndChar

StartChar: sterling
Encoding: 163 163 101
Width: 1024
GlyphClass: 1
Flags: W
LayerCount: 2
Fore
SplineSet
97 108 m 0,0,1
 93 90 93 90 93 77 c 0,2,3
 93 29 93 29 142 29 c 0,4,5
 143 29 143 29 144 29 c 0,6,7
 199 29 199 29 231 74 c 0,8,9
 264 120 264 120 288 164 c 1,10,11
 260 201 260 201 220 201 c 0,12,13
 118 201 118 201 97 108 c 0,0,1
590 684 m 1,14,15
 584 650 584 650 576 615 c 128,-1,16
 568 580 568 580 558 545 c 0,17,18
 537 470 537 470 497 389 c 0,19,20
 461 315 461 315 427 237 c 1,21,22
 477 218 477 218 526.5 200 c 128,-1,23
 576 182 576 182 629 167 c 0,24,25
 687 152 687 152 738 152 c 0,26,27
 780 152 780 152 819 162 c 0,28,29
 900 183 900 183 959 249 c 0,30,31
 978 270 978 270 986 292 c 128,-1,32
 994 314 994 314 1022 314 c 0,33,34
 1042 314 1042 314 1037 291 c 0,35,36
 1029 258 1029 258 1010.5 228 c 128,-1,37
 992 198 992 198 975 170 c 0,38,39
 916 75 916 75 822 17 c 0,40,41
 739 -31 739 -31 660 -31 c 0,42,43
 649 -31 649 -31 639 -30 c 0,44,45
 546 -21 546 -21 485 29 c 0,46,47
 468 42 468 42 421.5 76 c 128,-1,48
 375 110 375 110 359 129 c 1,49,50
 283 43 283 43 203 -10 c 0,51,52
 168 -32 168 -32 133 -32 c 0,53,54
 113 -32 113 -32 93 -25 c 0,55,56
 39 -5 39 -5 28 45 c 0,57,58
 24 65 24 65 30 90 c 0,59,60
 36 114 36 114 51 143 c 0,61,62
 81 201 81 201 121 228 c 0,63,64
 178 266 178 266 218 266 c 2,65,-1
 224 266 l 2,66,67
 265 263 265 263 322 259 c 1,68,69
 340 309 340 309 350 357 c 2,70,-1
 357 387 l 2,71,72
 368 449 368 449 381 511 c 0,73,74
 394 585 394 585 407 684 c 1,75,-1
 408 687 l 1,76,-1
 227 687 l 2,77,78
 190 687 190 687 196 713 c 2,79,-1
 208 766 l 2,80,81
 214 792 214 792 251 792 c 2,82,-1
 422 792 l 1,83,84
 432 865 432 865 446 928 c 0,85,86
 459 985 459 985 476 1033 c 0,87,88
 520 1157 520 1157 581 1238 c 0,89,90
 734 1443 734 1443 971 1443 c 0,91,92
 1041 1443 1041 1443 1099 1408 c 128,-1,93
 1157 1373 1157 1373 1175 1308 c 0,94,95
 1180 1290 1180 1290 1180 1269 c 0,96,97
 1180 1254 1180 1254 1177 1237 c 2,98,-1
 1175 1230 l 2,99,100
 1167 1195 1167 1195 1136 1170 c 0,101,102
 1103 1143 1103 1143 1075 1143 c 0,103,104
 1050 1143 1050 1143 1028 1165 c 0,105,106
 1010 1181 1010 1181 1010 1214 c 0,107,108
 1010 1221 1010 1221 1012.5 1246.5 c 128,-1,109
 1015 1272 1015 1272 1018 1302 c 0,110,111
 1018 1306 1018 1306 1018 1309 c 0,112,113
 1018 1374 1018 1374 946 1383 c 0,114,115
 928 1385 928 1385 913 1385 c 0,116,117
 858 1385 858 1385 816 1355 c 0,118,119
 741 1301 741 1301 708 1229 c 128,-1,120
 675 1157 675 1157 656 1079 c 0,121,122
 640 1004 640 1004 629 930 c 0,123,124
 619 860 619 860 608 792 c 1,125,-1
 915 792 l 2,126,127
 952 792 952 792 946 766 c 2,128,-1
 934 713 l 2,129,130
 928 687 928 687 891 687 c 2,131,-1
 591 687 l 1,132,-1
 590 684 l 1,14,15
EndSplineSet
Validated: 1
EndChar

StartChar: currency
Encoding: 164 164 102
Width: 1024
GlyphClass: 1
Flags: W
LayerCount: 2
Fore
SplineSet
682 732 m 0,0,1
 575 732 575 732 482.5 656.5 c 128,-1,2
 390 581 390 581 366 475 c 0,3,4
 359 444 359 444 359 415 c 0,5,6
 359 347 359 347 408 283 c 128,-1,7
 457 219 457 219 564 219 c 0,8,9
 669 219 669 219 761.5 294 c 128,-1,10
 854 369 854 369 879 475 c 0,11,12
 886 506 886 506 886 534 c 0,13,14
 886 603 886 603 836.5 667.5 c 128,-1,15
 787 732 787 732 682 732 c 0,0,1
703 822 m 256,16,17
 819 822 819 822 896 751 c 1,18,-1
 1074 895 l 2,19,20
 1081 901 1081 901 1086 901 c 256,21,22
 1091 901 1091 901 1094 896 c 2,23,-1
 1130 850 l 2,24,25
 1133 845 1133 845 1132 840 c 256,26,27
 1131 835 1131 835 1125 830 c 2,28,-1
 946 685 l 1,29,30
 978 625 978 625 978 555 c 0,31,32
 978 517 978 517 969 476 c 0,33,34
 942 358 942 358 850 267 c 1,35,-1
 961 123 l 2,36,37
 965 117 965 117 964 112 c 256,38,39
 963 107 963 107 958 102 c 2,40,-1
 900 56 l 2,41,42
 894 51 894 51 889 51 c 256,43,44
 884 51 884 51 880 57 c 2,45,-1
 769 201 l 1,46,47
 660 131 660 131 543 131 c 256,48,49
 426 131 426 131 350 201 c 1,50,-1
 173 57 l 2,51,52
 166 51 166 51 161 51 c 256,53,54
 156 51 156 51 152 56 c 2,55,-1
 117 102 l 2,56,57
 113 107 113 107 114 112 c 256,58,59
 115 117 115 117 122 123 c 2,60,-1
 300 267 l 1,61,62
 268 326 268 326 268 396 c 0,63,64
 268 434 268 434 278 476 c 0,65,66
 305 592 305 592 396 685 c 1,67,-1
 286 830 l 2,68,69
 281 835 281 835 282 840 c 256,70,71
 283 845 283 845 289 850 c 2,72,-1
 346 896 l 2,73,74
 352 901 352 901 357 901 c 256,75,76
 362 901 362 901 367 895 c 2,77,-1
 477 751 l 1,78,79
 587 822 587 822 703 822 c 256,16,17
EndSplineSet
Validated: 1
EndChar

StartChar: brokenbar
Encoding: 166 166 104
Width: 1024
GlyphClass: 1
Flags: W
LayerCount: 2
Fore
SplineSet
446 462 m 1,0,-1
 587 462 l 1,1,-1
 428 -225 l 1,2,-1
 287 -225 l 1,3,-1
 446 462 l 1,0,-1
684 1494 m 1,4,-1
 825 1494 l 1,5,-1
 666 807 l 1,6,-1
 525 807 l 1,7,-1
 684 1494 l 1,4,-1
EndSplineSet
Validated: 1
EndChar

StartChar: section
Encoding: 167 167 105
Width: 1024
GlyphClass: 1
Flags: W
LayerCount: 2
Fore
SplineSet
415 -365 m 0,0,1
 491 -359 491 -359 568 -325 c 128,-1,2
 645 -291 645 -291 702 -224 c 0,3,4
 761 -154 761 -154 784 -58 c 1,5,-1
 786 -47 l 2,6,7
 791 -20 791 -20 791 2 c 0,8,9
 791 70 791 70 744 111 c 0,10,11
 714 137 714 137 667 152 c 0,12,13
 575 179 575 179 476 190 c 128,-1,14
 377 201 377 201 296 246 c 0,15,16
 223 285 223 285 205 342.5 c 128,-1,17
 187 400 187 400 187 443 c 0,18,19
 187 482 187 482 197 524 c 0,20,21
 236 692 236 692 375 802 c 1,22,23
 308 864 308 864 308 964 c 0,24,25
 308 1004 308 1004 319 1051 c 0,26,27
 359 1224 359 1224 504 1335 c 0,28,29
 656 1450 656 1450 843 1450 c 0,30,31
 857 1450 857 1450 871 1449 c 0,32,33
 1075 1440 1075 1440 1198 1347 c 1,34,-1
 1130 1153 l 2,35,36
 1124 1135 1124 1135 1111 1135 c 0,37,38
 1108 1135 1108 1135 1105 1136 c 0,39,40
 1092 1137 1092 1137 1088 1162 c 0,41,42
 1068 1245 1068 1245 1005 1303.5 c 128,-1,43
 942 1362 942 1362 856 1366 c 1,44,-1
 841 1366 l 2,45,46
 756 1366 756 1366 683 1335 c 0,47,48
 636 1315 636 1315 602 1286 c 0,49,50
 571 1261 571 1261 545 1222 c 0,51,52
 521 1188 521 1188 506 1152 c 0,53,54
 493 1122 493 1122 487 1094 c 0,55,56
 481 1069 481 1069 481 1046 c 0,57,58
 481 1037 481 1037 482 1029 c 0,59,60
 487 967 487 967 526 933 c 0,61,62
 552 908 552 908 596 896 c 0,63,64
 619 890 619 890 650.5 884.5 c 128,-1,65
 682 879 682 879 717 873 c 0,66,67
 767 864 767 864 823.5 855 c 128,-1,68
 880 846 880 846 932 830 c 0,69,70
 1019 799 1019 799 1051 751 c 0,71,72
 1076 716 1076 716 1087 668 c 0,73,74
 1091 644 1091 644 1091 618 c 0,75,76
 1091 578 1091 578 1081 534 c 0,77,78
 1043 371 1043 371 906 252 c 1,79,80
 919 240 919 240 930 225 c 0,81,82
 955 187 955 187 966 141 c 0,83,84
 970 117 970 117 970 91 c 0,85,86
 970 51 970 51 960 7 c 0,87,88
 915 -188 915 -188 723 -321 c 0,89,90
 626 -387 626 -387 516 -422 c 0,91,92
 434 -447 434 -447 335 -453 c 0,93,94
 316 -454 316 -454 297 -454 c 0,95,96
 167 -454 167 -454 57 -417 c 1,97,-1
 26 -172 l 2,98,99
 25 -167 25 -167 26 -163 c 0,100,101
 28 -153 28 -153 38 -144 c 0,102,103
 47 -133 47 -133 56 -133 c 2,104,-1
 59 -133 l 2,105,106
 69 -134 69 -134 76 -159 c 0,107,108
 106 -287 106 -287 187 -330 c 0,109,110
 252 -367 252 -367 365 -367 c 0,111,112
 390 -367 390 -367 415 -365 c 0,0,1
821 299 m 2,113,-1
 823 301 l 1,114,115
 882 370 882 370 905 468 c 2,116,-1
 908 479 l 2,117,118
 913 505 913 505 913 527 c 0,119,120
 913 596 913 596 865 638 c 0,121,122
 832 665 832 665 789 679 c 0,123,124
 711 701 711 701 627.5 711.5 c 128,-1,125
 544 722 544 722 469 749 c 1,126,127
 444 727 444 727 424 696 c 0,128,129
 400 663 400 663 384 625 c 0,130,131
 371 595 371 595 365 567 c 0,132,133
 359 542 359 542 359 519 c 0,134,135
 359 510 359 510 360 502 c 0,136,137
 365 439 365 439 405 407 c 1,138,139
 430 381 430 381 474 370 c 0,140,141
 508 361 508 361 595 346 c 0,142,143
 645 337 645 337 702 328 c 128,-1,144
 759 319 759 319 810 303 c 0,145,146
 813 302 813 302 815.5 300.5 c 128,-1,147
 818 299 818 299 821 299 c 2,113,-1
EndSplineSet
Validated: 1
EndChar

StartChar: dieresis
Encoding: 168 168 106
Width: 1000
GlyphClass: 1
Flags: W
LayerCount: 2
Fore
SplineSet
980 1169 m 0,0,1
 979 1169 979 1169 977 1169 c 0,2,3
 929 1169 929 1169 902 1204 c 0,4,5
 883 1229 883 1229 882 1261 c 0,6,7
 882 1274 882 1274 886 1290 c 0,8,9
 898 1340 898 1340 941.5 1376.5 c 128,-1,10
 985 1413 985 1413 1036 1413 c 0,11,12
 1086 1413 1086 1413 1114 1377 c 0,13,14
 1133 1352 1133 1352 1134 1320 c 0,15,16
 1134 1306 1134 1306 1130 1290 c 0,17,18
 1118 1240 1118 1240 1074.5 1204.5 c 128,-1,19
 1031 1169 1031 1169 980 1169 c 0,0,1
559 1169 m 0,20,21
 558 1169 558 1169 556 1169 c 0,22,23
 507 1169 507 1169 480 1204 c 0,24,25
 461 1229 461 1229 461 1261 c 0,26,27
 461 1274 461 1274 465 1290 c 0,28,29
 477 1340 477 1340 520.5 1376.5 c 128,-1,30
 564 1413 564 1413 615 1413 c 256,31,32
 666 1413 666 1413 694 1377 c 0,33,34
 713 1352 713 1352 713 1320 c 0,35,36
 713 1306 713 1306 709 1290 c 0,37,38
 697 1240 697 1240 653.5 1204.5 c 128,-1,39
 610 1169 610 1169 559 1169 c 0,20,21
EndSplineSet
Validated: 1
EndChar

StartChar: guillemotleft
Encoding: 171 171 109
Width: 1024
GlyphClass: 1
Flags: W
LayerCount: 2
Fore
SplineSet
654 616 m 0,0,1
 650 620 650 620 651.5 626 c 128,-1,2
 653 632 653 632 660 640 c 0,3,4
 737 712 737 712 866.5 811 c 128,-1,5
 996 910 996 910 1089 988 c 0,6,7
 1094 992 1094 992 1097 992 c 128,-1,8
 1100 992 1100 992 1102 990 c 2,9,-1
 1133 964 l 2,10,11
 1136 960 1136 960 1135 957 c 0,12,13
 1135 955 1135 955 1132 953 c 2,14,-1
 803 629 l 1,15,-1
 984 302 l 2,16,17
 985 300 985 300 984 299 c 0,18,19
 983 294 983 294 977 291 c 2,20,-1
 934 265 l 2,21,22
 932 263 932 263 929 263 c 128,-1,23
 926 263 926 263 923 267 c 0,24,25
 857 351 857 351 787.5 439 c 128,-1,26
 718 527 718 527 654 616 c 0,0,1
244 616 m 0,27,28
 240 620 240 620 241.5 626 c 128,-1,29
 243 632 243 632 250 640 c 0,30,31
 327 712 327 712 456.5 811 c 128,-1,32
 586 910 586 910 679 988 c 0,33,34
 684 992 684 992 687 992 c 128,-1,35
 690 992 690 992 692 990 c 2,36,-1
 723 964 l 2,37,38
 726 960 726 960 725 957 c 0,39,40
 725 955 725 955 722 953 c 2,41,-1
 393 629 l 1,42,-1
 574 302 l 2,43,44
 575 300 575 300 574 299 c 0,45,46
 573 294 573 294 567 291 c 2,47,-1
 524 265 l 2,48,49
 522 263 522 263 519 263 c 128,-1,50
 516 263 516 263 513 267 c 0,51,52
 447 351 447 351 377.5 439 c 128,-1,53
 308 527 308 527 244 616 c 0,27,28
EndSplineSet
Validated: 1
EndChar

StartChar: logicalnot
Encoding: 172 172 110
Width: 1100
GlyphClass: 1
Flags: W
LayerCount: 2
Fore
SplineSet
1113 341 m 1,0,-1
 996 341 l 1,1,-1
 1096 775 l 1,2,-1
 245 775 l 1,3,-1
 271 887 l 1,4,-1
 1239 887 l 1,5,-1
 1113 341 l 1,0,-1
EndSplineSet
Validated: 1
EndChar

StartChar: uni00AD
Encoding: 173 173 111
Width: 680
GlyphClass: 1
Flags: W
LayerCount: 2
Fore
SplineSet
270 550 m 2,0,-1
 663 550 l 2,1,2
 685 550 685 550 677 515 c 2,3,-1
 661 444 l 2,4,5
 653 409 653 409 630 409 c 2,6,-1
 237 409 l 2,7,8
 215 409 215 409 224 444 c 2,9,-1
 240 515 l 2,10,11
 248 550 248 550 270 550 c 2,0,-1
EndSplineSet
Validated: 1
EndChar

StartChar: macron
Encoding: 175 175 113
Width: 1000
GlyphClass: 1
Flags: W
LayerCount: 2
Fore
SplineSet
533 1345 m 2,0,-1
 1092 1345 l 2,1,2
 1123 1345 1123 1345 1118 1319 c 2,3,-1
 1105 1266 l 2,4,5
 1099 1240 1099 1240 1067 1240 c 2,6,-1
 508 1240 l 2,7,8
 477 1240 477 1240 482 1266 c 2,9,-1
 495 1319 l 2,10,11
 502 1345 502 1345 533 1345 c 2,0,-1
EndSplineSet
Validated: 1
EndChar

StartChar: degree
Encoding: 176 176 114
Width: 819
GlyphClass: 1
Flags: W
LayerCount: 2
Fore
SplineSet
726 1387 m 0,0,1
 854 1386 854 1386 924 1296 c 0,2,3
 973 1232 973 1232 973 1150 c 0,4,5
 973 1116 973 1116 964 1078 c 0,6,7
 934 950 934 950 823 859.5 c 128,-1,8
 712 769 712 769 584 769 c 0,9,10
 456 770 456 770 386 860 c 0,11,12
 337 923 337 923 337 1004 c 0,13,14
 337 1039 337 1039 346 1078 c 0,15,16
 376 1206 376 1206 486.5 1296.5 c 128,-1,17
 597 1387 597 1387 726 1387 c 0,0,1
707 1305 m 0,18,19
 613 1305 613 1305 531.5 1238 c 128,-1,20
 450 1171 450 1171 429 1078 c 0,21,22
 422 1050 422 1050 422 1024 c 0,23,24
 422 964 422 964 458 918 c 0,25,26
 509 852 509 852 603 852 c 0,27,28
 696 852 696 852 777.5 918 c 128,-1,29
 859 984 859 984 881 1078 c 0,30,31
 887 1105 887 1105 887 1130 c 0,32,33
 887 1191 887 1191 851 1238 c 0,34,35
 800 1305 800 1305 707 1305 c 0,18,19
EndSplineSet
Validated: 1
EndChar

StartChar: plusminus
Encoding: 177 177 115
Width: 1100
GlyphClass: 1
Flags: W
LayerCount: 2
Fore
SplineSet
641 698 m 1,0,-1
 361 698 l 2,1,2
 324 698 324 698 330 724 c 2,3,-1
 342 777 l 2,4,5
 348 803 348 803 385 803 c 2,6,-1
 665 803 l 1,7,-1
 730 1083 l 2,8,9
 738 1119 738 1119 764 1119 c 2,10,-1
 816 1119 l 2,11,12
 842 1119 842 1119 834 1083 c 2,13,-1
 769 803 l 1,14,-1
 1049 803 l 2,15,16
 1086 803 1086 803 1080 777 c 2,17,-1
 1068 724 l 2,18,19
 1062 698 1062 698 1025 698 c 2,20,-1
 745 698 l 1,21,-1
 681 419 l 2,22,23
 672 381 672 381 646 381 c 2,24,-1
 594 381 l 2,25,26
 568 381 568 381 577 419 c 2,27,-1
 641 698 l 1,0,-1
254 236 m 2,28,-1
 918 236 l 2,29,30
 955 236 955 236 949 210 c 2,31,-1
 937 157 l 2,32,33
 931 131 931 131 894 131 c 2,34,-1
 230 131 l 2,35,36
 193 131 193 131 199 157 c 2,37,-1
 211 210 l 2,38,39
 217 236 217 236 254 236 c 2,28,-1
EndSplineSet
Validated: 1
EndChar

StartChar: acute
Encoding: 180 180 118
Width: 1000
GlyphClass: 1
Flags: W
LayerCount: 2
Fore
SplineSet
529 1098 m 2,0,1
 527 1097 527 1097 523 1097 c 0,2,3
 505 1097 505 1097 509 1114 c 0,4,5
 511 1122 511 1122 519 1129 c 2,6,7
 519 1129 519 1129 954 1387 c 0,8,9
 975 1400 975 1400 997 1400 c 0,10,11
 1057 1400 1057 1400 1057 1351 c 0,12,13
 1057 1340 1057 1340 1054 1326 c 0,14,15
 1042 1274 1042 1274 992 1257 c 0,16,17
 529 1098 529 1098 529 1098 c 2,0,1
EndSplineSet
Validated: 1
EndChar

StartChar: mu
Encoding: 181 181 119
Width: 1325
GlyphClass: 1
Flags: W
LayerCount: 2
Fore
SplineSet
1064 752 m 2,0,1
 1068 767 1068 767 1068 780 c 0,2,3
 1068 820 1068 820 1032 833 c 0,4,5
 990 849 990 849 989 871 c 0,6,7
 989 874 989 874 990 877 c 0,8,9
 995 898 995 898 1016 898 c 0,10,11
 1071 900 1071 900 1135 915 c 0,12,13
 1207 930 1207 930 1291 958 c 1,14,-1
 1103 142 l 2,15,16
 1099 127 1099 127 1099 114 c 0,17,18
 1099 74 1099 74 1136 62 c 0,19,20
 1179 48 1179 48 1179 26 c 0,21,22
 1179 23 1179 23 1178 21 c 0,23,24
 1173 0 1173 0 1152 0 c 2,25,-1
 890 0 l 1,26,-1
 910 87 l 1,27,-1
 683 6 l 2,28,29
 649 -6 649 -6 559 -17 c 0,30,31
 543 -19 543 -19 527 -17 c 0,32,33
 454 -9 454 -9 406 24 c 0,34,35
 326 78 326 78 307 139 c 1,36,37
 295 85 295 85 285 22 c 2,38,-1
 204 -532 l 1,39,-1
 204 -534 l 1,40,41
 200 -553 200 -553 179 -553 c 2,42,-1
 87 -553 l 2,43,44
 67 -553 67 -553 72 -532 c 2,45,-1
 382 811 l 1,46,47
 364 835 364 835 337.5 847 c 128,-1,48
 311 859 311 859 315 877 c 0,49,50
 320 898 320 898 341 898 c 0,51,52
 401 901 401 901 461 916 c 0,53,54
 499 926 499 926 535 937 c 128,-1,55
 571 948 571 948 609 958 c 1,56,-1
 486 424 l 2,57,58
 469 350 469 350 469 289 c 0,59,60
 469 205 469 205 502 149 c 0,61,62
 550 67 550 67 648 67 c 0,63,64
 699 67 699 67 765 89 c 2,65,-1
 923 143 l 1,66,-1
 1064 752 l 2,0,1
EndSplineSet
Validated: 1
EndChar

StartChar: paragraph
Encoding: 182 182 120
Width: 1266
GlyphClass: 1
Flags: W
LayerCount: 2
Fore
SplineSet
986 1337 m 1,0,-1
 623 -234 l 1,1,-1
 883 -234 l 1,2,-1
 1246 1337 l 1,3,-1
 986 1337 l 1,0,-1
713 797 m 1,4,5
 661 781 661 781 613 781 c 0,6,7
 489 781 489 781 433.5 858.5 c 128,-1,8
 378 936 378 936 378 1017 c 0,9,10
 378 1053 378 1053 387 1093 c 0,11,12
 417 1221 417 1221 525 1312.5 c 128,-1,13
 633 1404 633 1404 756 1405 c 2,14,-1
 1505 1405 l 2,15,16
 1531 1405 1531 1405 1525 1379 c 0,17,18
 1518 1348 1518 1348 1452 1326 c 128,-1,19
 1386 1304 1386 1304 1368 1226 c 2,20,-1
 1057 -122 l 2,21,22
 1053 -141 1053 -141 1053 -157 c 0,23,24
 1053 -206 1053 -206 1099 -224 c 128,-1,25
 1145 -242 1145 -242 1145 -268 c 0,26,27
 1145 -271 1145 -271 1144 -275 c 0,28,29
 1138 -300 1138 -300 1112 -300 c 2,30,-1
 364 -300 l 2,31,32
 338 -300 338 -300 344 -275 c 0,33,34
 351 -244 351 -244 417 -222 c 128,-1,35
 483 -200 483 -200 501 -122 c 2,36,-1
 713 797 l 1,4,5
EndSplineSet
Validated: 1
EndChar

StartChar: periodcentered
Encoding: 183 183 121
Width: 512
GlyphClass: 1
Flags: W
LayerCount: 2
Fore
SplineSet
370 496 m 0,0,1
 320 496 320 496 292 532 c 0,2,3
 273 557 273 557 272 589 c 0,4,5
 272 604 272 604 276 618 c 0,6,7
 288 668 288 668 331.5 704 c 128,-1,8
 375 740 375 740 426 740 c 256,9,10
 477 740 477 740 504 704 c 0,11,12
 523 679 523 679 523 646 c 0,13,14
 524 632 524 632 520 618 c 0,15,16
 508 568 508 568 464.5 532 c 128,-1,17
 421 496 421 496 370 496 c 0,0,1
EndSplineSet
Validated: 1
EndChar

StartChar: cedilla
Encoding: 184 184 122
Width: 1000
GlyphClass: 1
Flags: W
LayerCount: 2
Fore
SplineSet
432 -45 m 1,0,1
 432 -45 432 -45 488 -45 c 1,2,3
 475 -65 475 -65 471 -83 c 0,4,5
 469 -92 469 -92 469 -100 c 0,6,7
 469 -125 469 -125 487 -145 c 0,8,9
 510 -172 510 -172 541 -206 c 0,10,11
 575 -240 575 -240 575 -291 c 0,12,13
 575 -310 575 -310 570 -331 c 0,14,15
 569 -334 569 -334 568 -338 c 0,16,17
 545 -420 545 -420 423 -429 c 0,18,19
 418 -429 418 -429 413 -429 c 0,20,21
 348 -429 348 -429 276 -402 c 1,22,-1
 277 -334 l 1,23,24
 314 -368 314 -368 359 -368 c 0,25,26
 394 -368 394 -368 433 -348 c 0,27,28
 468 -328 468 -328 475 -294 c 0,29,30
 476 -288 476 -288 476 -282 c 0,31,32
 476 -254 476 -254 450 -222 c 0,33,34
 418 -182 418 -182 402 -137 c 0,35,36
 395 -118 395 -118 400 -98 c 0,37,38
 407 -72 407 -72 432 -45 c 1,0,1
EndSplineSet
Validated: 1
EndChar

StartChar: guillemotright
Encoding: 187 187 125
Width: 1024
GlyphClass: 1
Flags: W
LayerCount: 2
Fore
SplineSet
648 639 m 0,0,1
 652 635 652 635 650.5 629 c 128,-1,2
 649 623 649 623 642 615 c 0,3,4
 565 543 565 543 435.5 444 c 128,-1,5
 306 345 306 345 213 267 c 0,6,7
 208 263 208 263 205 263 c 128,-1,8
 202 263 202 263 200 265 c 2,9,-1
 169 291 l 2,10,11
 166 295 166 295 167 298 c 0,12,13
 167 300 167 300 170 302 c 2,14,-1
 499 626 l 1,15,-1
 318 953 l 2,16,17
 317 955 317 955 318 956 c 0,18,19
 319 961 319 961 325 964 c 2,20,-1
 368 990 l 2,21,22
 370 992 370 992 373 992 c 128,-1,23
 376 992 376 992 379 988 c 0,24,25
 445 904 445 904 515 816 c 128,-1,26
 585 728 585 728 648 639 c 0,0,1
1058 639 m 0,27,28
 1062 635 1062 635 1060.5 629 c 128,-1,29
 1059 623 1059 623 1052 615 c 0,30,31
 975 543 975 543 845.5 444 c 128,-1,32
 716 345 716 345 623 267 c 0,33,34
 618 263 618 263 615 263 c 128,-1,35
 612 263 612 263 610 265 c 2,36,-1
 579 291 l 2,37,38
 576 295 576 295 577 298 c 0,39,40
 577 300 577 300 580 302 c 2,41,-1
 909 626 l 1,42,-1
 728 953 l 2,43,44
 727 955 727 955 728 956 c 0,45,46
 729 961 729 961 735 964 c 2,47,-1
 778 990 l 2,48,49
 780 992 780 992 783 992 c 128,-1,50
 786 992 786 992 789 988 c 0,51,52
 855 904 855 904 925 816 c 128,-1,53
 995 728 995 728 1058 639 c 0,27,28
EndSplineSet
Validated: 1
EndChar

StartChar: questiondown
Encoding: 191 191 129
Width: 784
GlyphClass: 1
Flags: W
LayerCount: 2
Fore
SplineSet
605.5 712 m 128,-1,1
 504 712 504 712 504 774 c 0,2,3
 504 785 504 785 507 799 c 2,4,-1
 526 881 l 2,5,6
 546 967 546 967 647.5 967 c 128,-1,7
 749 967 749 967 749 905 c 0,8,9
 749 894 749 894 746 881 c 2,10,-1
 727 799 l 2,11,0
 707 712 707 712 605.5 712 c 128,-1,1
493 446 m 2,12,13
 505 499 505 499 522 529 c 0,14,15
 539 555 539 555 558 555 c 0,16,17
 575 555 575 555 578 525 c 0,18,19
 579 517 579 517 579 508 c 0,20,21
 579 482 579 482 571 445 c 2,22,-1
 500 138 l 1,23,24
 356 50 356 50 293 -22 c 0,25,26
 229 -96 229 -96 206 -196 c 0,27,28
 195 -244 195 -244 195 -281 c 0,29,30
 195 -329 195 -329 213 -361 c 0,31,32
 246 -415 246 -415 335 -415 c 0,33,34
 414 -415 414 -415 463 -365 c 0,35,36
 512 -313 512 -313 552 -182 c 0,37,38
 559 -159 559 -159 580 -147 c 0,39,40
 601 -134 601 -134 634 -134 c 0,41,42
 668 -134 668 -134 682 -147 c 0,43,44
 694 -160 694 -160 687 -190 c 0,45,46
 656 -323 656 -323 551 -401 c 0,47,48
 446 -478 446 -478 298 -478 c 0,49,50
 144 -478 144 -478 72 -403 c 0,51,52
 23 -351 23 -351 23 -272 c 0,53,54
 23 -237 23 -237 33 -197 c 0,55,56
 71 -33 71 -33 261 71 c 0,57,58
 282 82 282 82 310 97 c 0,59,60
 380 136 380 136 404 169 c 0,61,62
 429 200 429 200 449 274 c 2,63,-1
 493 446 l 2,12,13
EndSplineSet
Validated: 1
EndChar

StartChar: AE
Encoding: 198 198 136
Width: 1933
GlyphClass: 1
Flags: W
LayerCount: 2
Fore
SplineSet
1111 94 m 1,0,-1
 1539 94 l 2,1,2
 1631 94 1631 94 1712 165.5 c 128,-1,3
 1793 237 1793 237 1835 277 c 0,4,5
 1858 299 1858 299 1868 299 c 0,6,7
 1889 299 1889 299 1884 278 c 0,8,9
 1881 265 1881 265 1877 257 c 2,10,-1
 1745 0 l 1,11,-1
 826 0 l 2,12,13
 808 0 808 0 813 21 c 0,14,15
 819 46 819 46 873 63.5 c 128,-1,16
 927 81 927 81 942 146 c 2,17,-1
 1021 489 l 1,18,-1
 516 489 l 1,19,20
 448 403 448 403 380 317.5 c 128,-1,21
 312 232 312 232 244 147 c 0,22,23
 231 131 231 131 221 111 c 0,24,25
 214 100 214 100 211 88 c 0,26,27
 210 83 210 83 210 78 c 0,28,29
 209 65 209 65 212 56.5 c 128,-1,30
 215 48 215 48 215 39 c 0,31,32
 215 36 215 36 215 33 c 0,33,34
 215 31 215 31 212 28 c 0,35,36
 211 26 211 26 209.5 24 c 128,-1,37
 208 22 208 22 208 21 c 0,38,39
 192 0 192 0 178 0 c 2,40,-1
 -79 0 l 2,41,42
 -90 0 -90 0 -92 6 c 1,43,-1
 -90 11 l 2,44,45
 -89 15 -89 15 -85 21 c 0,46,47
 -74 32 -74 32 -42 47 c 0,48,49
 -23 54 -23 54 -3 62.5 c 128,-1,50
 17 71 17 71 39 83 c 0,51,52
 85 109 85 109 117 146 c 2,53,-1
 1092 1336 l 1,54,55
 1055 1345 1055 1345 1025.5 1355 c 128,-1,56
 996 1365 996 1365 1000 1383 c 0,57,58
 1005 1405 1005 1405 1026 1405 c 2,59,-1
 2081 1405 l 1,60,-1
 2022 1147 l 2,61,62
 2017 1126 2017 1126 1996 1126 c 0,63,64
 1986 1126 1986 1126 1968 1166 c 0,65,66
 1934 1235 1934 1235 1906.5 1273 c 128,-1,67
 1879 1311 1879 1311 1820 1311 c 2,68,-1
 1392 1311 l 1,69,-1
 1266 768 l 1,70,-1
 1495 768 l 2,71,72
 1559 768 1559 768 1591 819.5 c 128,-1,73
 1623 871 1623 871 1649 871 c 0,74,75
 1669 871 1669 871 1664 850 c 2,76,-1
 1606 596 l 2,77,78
 1601 575 1601 575 1581 575 c 0,79,80
 1555 575 1555 575 1543.5 626 c 128,-1,81
 1532 677 1532 677 1468 677 c 2,82,-1
 1245 677 l 1,83,-1
 1111 94 l 1,0,-1
1043 570 m 1,84,-1
 1214 1325 l 1,85,-1
 1186 1325 l 1,86,87
 1065 1173 1065 1173 883 947.5 c 128,-1,88
 701 722 701 722 581 570 c 1,89,-1
 1043 570 l 1,84,-1
EndSplineSet
Validated: 1
EndChar

StartChar: Eth
Encoding: 208 208 146
Width: 1585
GlyphClass: 1
Flags: W
LayerCount: 2
Fore
SplineSet
538 1405 m 2,0,-1
 853 1413 l 2,1,2
 874 1413 874 1413 895 1413 c 0,3,4
 907 1413 907 1413 919 1413 c 0,5,6
 1026 1413 1026 1413 1173 1405 c 0,7,8
 1339 1396 1339 1396 1468 1334 c 128,-1,9
 1597 1272 1597 1272 1658 1144 c 0,10,11
 1697 1063 1697 1063 1697 946 c 0,12,13
 1697 849 1697 849 1670 727 c 0,14,15
 1632 561 1632 561 1530 416 c 0,16,17
 1430 272 1430 272 1274 169 c 0,18,19
 1011 -5 1011 -5 687 -9 c 1,20,-1
 607 -9 l 2,21,22
 549 -9 549 -9 499 -6 c 2,23,-1
 382 -6 l 2,24,25
 299 -6 299 -6 256 -3 c 2,26,-1
 232 -3 l 2,27,28
 192 -3 192 -3 127 -9 c 0,29,30
 106 -9 106 -9 111.5 14.5 c 128,-1,31
 117 38 117 38 171 56 c 128,-1,32
 225 74 225 74 240 139 c 2,33,-1
 363 671 l 1,34,-1
 200 671 l 2,35,36
 163 671 163 671 169 697 c 2,37,-1
 181 750 l 2,38,39
 187 776 187 776 224 776 c 2,40,-1
 387 776 l 1,41,-1
 499 1262 l 2,42,43
 503 1278 503 1278 503 1291 c 0,44,45
 503 1332 503 1332 468 1344 c 0,46,47
 427 1359 427 1359 427 1381 c 0,48,49
 427 1384 427 1384 428 1387 c 0,50,51
 433 1410 433 1410 454 1408 c 0,52,53
 495 1405 495 1405 538 1405 c 2,0,-1
422 100 m 1,54,55
 542 76 542 76 657 76 c 0,56,57
 700 76 700 76 742 79 c 0,58,59
 1099 109 1099 109 1304 380 c 0,60,61
 1410 520 1410 520 1460 736 c 2,62,-1
 1468 769 l 1,63,64
 1484 855 1484 855 1484 928 c 0,65,66
 1484 1119 1484 1119 1372 1216 c 0,67,68
 1242 1334 1242 1334 985 1334 c 0,69,70
 972 1334 972 1334 959 1334 c 0,71,72
 836 1334 836 1334 702 1313 c 1,73,-1
 578 776 l 1,74,-1
 888 776 l 2,75,76
 925 776 925 776 919 750 c 2,77,-1
 907 697 l 2,78,79
 901 671 901 671 864 671 c 2,80,-1
 554 671 l 1,81,-1
 422 100 l 1,54,55
EndSplineSet
Validated: 1
EndChar

StartChar: multiply
Encoding: 215 215 153
Width: 1100
GlyphClass: 1
Flags: W
LayerCount: 2
Fore
SplineSet
605 631 m 1,0,-1
 452 829 l 2,1,2
 432 855 432 855 455 873 c 2,3,-1
 500 911 l 2,4,5
 522 929 522 929 543 903 c 2,6,-1
 696 705 l 1,7,-1
 939 903 l 2,8,9
 970 928 970 928 985 910 c 2,10,-1
 1014 873 l 2,11,12
 1028 855 1028 855 996 830 c 2,13,-1
 753 632 l 1,14,-1
 904 434 l 2,15,16
 924 408 924 408 902 389 c 2,17,-1
 856 352 l 2,18,19
 834 334 834 334 813 359 c 2,20,-1
 661 557 l 1,21,-1
 418 360 l 2,22,23
 385 333 385 333 371 352 c 2,24,-1
 343 388 l 2,25,26
 329 406 329 406 361 434 c 2,27,-1
 605 631 l 1,0,-1
EndSplineSet
Validated: 1
EndChar

StartChar: Oslash
Encoding: 216 216 154
Width: 1610
GlyphClass: 1
Flags: W
LayerCount: 2
Fore
SplineSet
1142 1446 m 1,0,-1
 1152 1446 l 2,1,2
 1475 1446 1475 1446 1651 1248 c 0,3,4
 1653 1245 1653 1245 1656 1243 c 2,5,-1
 1918 1444 l 1,6,-1
 1961 1382 l 1,7,-1
 1700 1182 l 1,8,9
 1766 1074 1766 1074 1766 932 c 0,10,11
 1766 852 1766 852 1745 760 c 0,12,13
 1739 733 1739 733 1731 705 c 0,14,15
 1631 361 1631 361 1369.5 171.5 c 128,-1,16
 1108 -18 1108 -18 798 -35 c 0,17,18
 775 -36 775 -36 752 -36 c 0,19,20
 494 -36 494 -36 329 129 c 1,21,-1
 115 -35 l 1,22,-1
 71 27 l 1,23,-1
 279 186 l 1,24,25
 181 316 181 316 181 493 c 0,26,27
 181 576 181 576 202 669 c 0,28,29
 206 687 206 687 212 705 c 0,30,31
 303 1046 303 1046 557 1244 c 128,-1,32
 811 1442 811 1442 1142 1446 c 1,0,-1
1122 1358 m 0,33,34
 815 1357 815 1357 648 1164.5 c 128,-1,35
 481 972 481 972 419 702 c 0,36,37
 396 602 396 602 396 513 c 0,38,39
 396 400 396 400 433 305 c 1,40,-1
 1505 1127 l 1,41,42
 1500 1140 1500 1140 1494 1154 c 0,43,44
 1414 1358 1414 1358 1122 1358 c 0,33,34
467 236 m 1,45,46
 576 48 576 48 819 46 c 2,47,-1
 824 46 l 2,48,49
 1063 46 1063 46 1264 250 c 0,50,51
 1463 452 1463 452 1519 696 c 1,52,-1
 1520 702 l 1,53,54
 1543 803 1543 803 1543 897 c 0,55,56
 1543 975 1543 975 1527 1049 c 1,57,-1
 467 236 l 1,45,46
EndSplineSet
Validated: 1
EndChar

StartChar: Thorn
Encoding: 222 222 160
Width: 1151
GlyphClass: 1
Flags: W
LayerCount: 2
Fore
SplineSet
641 1257 m 2,0,-1
 602 1088 l 1,1,-1
 912 1088 l 2,2,3
 1015 1088 1015 1088 1118.5 1051.5 c 128,-1,4
 1222 1015 1222 1015 1259 910 c 0,5,6
 1273 867 1273 867 1273 815 c 0,7,8
 1273 765 1273 765 1260 706 c 0,9,10
 1232 593 1232 593 1148 503 c 0,11,12
 1076 426 1076 426 968 388.5 c 128,-1,13
 860 351 860 351 778 351 c 2,14,-1
 432 351 l 1,15,-1
 385 146 l 2,16,17
 381 130 381 130 381 117 c 0,18,19
 381 78 381 78 416 64 c 0,20,21
 462 46 462 46 456 21 c 0,22,23
 451 0 451 0 430 0 c 2,24,-1
 91 0 l 2,25,26
 71 0 71 0 76 21 c 0,27,28
 82 46 82 46 136 63.5 c 128,-1,29
 190 81 190 81 205 146 c 2,30,-1
 461 1257 l 2,31,32
 465 1273 465 1273 465 1286 c 0,33,34
 465 1326 465 1326 430 1339 c 0,35,36
 389 1355 389 1355 389 1377 c 0,37,38
 389 1380 389 1380 390 1383 c 0,39,40
 395 1405 395 1405 416 1405 c 2,41,-1
 754 1405 l 2,42,43
 775 1405 775 1405 770 1383 c 0,44,45
 764 1357 764 1357 710 1339 c 128,-1,46
 656 1321 656 1321 641 1257 c 2,0,-1
448 421 m 1,47,-1
 659 421 l 2,48,49
 728 421 728 421 803.5 441 c 128,-1,50
 879 461 879 461 942 512 c 0,51,52
 1040 589 1040 589 1069 716 c 0,53,54
 1077 752 1077 752 1077 785 c 0,55,56
 1077 863 1077 863 1033 920 c 0,57,58
 964 1005 964 1005 814 1005 c 2,59,-1
 583 1005 l 1,60,-1
 448 421 l 1,47,-1
EndSplineSet
Validated: 1
EndChar

StartChar: germandbls
Encoding: 223 223 161
Width: 1269
GlyphClass: 1
Flags: W
LayerCount: 2
Fore
SplineSet
727 1278 m 0,0,1
 681 1232 681 1232 661 1163 c 128,-1,2
 641 1094 641 1094 625 1027 c 2,3,-1
 422 146 l 2,4,5
 418 130 418 130 418 117 c 0,6,7
 418 77 418 77 458.5 61.5 c 128,-1,8
 499 46 499 46 493 21 c 0,9,10
 488 0 488 0 467 0 c 2,11,-1
 128 0 l 2,12,13
 107 0 107 0 112 21 c 0,14,15
 118 46 118 46 172 63.5 c 128,-1,16
 226 81 226 81 241 146 c 2,17,-1
 444 1027 l 2,18,19
 465 1117 465 1117 507 1202.5 c 128,-1,20
 549 1288 549 1288 620 1351 c 0,21,22
 748 1466 748 1466 893 1466 c 0,23,24
 925 1466 925 1466 959 1460 c 0,25,26
 1126 1430 1126 1430 1172 1265 c 0,27,28
 1181 1229 1181 1229 1181 1195 c 0,29,30
 1181 1167 1181 1167 1175 1140 c 0,31,32
 1153 1046 1153 1046 1055 962 c 0,33,34
 988 904 988 904 914 859.5 c 128,-1,35
 840 815 840 815 811 751 c 0,36,37
 801 729 801 729 797 711 c 0,38,39
 794 696 794 696 794 684 c 0,40,41
 794 642 794 642 832 621 c 0,42,43
 895 585 895 585 984 564 c 0,44,45
 1106 535 1106 535 1190.5 491.5 c 128,-1,46
 1275 448 1275 448 1275 345 c 0,47,48
 1275 316 1275 316 1269 281 c 2,49,-1
 1266 269 l 2,50,51
 1249 196 1249 196 1175 123 c 0,52,53
 1095 43 1095 43 968 2 c 0,54,55
 889 -22 889 -22 800 -25 c 2,56,-1
 773 -25 l 2,57,58
 651 -25 651 -25 546 7 c 1,59,-1
 516 227 l 1,60,-1
 523 247 l 2,61,62
 527 262 527 262 544 262 c 2,63,-1
 546 262 l 2,64,65
 556 260 556 260 562 238 c 0,66,67
 585 139 585 139 642 97.5 c 128,-1,68
 699 56 699 56 800 53 c 2,69,-1
 812 53 l 2,70,71
 884 53 884 53 977 86 c 0,72,73
 1077 122 1077 122 1102 216 c 1,74,-1
 1103 222 l 2,75,76
 1108 244 1108 244 1108 264 c 0,77,78
 1108 336 1108 336 1033 359 c 0,79,80
 934 389 934 389 859 412 c 0,81,82
 766 439 766 439 693 498 c 0,83,84
 640 540 640 540 640 614 c 0,85,86
 640 641 640 641 647 672 c 2,87,-1
 648 675 l 1,88,89
 671 774 671 774 748.5 824.5 c 128,-1,90
 826 875 826 875 903 934 c 0,91,92
 982 994 982 994 1017 1093 c 0,93,94
 1024 1113 1024 1113 1029 1133 c 0,95,96
 1036 1162 1036 1162 1036 1188 c 0,97,98
 1036 1228 1036 1228 1020 1261 c 0,99,100
 988 1326 988 1326 891 1336 c 0,101,102
 878 1337 878 1337 867 1337 c 0,103,104
 785 1337 785 1337 727 1278 c 0,0,1
EndSplineSet
Validated: 1
EndChar

StartChar: ae
Encoding: 230 230 168
Width: 1762
GlyphClass: 1
Flags: W
LayerCount: 2
Fore
SplineSet
717 861 m 0,0,1
 629 835 629 835 605 824 c 0,2,3
 543 803 543 803 501 767 c 0,4,5
 447 721 447 721 393 604 c 0,6,7
 371 556 371 556 359 502 c 0,8,9
 342 430 342 430 341 369 c 0,10,11
 341 361 341 361 341 354 c 0,12,13
 341 263 341 263 375 196 c 0,14,15
 436 75 436 75 573 75 c 0,16,17
 627 75 627 75 698 99 c 2,18,-1
 839 146 l 1,19,-1
 983 769 l 1,20,21
 955 800 955 800 889 837 c 0,22,23
 843 862 843 862 812 869 c 0,24,25
 799 872 799 872 783 872 c 0,26,27
 755 872 755 872 717 861 c 0,0,1
1660 551 m 1,28,29
 1673 609 1673 609 1673 662 c 0,30,31
 1673 720 1673 720 1657 772 c 0,32,33
 1626 872 1626 872 1485 872 c 2,34,-1
 1474 872 l 1,35,36
 1332 868 1332 868 1248.5 770 c 128,-1,37
 1165 672 1165 672 1133 551 c 1,38,-1
 1660 551 l 1,28,29
1504 960 m 2,39,40
 1700 960 1700 960 1778 847 c 0,41,42
 1828 774 1828 774 1829 671 c 0,43,44
 1829 615 1829 615 1814 551 c 0,45,46
 1804 511 1804 511 1798 494.5 c 128,-1,47
 1792 478 1792 478 1753 478 c 2,48,-1
 1116 478 l 1,49,50
 1103 416 1103 416 1103 362 c 0,51,52
 1103 360 1103 360 1103 357 c 0,53,54
 1103 274 1103 274 1136 210 c 0,55,56
 1190 104 1190 104 1305 79 c 0,57,58
 1338 71 1338 71 1374 71 c 0,59,60
 1469 71 1469 71 1558.5 114 c 128,-1,61
 1648 157 1648 157 1660 157 c 0,62,63
 1674 156 1674 156 1676 154 c 0,64,65
 1677 153 1677 153 1677 150 c 0,66,67
 1677 146 1677 146 1676 142 c 0,68,69
 1674 132 1674 132 1656 108.5 c 128,-1,70
 1638 85 1638 85 1628.5 77 c 128,-1,71
 1619 69 1619 69 1612 63 c 0,72,73
 1481 -31 1481 -31 1294 -31 c 0,74,75
 1041 -29 1041 -29 946 126 c 1,76,-1
 519 -14 l 2,77,78
 485 -25 485 -25 463 -25 c 2,79,-1
 422 -25 l 2,80,81
 358 -25 358 -25 307 -1 c 0,82,83
 246 28 246 28 203 92 c 0,84,85
 145 180 145 180 145 298 c 0,86,87
 145 362 145 362 162 434 c 0,88,89
 175 492 175 492 192 538 c 0,90,91
 225 626 225 626 289 700 c 0,92,93
 336 755 336 755 401 796 c 0,94,95
 435 818 435 818 465 830 c 0,96,97
 712 915 712 915 821 949 c 0,98,99
 840 955 840 955 864 955 c 0,100,101
 895 955 895 955 934 945 c 0,102,103
 976 935 976 935 1171 856 c 1,104,105
 1313 958 1313 958 1500 960 c 2,106,-1
 1504 960 l 2,39,40
EndSplineSet
Validated: 1
EndChar

StartChar: eth
Encoding: 240 240 178
Width: 1105
GlyphClass: 1
Flags: W
LayerCount: 2
Fore
SplineSet
1006 901 m 1,0,1
 955 1072 955 1072 885 1192 c 0,2,3
 880 1201 880 1201 874 1209 c 1,4,5
 724 1133 724 1133 556 1077 c 1,6,7
 550 1091 550 1091 544 1105 c 128,-1,8
 538 1119 538 1119 533 1134 c 1,9,10
 683 1188 683 1188 832 1264 c 1,11,12
 763 1343 763 1343 648 1414 c 0,13,14
 633 1424 633 1424 633 1433 c 0,15,16
 633 1434 633 1434 633 1435 c 0,17,18
 634 1438 634 1438 637 1441 c 0,19,20
 648 1454 648 1454 665 1476 c 0,21,22
 679 1494 679 1494 696 1494 c 0,23,24
 705 1494 705 1494 715 1489 c 0,25,26
 833 1410 833 1410 923 1318 c 1,27,28
 1127 1441 1127 1441 1211 1499 c 1,29,30
 1220 1486 1220 1486 1228.5 1473 c 128,-1,31
 1237 1460 1237 1460 1246 1448 c 1,32,33
 1153 1374 1153 1374 971 1266 c 1,34,35
 1052 1172 1052 1172 1108 1066 c 0,36,37
 1187 915 1187 915 1187 720 c 0,38,39
 1187 599 1187 599 1157 461 c 1,40,-1
 1156 455 l 1,41,42
 1109 251 1109 251 935 110 c 0,43,44
 759 -34 759 -34 551 -40 c 1,45,-1
 538 -40 l 2,46,47
 343 -40 343 -40 236 105 c 0,48,49
 159 209 159 209 159 339 c 0,50,51
 159 396 159 396 174 458 c 1,52,-1
 174 461 l 1,53,54
 227 685 227 685 427 837 c 0,55,56
 450 855 450 855 490.5 868 c 128,-1,57
 531 881 531 881 612 910 c 0,58,59
 660 926 660 926 717 945 c 0,60,61
 771 963 771 963 802 963 c 2,62,-1
 805 963 l 1,63,64
 919 958 919 958 1006 901 c 1,0,1
768 893 m 1,65,-1
 756 893 l 2,66,67
 639 893 639 893 529 778 c 0,68,69
 413 656 413 656 371 478 c 2,70,-1
 370 474 l 2,71,72
 353 401 353 401 353 335 c 0,73,74
 353 243 353 243 387 167 c 0,75,76
 445 36 445 36 568 30 c 1,77,-1
 581 30 l 2,78,79
 697 30 697 30 807 145 c 0,80,81
 923 266 923 266 966 446 c 0,82,83
 983 520 983 520 983 586 c 0,84,85
 983 589 983 589 983 591 c 0,86,87
 983 682 983 682 950 756 c 0,88,89
 892 888 892 888 768 893 c 1,65,-1
EndSplineSet
Validated: 1
EndChar

StartChar: oslash
Encoding: 248 248 186
Width: 1107
GlyphClass: 1
Flags: W
LayerCount: 2
Fore
SplineSet
749 889 m 2,0,1
 632 889 632 889 518.5 772.5 c 128,-1,2
 405 656 405 656 365 481 c 0,3,4
 348 409 348 409 348 345 c 0,5,6
 348 299 348 299 357 257 c 1,7,-1
 948 738 l 1,8,9
 945 746 945 746 942 754 c 0,10,11
 884 882 884 882 761 889 c 1,12,-1
 749 889 l 2,0,1
1151 459 m 1,13,14
 1105 259 1105 259 930.5 120 c 128,-1,15
 756 -19 756 -19 547 -25 c 1,16,-1
 531 -25 l 2,17,18
 358 -25 358 -25 253 92 c 1,19,-1
 86 -44 l 1,20,-1
 47 5 l 1,21,-1
 215 142 l 1,22,23
 155 235 155 235 155 349 c 0,24,25
 155 403 155 403 169 462 c 1,26,-1
 169 465 l 1,27,28
 221 684 221 684 419 833 c 0,29,30
 442 851 442 851 482.5 864 c 128,-1,31
 523 877 523 877 587 898 c 128,-1,32
 651 919 651 919 706.5 937 c 128,-1,33
 762 955 762 955 795 956 c 2,34,-1
 798 956 l 1,35,36
 969 949 969 949 1069 836 c 1,37,-1
 1243 977 l 1,38,-1
 1281 927 l 1,39,-1
 1106 785 l 1,40,41
 1165 692 1165 692 1165 577 c 0,42,43
 1165 523 1165 523 1152 465 c 2,44,-1
 1151 459 l 1,13,14
376 192 m 1,45,46
 381 186 381 186 383 178 c 0,47,48
 441 50 441 50 564 43 c 1,49,-1
 578 43 l 2,50,51
 694 43 694 43 806.5 159 c 128,-1,52
 919 275 919 275 960 450 c 0,53,54
 976 522 976 522 976 586 c 0,55,56
 976 632 976 632 968 673 c 1,57,-1
 376 192 l 1,45,46
EndSplineSet
Validated: 1
EndChar

StartChar: thorn
Encoding: 254 254 192
Width: 1180
GlyphClass: 1
Flags: W
LayerCount: 2
Fore
SplineSet
692 69 m 0,0,1
 780 95 780 95 803 106 c 0,2,3
 865 127 865 127 908 163 c 0,4,5
 962 209 962 209 1015 326 c 0,6,7
 1037 374 1037 374 1050 428 c 0,8,9
 1067 500 1067 500 1068 561 c 0,10,11
 1068 568 1068 568 1068 575 c 0,12,13
 1068 666 1068 666 1033 734 c 0,14,15
 972 855 972 855 835 855 c 0,16,17
 781 855 781 855 711 831 c 2,18,-1
 570 784 l 1,19,-1
 426 161 l 1,20,21
 454 130 454 130 519 93 c 0,22,23
 565 68 565 68 597 61 c 0,24,25
 610 58 610 58 625 58 c 0,26,27
 654 58 654 58 692 69 c 0,0,1
389 0 m 1,28,-1
 269 -519 l 2,29,30
 266 -530 266 -530 252 -536 c 0,31,32
 243 -540 243 -540 231 -542 c 0,33,34
 225 -543 225 -543 220 -536 c 0,35,36
 200 -504 200 -504 148 -487 c 0,37,38
 86 -467 86 -467 28 -467 c 0,39,40
 7 -467 7 -467 12 -446 c 0,41,42
 18 -420 18 -420 72 -402 c 128,-1,43
 126 -384 126 -384 141 -321 c 2,44,-1
 215 0 l 1,45,-1
 505 1258 l 2,46,47
 509 1273 509 1273 509 1286 c 0,48,49
 509 1325 509 1325 474 1339 c 0,50,51
 433 1355 433 1355 433 1377 c 0,52,53
 433 1380 433 1380 434 1383 c 0,54,55
 439 1404 439 1404 460 1404 c 0,56,57
 517 1404 517 1404 589 1424 c 0,58,59
 650 1441 650 1441 684 1473 c 0,60,61
 692 1480 692 1480 697 1479 c 0,62,63
 709 1477 709 1477 716 1473 c 0,64,65
 728 1467 728 1467 725 1456 c 2,66,-1
 584 843 l 1,67,-1
 890 944 l 2,68,69
 924 955 924 955 945 955 c 2,70,-1
 986 955 l 2,71,72
 1050 955 1050 955 1102 931 c 0,73,74
 1163 902 1163 902 1205 838 c 0,75,76
 1263 750 1263 750 1263 630 c 0,77,78
 1263 567 1263 567 1247 496 c 0,79,80
 1234 438 1234 438 1216 392 c 0,81,82
 1183 304 1183 304 1120 230 c 0,83,84
 1073 175 1073 175 1008 134 c 0,85,86
 974 112 974 112 944 100 c 0,87,88
 697 15 697 15 588 -19 c 0,89,90
 569 -25 569 -25 544 -25 c 0,91,92
 513 -25 513 -25 475 -15 c 0,93,94
 454 -10 454 -10 392 13 c 1,95,-1
 389 0 l 1,28,-1
EndSplineSet
Validated: 1
EndChar

StartChar: Hbar
Encoding: 294 294 232
Width: 1638
GlyphClass: 1
Flags: W
LayerCount: 2
Fore
SplineSet
328 998 m 1,0,-1
 350 1093 l 1,1,-1
 507 1093 l 1,2,-1
 545 1256 l 2,3,4
 549 1272 549 1272 549 1285 c 0,5,6
 549 1325 549 1325 511 1339.5 c 128,-1,7
 473 1354 473 1354 473 1376 c 0,8,9
 473 1379 473 1379 474 1382 c 0,10,11
 479 1404 479 1404 500 1404 c 2,12,-1
 838 1404 l 2,13,14
 859 1404 859 1404 854 1382 c 0,15,16
 848 1356 848 1356 794 1338 c 128,-1,17
 740 1320 740 1320 725 1256 c 2,18,-1
 687 1093 l 1,19,-1
 1534 1093 l 1,20,-1
 1572 1256 l 2,21,22
 1576 1272 1576 1272 1576 1285 c 0,23,24
 1576 1325 1576 1325 1538 1339.5 c 128,-1,25
 1500 1354 1500 1354 1500 1376 c 0,26,27
 1500 1379 1500 1379 1501 1382 c 0,28,29
 1506 1404 1506 1404 1527 1404 c 2,30,-1
 1865 1404 l 2,31,32
 1886 1404 1886 1404 1881 1382 c 0,33,34
 1875 1356 1875 1356 1821 1338 c 128,-1,35
 1767 1320 1767 1320 1752 1256 c 2,36,-1
 1714 1093 l 1,37,-1
 1876 1093 l 1,38,-1
 1854 998 l 1,39,-1
 1692 998 l 1,40,-1
 1496 147 l 2,41,42
 1492 131 1492 131 1492 118 c 0,43,44
 1492 78 1492 78 1530 63 c 128,-1,45
 1568 48 1568 48 1568 27 c 0,46,47
 1568 24 1568 24 1567 21 c 0,48,49
 1562 0 1562 0 1541 0 c 2,50,-1
 1202 0 l 2,51,52
 1182 0 1182 0 1187 21 c 0,53,54
 1193 46 1193 46 1247 64 c 128,-1,55
 1301 82 1301 82 1316 146 c 2,56,-1
 1443 696 l 1,57,-1
 596 696 l 1,58,-1
 469 147 l 2,59,60
 465 131 465 131 465 118 c 0,61,62
 465 78 465 78 503 63 c 128,-1,63
 541 48 541 48 541 27 c 0,64,65
 541 24 541 24 540 21 c 0,66,67
 535 0 535 0 514 0 c 2,68,-1
 175 0 l 2,69,70
 155 0 155 0 160 21 c 0,71,72
 166 46 166 46 220 64 c 128,-1,73
 274 82 274 82 289 146 c 2,74,-1
 485 998 l 1,75,-1
 328 998 l 1,0,-1
1512 998 m 1,76,-1
 665 998 l 1,77,-1
 618 791 l 1,78,-1
 1465 791 l 1,79,-1
 1512 998 l 1,76,-1
EndSplineSet
Validated: 1
EndChar

StartChar: dotlessi
Encoding: 305 305 243
Width: 597
GlyphClass: 1
Flags: W
LayerCount: 2
Fore
SplineSet
416 146 m 0,0,1
 412 130 412 130 412 117 c 0,2,3
 412 78 412 78 447 64 c 0,4,5
 488 48 488 48 488 27 c 0,6,7
 488 24 488 24 487 21 c 0,8,9
 482 0 482 0 462 0 c 0,10,11
 129 0 129 0 129 0 c 2,12,13
 112 0 112 0 112 14 c 0,14,15
 112 17 112 17 113 21 c 0,16,17
 119 46 119 46 173 63.5 c 128,-1,18
 227 81 227 81 242 146 c 0,19,20
 389 783 389 783 389 783 c 2,21,22
 393 798 393 798 393 811 c 0,23,24
 393 850 393 850 358 864 c 0,25,26
 317 880 317 880 317 902 c 0,27,28
 317 905 317 905 318 908 c 0,29,30
 323 929 323 929 343 929 c 0,31,32
 400 929 400 929 472 949 c 0,33,34
 533 966 533 966 567 998 c 0,35,36
 574 1004 574 1004 579 1004 c 0,37,38
 580 1004 580 1004 581 1004 c 0,39,40
 593 1002 593 1002 599 998 c 0,41,42
 609 993 609 993 609 985 c 0,43,44
 609 983 609 983 608 981 c 1,45,46
 608 981 608 981 608 981 c 1,47,48
 608 977 608 977 416 146 c 0,0,1
EndSplineSet
Validated: 1
EndChar

StartChar: kgreenlandic
Encoding: 312 312 250
Width: 1163
GlyphClass: 1
Flags: W
LayerCount: 2
Fore
SplineSet
416 146 m 2,0,1
 412 130 412 130 412 117 c 0,2,3
 412 78 412 78 447 64 c 0,4,5
 493 46 493 46 487 21 c 0,6,7
 482 0 482 0 462 0 c 2,8,-1
 129 0 l 2,9,10
 108 0 108 0 113 21 c 0,11,12
 119 46 119 46 173 63.5 c 128,-1,13
 227 81 227 81 242 146 c 2,14,-1
 389 783 l 2,15,16
 393 798 393 798 393 811 c 0,17,18
 393 850 393 850 358 864 c 0,19,20
 317 880 317 880 317 902 c 0,21,22
 317 905 317 905 318 908 c 0,23,24
 323 929 323 929 343 929 c 0,25,26
 400 929 400 929 472 949 c 0,27,28
 533 966 533 966 567 998 c 0,29,30
 575 1005 575 1005 581 1004 c 0,31,32
 593 1002 593 1002 599 998 c 0,33,34
 611 992 611 992 608 981 c 2,35,-1
 515 574 l 1,36,37
 624 649 624 649 1054 931 c 0,38,39
 1082 950 1082 950 1106 950 c 0,40,41
 1121 950 1121 950 1134 942 c 2,42,-1
 1211 895 l 2,43,44
 1220 889 1220 889 1217 880 c 0,45,46
 1216 875 1216 875 1213 870 c 2,47,-1
 1141 762 l 1,48,-1
 1098 790 l 2,49,50
 1072 807 1072 807 1045 807 c 0,51,52
 1013 807 1013 807 979 784 c 2,53,-1
 673 581 l 1,54,-1
 941 176 l 2,55,56
 1000 86 1000 86 1039 66 c 0,57,58
 1075 48 1075 48 1120 48 c 0,59,60
 1124 48 1124 48 1127 48 c 0,61,62
 1161 47 1161 47 1158 25 c 0,63,64
 1157 16 1157 16 1145 11 c 2,65,-1
 1081 -16 l 2,66,67
 1018 -43 1018 -43 980 -43 c 0,68,69
 879 -43 879 -43 818 47 c 2,70,-1
 500 513 l 1,71,-1
 416 146 l 2,0,1
EndSplineSet
Validated: 1
EndChar

StartChar: OE
Encoding: 338 338 276
Width: 2101
GlyphClass: 1
Flags: W
LayerCount: 2
Fore
SplineSet
1374 94 m 1,0,-1
 1801 94 l 2,1,2
 1894 94 1894 94 1975 165.5 c 128,-1,3
 2056 237 2056 237 2098 277 c 0,4,5
 2121 299 2121 299 2131 299 c 0,6,7
 2152 299 2152 299 2147 278 c 0,8,9
 2144 265 2144 265 2140 257 c 2,10,-1
 2008 0 l 1,11,-1
 1142 0 l 1,12,13
 1086 -15 1086 -15 1030 -23 c 0,14,15
 928 -37 928 -37 838 -37 c 0,16,17
 532 -37 532 -37 340 159 c 0,18,19
 205 297 205 297 204 510 c 0,20,21
 204 599 204 599 228 701 c 0,22,23
 306 1038 306 1038 583.5 1241.5 c 128,-1,24
 861 1445 861 1445 1181 1445 c 0,25,26
 1185 1445 1185 1445 1190 1445 c 0,27,28
 1301 1445 1301 1445 1420 1420 c 0,29,30
 1449 1414 1449 1414 1475 1405 c 1,31,-1
 2344 1405 l 1,32,-1
 2285 1147 l 2,33,34
 2280 1126 2280 1126 2259 1126 c 0,35,36
 2249 1126 2249 1126 2231 1166 c 0,37,38
 2197 1235 2197 1235 2169.5 1273 c 128,-1,39
 2142 1311 2142 1311 2082 1311 c 2,40,-1
 1655 1311 l 1,41,-1
 1529 768 l 1,42,-1
 1758 768 l 2,43,44
 1822 768 1822 768 1854 819.5 c 128,-1,45
 1886 871 1886 871 1912 871 c 0,46,47
 1932 871 1932 871 1927 850 c 2,48,-1
 1869 596 l 2,49,50
 1864 575 1864 575 1844 575 c 0,51,52
 1818 575 1818 575 1806.5 626 c 128,-1,53
 1795 677 1795 677 1731 677 c 2,54,-1
 1508 677 l 1,55,-1
 1374 94 l 1,0,-1
1206 150 m 1,56,-1
 1459 1248 l 1,57,58
 1430 1280 1430 1280 1392 1303 c 0,59,60
 1296 1356 1296 1356 1174 1356 c 2,61,-1
 1153 1356 l 1,62,63
 880 1344 880 1344 681 1140 c 0,64,65
 502 957 502 957 451 735 c 0,66,67
 445 710 445 710 441 685 c 0,68,69
 430 622 430 622 430 563 c 0,70,71
 430 404 430 404 506 266 c 0,72,73
 610 77 610 77 862 65 c 0,74,75
 886 64 886 64 908 64 c 0,76,77
 1036 64 1036 64 1128 103 c 0,78,79
 1168 120 1168 120 1206 150 c 1,56,-1
EndSplineSet
Validated: 1
EndChar

StartChar: oe
Encoding: 339 339 277
Width: 1789
GlyphClass: 1
Flags: W
LayerCount: 2
Fore
SplineSet
749 889 m 2,0,1
 632 889 632 889 518.5 772.5 c 128,-1,2
 405 656 405 656 365 481 c 0,3,4
 349 409 349 409 349 345 c 0,5,6
 349 342 349 342 349 340 c 0,7,8
 349 252 349 252 382 178 c 0,9,10
 440 50 440 50 564 43 c 1,11,-1
 578 43 l 2,12,13
 694 43 694 43 806 159 c 0,14,15
 920 275 920 275 960 450 c 0,16,17
 976 518 976 518 976 579 c 0,18,19
 976 583 976 583 976 586 c 0,20,21
 976 678 976 678 942 754 c 0,22,23
 884 882 884 882 761 889 c 1,24,-1
 749 889 l 2,0,1
1713 551 m 1,25,26
 1726 609 1726 609 1726 662 c 0,27,28
 1726 720 1726 720 1710 772 c 0,29,30
 1679 872 1679 872 1538 872 c 2,31,-1
 1527 872 l 1,32,33
 1385 868 1385 868 1301.5 770 c 128,-1,34
 1218 672 1218 672 1186 551 c 1,35,-1
 1713 551 l 1,25,26
1557 960 m 2,36,37
 1754 960 1754 960 1832 847 c 0,38,39
 1882 774 1882 774 1882 671 c 0,40,41
 1882 615 1882 615 1867 551 c 0,42,43
 1857 511 1857 511 1851 494.5 c 128,-1,44
 1845 478 1845 478 1806 478 c 2,45,-1
 1169 478 l 1,46,47
 1156 416 1156 416 1156 362 c 0,48,49
 1156 276 1156 276 1190 210 c 0,50,51
 1244 104 1244 104 1358 79 c 0,52,53
 1391 71 1391 71 1427 71 c 0,54,55
 1522 71 1522 71 1612 114 c 128,-1,56
 1702 157 1702 157 1714 157 c 0,57,58
 1726 156 1726 156 1728 154 c 0,59,60
 1729 153 1729 153 1730 150 c 0,61,62
 1730 146 1730 146 1729 142 c 0,63,64
 1727 132 1727 132 1709 108.5 c 128,-1,65
 1691 85 1691 85 1681.5 77 c 128,-1,66
 1672 69 1672 69 1665 63 c 0,67,68
 1534 -31 1534 -31 1347 -31 c 0,69,70
 1085 -29 1085 -29 993 137 c 0,71,72
 986 150 986 150 980 163 c 1,73,74
 957 141 957 141 930 120 c 0,75,76
 756 -19 756 -19 547 -25 c 1,77,-1
 531 -25 l 2,78,79
 339 -25 339 -25 231 119 c 0,80,81
 155 220 155 220 155 348 c 0,82,83
 155 403 155 403 169 462 c 1,84,-1
 169 465 l 1,85,86
 221 684 221 684 419 833 c 0,87,88
 442 851 442 851 482.5 864 c 128,-1,89
 523 877 523 877 587 898 c 128,-1,90
 651 919 651 919 706.5 937 c 128,-1,91
 762 955 762 955 795 956 c 2,92,-1
 798 956 l 1,93,94
 991 948 991 948 1093 806 c 0,95,96
 1108 785 1108 785 1121 761 c 1,97,98
 1161 808 1161 808 1212 847 c 0,99,100
 1358 958 1358 958 1553 960 c 2,101,-1
 1557 960 l 2,36,37
EndSplineSet
Validated: 1
EndChar

StartChar: longs
Encoding: 383 383 321
Width: 625
GlyphClass: 1
Flags: W
LayerCount: 2
Fore
SplineSet
445 1027 m 2,0,1
 474 1154 474 1154 508.5 1219.5 c 128,-1,2
 543 1285 543 1285 569.5 1310.5 c 128,-1,3
 596 1336 596 1336 623 1345 c 2,4,-1
 892 1440 l 2,5,6
 901 1443 901 1443 928 1445 c 2,7,-1
 932 1445 l 2,8,9
 954 1445 954 1445 973 1429.5 c 128,-1,10
 992 1414 992 1414 996 1401 c 128,-1,11
 1000 1388 1000 1388 997 1374 c 128,-1,12
 994 1360 994 1360 986 1332 c 128,-1,13
 978 1304 978 1304 966 1301 c 2,14,-1
 963 1301 l 2,15,16
 952 1301 952 1301 923 1324 c 128,-1,17
 894 1347 894 1347 856.5 1347 c 128,-1,18
 819 1347 819 1347 789 1336 c 0,19,20
 697 1300 697 1300 664 1199 c 0,21,22
 651 1161 651 1161 640.5 1117 c 128,-1,23
 630 1073 630 1073 619 1027 c 2,24,-1
 416 146 l 2,25,26
 412 130 412 130 412 117 c 0,27,28
 412 78 412 78 447 64 c 0,29,30
 493 46 493 46 487.5 23 c 128,-1,31
 482 0 482 0 461 0 c 2,32,-1
 129 0 l 2,33,34
 108 0 108 0 113.5 23 c 128,-1,35
 119 46 119 46 173 63.5 c 128,-1,36
 227 81 227 81 242 146 c 2,37,-1
 403 844 l 1,38,-1
 283 844 l 2,39,40
 263 844 263 844 267 864 c 1,41,-1
 268 866 l 1,42,43
 271 881 271 881 293 891 c 0,44,45
 407 945 407 945 427 948 c 1,46,-1
 445 1027 l 2,0,1
EndSplineSet
Validated: 1
EndChar

StartChar: uni0182
Encoding: 386 386 324
Width: 1197
GlyphClass: 1
Flags: W
LayerCount: 2
Fore
SplineSet
384 0 m 1,0,-1
 128 0 l 2,1,2
 107 0 107 0 112 22 c 0,3,4
 118 48 118 48 172 66 c 128,-1,5
 226 84 226 84 241 148 c 2,6,-1
 498 1259 l 2,7,8
 502 1275 502 1275 502 1288 c 0,9,10
 502 1328 502 1328 467 1342 c 0,11,12
 421 1360 421 1360 427 1384 c 0,13,14
 432 1405 432 1405 452 1405 c 2,15,-1
 1368 1405 l 1,16,-1
 1382 1148 l 2,17,18
 1382 1140 1382 1140 1379 1127 c 0,19,20
 1374 1106 1374 1106 1353 1106 c 0,21,22
 1343 1106 1343 1106 1330 1128 c 0,23,24
 1306 1168 1306 1168 1258.5 1239.5 c 128,-1,25
 1211 1311 1211 1311 1118 1311 c 2,26,-1
 691 1311 l 1,27,-1
 558 737 l 1,28,-1
 871 737 l 2,29,30
 957 737 957 737 1078 701 c 0,31,32
 1180 668 1180 668 1218 559 c 0,33,34
 1232 516 1232 516 1232 464 c 0,35,36
 1232 414 1232 414 1219 355 c 0,37,38
 1193 243 1193 243 1107 152 c 0,39,40
 1033 74 1033 74 927 37 c 0,41,42
 819 0 819 0 737 0 c 2,43,-1
 467 0 l 1,44,-1
 384 0 l 1,0,-1
444 70 m 1,45,-1
 618 70 l 2,46,47
 687 70 687 70 762.5 90 c 128,-1,48
 838 110 838 110 901 161 c 0,49,50
 999 238 999 238 1028 365 c 0,51,52
 1037 402 1037 402 1037 436 c 0,53,54
 1037 513 1037 513 992 569 c 0,55,56
 923 654 923 654 773 654 c 2,57,-1
 538 654 l 1,58,-1
 421 148 l 2,59,60
 418 133 418 133 418 120 c 0,61,62
 418 85 418 85 444 70 c 1,45,-1
EndSplineSet
Validated: 1
EndChar

StartChar: uni0184
Encoding: 388 388 326
Width: 1192
GlyphClass: 1
Flags: W
LayerCount: 2
Fore
SplineSet
380 75 m 1,0,-1
 576 75 l 2,1,2
 744 75 744 75 858 164.5 c 128,-1,3
 972 254 972 254 1003 388 c 1,4,5
 1003 388 1003 388 1003 391 c 0,6,7
 1012 430 1012 430 1012 466 c 0,8,9
 1012 550 1012 550 962 612 c 0,10,11
 891 700 891 700 731 700 c 2,12,-1
 525 700 l 1,13,-1
 380 75 l 1,0,-1
103 0 m 0,14,15
 83 0 83 0 88 20 c 0,16,17
 94 45 94 45 147.5 62.5 c 128,-1,18
 201 80 201 80 216 145 c 2,19,-1
 473 1255 l 2,20,21
 477 1271 477 1271 477 1284 c 0,22,23
 477 1324 477 1324 442 1338 c 0,24,25
 396 1356 396 1356 401.5 1379.5 c 128,-1,26
 407 1403 407 1403 428 1403 c 2,27,-1
 766 1403 l 2,28,29
 787 1403 787 1403 781.5 1379 c 128,-1,30
 776 1355 776 1355 722 1337.5 c 128,-1,31
 668 1320 668 1320 653 1255 c 2,32,-1
 545 789 l 1,33,-1
 835 789 l 2,34,35
 932 789 932 789 1049.5 752.5 c 128,-1,36
 1167 716 1167 716 1206 599 c 0,37,38
 1222 552 1222 552 1222 495 c 0,39,40
 1222 442 1222 442 1208 384 c 0,41,42
 1180 260 1180 260 1094 170 c 128,-1,43
 1008 80 1008 80 892.5 40 c 128,-1,44
 777 0 777 0 692 0 c 2,45,46
 692 0 692 0 103 0 c 0,14,15
EndSplineSet
Validated: 1
EndChar

StartChar: uni0186
Encoding: 390 390 328
Width: 1405
GlyphClass: 1
Flags: W
LayerCount: 2
Fore
SplineSet
549 -37 m 0,0,1
 460 -37 460 -37 364.5 -23 c 128,-1,2
 269 -9 269 -9 182 31 c 1,3,4
 182 31 182 31 151 274 c 0,5,6
 150 279 150 279 150 283.5 c 128,-1,7
 150 288 150 288 151 292 c 0,8,9
 155 309 155 309 173 315 c 0,10,11
 177 316 177 316 181 316 c 0,12,13
 200 316 200 316 206 288 c 0,14,15
 239 149 239 149 325 103 c 0,16,17
 399 64 399 64 527 64 c 0,18,19
 549 64 549 64 573 65 c 0,20,21
 830 77 830 77 1021.5 266 c 128,-1,22
 1213 455 1213 455 1280 685 c 0,23,24
 1288 710 1288 710 1294 735 c 0,25,26
 1312 813 1312 813 1312 885 c 0,27,28
 1312 1021 1312 1021 1250 1140 c 0,29,30
 1145 1344 1145 1344 878 1356 c 1,31,32
 878 1356 878 1356 857 1356 c 0,33,34
 735 1356 735 1356 615 1303 c 0,35,36
 485 1244 485 1244 398 1119 c 0,37,38
 378 1092 378 1092 366 1091 c 2,39,40
 366 1091 366 1091 363 1091 c 0,41,42
 347 1091 347 1091 347 1109 c 2,43,44
 347 1109 347 1109 372 1319 c 1,45,46
 506 1394 506 1394 641.5 1419.5 c 128,-1,47
 777 1445 777 1445 892 1445 c 0,48,49
 894 1445 894 1445 895 1445 c 0,50,51
 1213 1445 1213 1445 1396 1242 c 0,52,53
 1524 1100 1524 1100 1524 893 c 0,54,55
 1524 891 1524 891 1524 890 c 0,56,57
 1524 801 1524 801 1501 701 c 0,58,59
 1421 355 1421 355 1138.5 159 c 128,-1,60
 856 -37 856 -37 549 -37 c 0,0,1
EndSplineSet
Validated: 1
EndChar

StartChar: uni018B
Encoding: 395 395 333
Width: 1130
GlyphClass: 1
Flags: W
LayerCount: 2
Fore
SplineSet
1093 1311 m 1,0,-1
 666 1311 l 2,1,2
 665 1311 665 1311 663 1311 c 0,3,4
 572 1311 572 1311 492 1240 c 0,5,6
 411 1168 411 1168 368 1128 c 0,7,8
 345 1106 345 1106 335 1106 c 0,9,10
 314 1106 314 1106 319 1127 c 0,11,12
 322 1140 322 1140 326 1148 c 2,13,-1
 458 1405 l 1,14,-1
 1374 1405 l 2,15,16
 1395 1405 1395 1405 1391 1384 c 0,17,18
 1385 1360 1385 1360 1331 1342 c 128,-1,19
 1277 1324 1277 1324 1262 1259 c 2,20,-1
 1005 148 l 2,21,22
 1001 132 1001 132 1001 119 c 0,23,24
 1001 79 1001 79 1039 64.5 c 128,-1,25
 1077 50 1077 50 1077 28 c 0,26,27
 1077 25 1077 25 1076 22 c 0,28,29
 1071 0 1071 0 1050 0 c 2,30,-1
 796 0 l 1,31,-1
 711 0 l 1,32,-1
 476 0 l 2,33,34
 390 0 390 0 269 36 c 0,35,36
 167 69 167 69 129 178 c 0,37,38
 115 221 115 221 115 273 c 0,39,40
 115 323 115 323 128 382 c 0,41,42
 154 494 154 494 240 585 c 0,43,44
 314 663 314 663 421 700 c 0,45,46
 529 737 529 737 610 737 c 2,47,-1
 960 737 l 1,48,-1
 1093 1311 l 1,0,-1
945 667 m 1,49,-1
 729 667 l 2,50,51
 660 667 660 667 584.5 647 c 128,-1,52
 509 627 509 627 446 576 c 0,53,54
 348 499 348 499 319 372 c 0,55,56
 310 335 310 335 310 301 c 0,57,58
 310 224 310 224 355 168 c 0,59,60
 424 83 424 83 574 83 c 2,61,-1
 788 83 l 1,62,63
 815 105 815 105 825 148 c 2,64,-1
 945 667 l 1,49,-1
EndSplineSet
Validated: 1
EndChar

StartChar: uni018D
Encoding: 397 397 335
Width: 1056
GlyphClass: 1
Flags: W
LayerCount: 2
Fore
SplineSet
711 267 m 0,0,1
 756 288 756 288 763 321 c 0,2,3
 767 339 767 339 757 356 c 0,4,5
 728 407 728 407 647 426 c 0,6,7
 489 463 489 463 394 488 c 0,8,9
 282 517 282 517 282 631 c 0,10,11
 282 653 282 653 286 679 c 2,12,-1
 288 689 l 2,13,14
 305 762 305 762 377 839 c 0,15,16
 456 921 456 921 580 956 c 0,17,18
 659 977 659 977 739 977 c 0,19,20
 764 977 764 977 788 975 c 0,21,22
 898 966 898 966 976 932 c 0,23,24
 1032 908 1032 908 1067 858 c 0,25,26
 1090 826 1090 826 1090 785 c 0,27,28
 1090 766 1090 766 1085 746 c 2,29,-1
 1083 736 l 2,30,31
 1054 611 1054 611 973 562 c 0,32,33
 887 510 887 510 819 492 c 1,34,35
 929 421 929 421 929 356 c 0,36,37
 929 347 929 347 927 338 c 1,38,39
 929 338 929 338 929 337 c 0,40,41
 907 252 907 252 790 202 c 1,42,-1
 161 -96 l 2,43,44
 125 -113 125 -113 119 -131 c 1,45,-1
 119 -132 l 1,46,47
 115 -148 115 -148 145 -148 c 2,48,-1
 631 -148 l 2,49,50
 675 -148 675 -148 692 -136 c 0,51,52
 708 -125 708 -125 731 -78 c 0,53,54
 760 -21 760 -21 788 -21 c 0,55,56
 808 -21 808 -21 804 -41 c 2,57,-1
 751 -267 l 2,58,59
 741 -303 741 -303 705 -303 c 2,60,-1
 -37 -303 l 2,61,62
 -53 -303 -53 -303 -47 -277 c 0,63,64
 -21 -164 -21 -164 -19 -157 c 0,65,66
 1 -72 1 -72 149 0 c 0,67,68
 354 99 354 99 711 267 c 0,0,1
749 529 m 2,69,70
 751 528 751 528 753 528 c 0,71,72
 792 537 792 537 878 585 c 0,73,74
 955 628 955 628 981 718 c 0,75,76
 987 738 987 738 988 756 c 0,77,78
 988 759 988 759 988 762 c 0,79,80
 988 809 988 809 943 848 c 0,81,82
 895 891 895 891 744 905 c 0,83,84
 733 906 733 906 714 906 c 0,85,86
 657 906 657 906 597 885 c 0,87,88
 525 860 525 860 481 799 c 0,89,90
 452 758 452 758 445 727 c 0,91,92
 445 726 445 726 444 724 c 0,93,94
 437 694 437 694 447 674 c 0,95,96
 475 616 475 616 522 601 c 2,97,-1
 749 529 l 2,69,70
EndSplineSet
Validated: 1
EndChar

StartChar: uni018E
Encoding: 398 398 336
Width: 1251
GlyphClass: 1
Flags: W
LayerCount: 2
Fore
SplineSet
908 94 m 1,0,-1
 1042 677 l 1,1,-1
 819 677 l 2,2,3
 755 677 755 677 720.5 626 c 128,-1,4
 686 575 686 575 660 575 c 0,5,6
 640 575 640 575 645 596 c 2,7,-1
 703 850 l 2,8,9
 708 871 708 871 728 871 c 2,10,-1
 729 871 l 2,11,12
 754 871 754 871 762 820 c 0,13,14
 770 768 770 768 834 768 c 2,15,-1
 1063 768 l 1,16,-1
 1189 1311 l 1,17,-1
 762 1311 l 2,18,19
 701 1311 701 1311 656 1273 c 128,-1,20
 611 1235 611 1235 545 1166 c 0,21,22
 509 1126 509 1126 499 1126 c 0,23,24
 478 1126 478 1126 483 1147 c 2,25,-1
 542 1405 l 1,26,-1
 1470 1405 l 2,27,28
 1491 1405 1491 1405 1486 1383 c 0,29,30
 1480 1358 1480 1358 1426 1340 c 128,-1,31
 1372 1322 1372 1322 1357 1257 c 2,32,-1
 1101 146 l 2,33,34
 1097 130 1097 130 1097 117 c 0,35,36
 1097 77 1097 77 1135 62.5 c 128,-1,37
 1173 48 1173 48 1173 27 c 0,38,39
 1173 24 1173 24 1172 21 c 0,40,41
 1167 0 1167 0 1149 0 c 2,42,-1
 230 0 l 1,43,-1
 216 257 l 2,44,45
 216 265 216 265 219 278 c 0,46,47
 224 299 224 299 245 299 c 0,48,49
 255 299 255 299 268 277 c 0,50,51
 293 238 293 238 340.5 166 c 128,-1,52
 388 94 388 94 481 94 c 2,53,-1
 908 94 l 1,0,-1
EndSplineSet
Validated: 1
EndChar

StartChar: uni018F
Encoding: 399 399 337
Width: 1316
GlyphClass: 1
Flags: W
LayerCount: 2
Fore
SplineSet
230 154 m 0,0,1
 159 257 159 257 159 400 c 0,2,3
 159 478 159 478 180 568 c 0,4,5
 194 624 194 624 202.5 647 c 128,-1,6
 211 670 211 670 265 670 c 2,7,-1
 1221 670 l 1,8,9
 1241 762 1241 762 1241 840 c 0,10,11
 1241 961 1241 961 1193 1047 c 0,12,13
 1095 1221 1095 1221 900 1262 c 0,14,15
 865 1270 865 1270 825 1270 c 0,16,17
 661 1270 661 1270 431 1138 c 0,18,19
 385 1112 385 1112 373 1124 c 0,20,21
 370 1128 370 1128 373 1140 c 0,22,23
 377 1158 377 1158 456 1216 c 0,24,25
 675 1383 675 1383 905 1383 c 0,26,27
 906 1383 906 1383 908 1383 c 0,28,29
 1274 1382 1274 1382 1404 1148 c 0,30,31
 1468 1033 1468 1033 1468 890 c 0,32,33
 1468 810 1468 810 1448 722 c 0,34,35
 1431 648 1431 648 1399 568 c 0,36,37
 1300 308 1300 308 1099 154 c 0,38,39
 894 -2 894 -2 620 -4 c 0,40,41
 340 -4 340 -4 230 154 c 0,0,1
344 594 m 1,42,43
 344 592 344 592 343 589 c 0,44,45
 316 474 316 474 316 386 c 0,46,47
 316 260 316 260 371 188 c 0,48,49
 455 78 455 78 663 78 c 0,50,51
 861 78 861 78 1013 250 c 0,52,53
 1117 368 1117 368 1205 594 c 1,54,-1
 344 594 l 1,42,43
EndSplineSet
Validated: 1
EndChar

StartChar: uni0190
Encoding: 400 400 338
Width: 870
GlyphClass: 1
Flags: W
LayerCount: 2
Fore
SplineSet
594 -31 m 0,0,1
 570 -31 570 -31 546 -28 c 0,2,3
 390 -12 390 -12 299 65 c 0,4,5
 155 189 155 189 155 362 c 0,6,7
 155 394 155 394 160 428 c 0,8,9
 162 443 162 443 166 458 c 0,10,11
 191 565 191 565 276 671 c 128,-1,12
 361 777 361 777 522 848 c 1,13,14
 490 876 490 876 468 903 c 0,15,16
 387 1001 387 1001 387 1100 c 0,17,18
 387 1129 387 1129 394 1157 c 0,19,20
 406 1209 406 1209 439 1262 c 0,21,22
 557 1443 557 1443 786 1446 c 0,23,24
 869 1446 869 1446 950.5 1410.5 c 128,-1,25
 1032 1375 1032 1375 1095 1283 c 1,26,27
 1095 1283 1095 1283 1059 1128 c 1,28,-1
 1055 1128 l 1,29,30
 1053 1174 1053 1174 1029 1214 c 0,31,32
 977 1301 977 1301 866 1308 c 0,33,34
 858 1309 858 1309 849 1309 c 0,35,36
 748 1309 748 1309 668.5 1242.5 c 128,-1,37
 589 1176 589 1176 554 1092 c 0,38,39
 546 1072 546 1072 542 1053 c 0,40,41
 537 1029 537 1029 537 1004 c 0,42,43
 537 961 537 961 553 914 c 0,44,45
 579 841 579 841 659 801.5 c 128,-1,46
 739 762 739 762 803 740 c 1,47,48
 803 740 803 740 794 712 c 1,49,50
 622 709 622 709 504 633.5 c 128,-1,51
 386 558 386 558 330 456 c 0,52,53
 306 410 306 410 294 359 c 0,54,55
 287 327 287 327 286 294 c 0,56,57
 286 274 286 274 289 253 c 0,58,59
 302 151 302 151 393 97 c 0,60,61
 454 61 454 61 518 61 c 128,-1,62
 582 61 582 61 636 73 c 0,63,64
 784 105 784 105 870 209 c 1,65,66
 870 209 870 209 876 209 c 1,67,-1
 833 42 l 1,68,69
 722 -31 722 -31 594 -31 c 0,0,1
EndSplineSet
Validated: 1
EndChar

StartChar: uni0191
Encoding: 401 401 339
Width: 1159
GlyphClass: 1
Flags: W
LayerCount: 2
Fore
SplineSet
539 1257 m 2,0,1
 543 1274 543 1274 543 1287 c 0,2,3
 543 1326 543 1326 505.5 1341.5 c 128,-1,4
 468 1357 468 1357 474 1383 c 0,5,6
 479 1404 479 1404 500 1404 c 2,7,-1
 1428 1404 l 1,8,-1
 1369 1147 l 2,9,10
 1364 1126 1364 1126 1343 1126 c 0,11,12
 1333 1126 1333 1126 1315 1166 c 0,13,14
 1281 1235 1281 1235 1253.5 1273 c 128,-1,15
 1226 1311 1226 1311 1166 1311 c 2,16,-1
 733 1311 l 1,17,-1
 607 768 l 1,18,-1
 842 768 l 2,19,20
 884 768 884 768 925 805 c 0,21,22
 948 827 948 827 964 849 c 128,-1,23
 980 871 980 871 996 871 c 0,24,25
 1016 871 1016 871 1011 850 c 2,26,-1
 953 596 l 2,27,28
 948 575 948 575 928 575 c 0,29,30
 910 575 910 575 903.5 600.5 c 128,-1,31
 897 626 897 626 881 650 c 0,32,33
 859 678 859 678 822 678 c 2,34,-1
 587 678 l 1,35,-1
 472 180 l 2,36,37
 427 -17 427 -17 378 -113 c 128,-1,38
 329 -209 329 -209 248 -277 c 0,39,40
 137 -369 137 -369 18 -399 c 1,41,-1
 29 -349 l 1,42,43
 74 -325 74 -325 116.5 -287.5 c 128,-1,44
 159 -250 159 -250 192 -189 c 0,45,46
 213 -148 213 -148 231 -74 c 128,-1,47
 249 0 249 0 289 174 c 2,48,-1
 539 1257 l 2,0,1
EndSplineSet
Validated: 1
EndChar

StartChar: uni0194
Encoding: 404 404 342
Width: 1481
GlyphClass: 1
Flags: W
LayerCount: 2
Fore
SplineSet
868 81 m 1,0,1
 881 -5 881 -5 900 -114 c 0,2,3
 912 -180 912 -180 912 -234 c 0,4,5
 912 -281 912 -281 903 -318 c 0,6,7
 902 -322 902 -322 901 -325 c 0,8,9
 900 -331 900 -331 900 -331 c 2,10,11
 899 -334 899 -334 898 -336 c 0,12,13
 888 -379 888 -379 831 -448 c 0,14,15
 765 -526 765 -526 654 -526 c 0,16,17
 651 -526 651 -526 647 -526 c 0,18,19
 644 -526 644 -526 640 -526 c 0,20,21
 637 -526 637 -526 634 -526 c 0,22,23
 564 -526 564 -526 519 -462 c 0,24,25
 492 -424 492 -424 492 -376 c 0,26,27
 492 -354 492 -354 498 -330 c 0,28,29
 501 -315 501 -315 507 -297 c 0,30,31
 538 -208 538 -208 597 -127 c 0,32,33
 655 -47 655 -47 673 -23 c 1,34,35
 665 22 665 22 660.5 56 c 128,-1,36
 656 90 656 90 655 99 c 2,37,-1
 523 1120 l 2,38,39
 510 1214 510 1214 500 1264 c 0,40,41
 491 1302 491 1302 458 1329 c 0,42,43
 438 1344 438 1344 417.5 1353 c 128,-1,44
 397 1362 397 1362 387 1372 c 0,45,46
 379 1379 379 1379 378 1386 c 0,47,48
 376 1393 376 1393 381 1400 c 0,49,50
 385 1406 385 1406 394 1406 c 2,51,-1
 724 1406 l 2,52,53
 732 1406 732 1406 739 1400 c 0,54,55
 746 1392 746 1392 748 1386 c 0,56,57
 749 1374 749 1374 732 1361 c 0,58,59
 721 1352 721 1352 706.5 1342 c 128,-1,60
 692 1332 692 1332 682 1317 c 0,61,62
 668 1294 668 1294 674 1269 c 2,63,-1
 843 213 l 1,64,-1
 1493 1118 l 2,65,66
 1511 1142 1511 1142 1515 1162 c 0,67,68
 1519 1179 1519 1179 1513 1193 c 0,69,70
 1503 1222 1503 1222 1474 1270 c 2,71,-1
 1439 1326 l 1,72,-1
 1581 1417 l 2,73,74
 1602 1432 1602 1432 1618 1414 c 2,75,-1
 1680 1332 l 2,76,77
 1699 1306 1699 1306 1691 1274 c 0,78,79
 1691 1272 1691 1272 1690 1269 c 0,80,81
 1685 1249 1685 1249 1670 1222 c 0,82,83
 1634 1157 1634 1157 1565 1060 c 2,84,-1
 868 81 l 1,0,1
691 -160 m 1,85,86
 612 -270 612 -270 597 -334 c 0,87,88
 596 -337 596 -337 596 -339 c 0,89,90
 590 -366 590 -366 593 -388 c 0,91,92
 600 -430 600 -430 623 -430 c 0,93,94
 640 -430 640 -430 665 -406 c 0,95,96
 689 -383 689 -383 698 -345 c 0,97,98
 703 -324 703 -324 703 -301 c 0,99,100
 703 -291 703 -291 702 -280 c 0,101,102
 694 -184 694 -184 691 -160 c 1,85,86
EndSplineSet
Validated: 1
EndChar

StartChar: uni0195
Encoding: 405 405 343
Width: 1771
GlyphClass: 1
Flags: W
LayerCount: 2
Fore
SplineSet
1742 412 m 2,0,1
 1740 399 1740 399 1737 386 c 0,2,3
 1710 267 1710 267 1640 185 c 0,4,5
 1563 94 1563 94 1338 25 c 0,6,7
 1238 -5 1238 -5 1159 -10 c 0,8,9
 1150 -11 1150 -11 1140 -11 c 0,10,11
 1071 -11 1071 -11 1008 23 c 0,12,13
 924 69 924 69 907 159 c 0,14,15
 902 185 902 185 902 221 c 0,16,17
 902 316 902 316 940 483 c 1,18,-1
 944 504 l 2,19,20
 961 577 961 577 961 636 c 0,21,22
 961 733 961 733 915 792 c 0,23,24
 868 852 868 852 785 852 c 0,25,26
 736 852 736 852 675 831 c 2,27,-1
 521 779 l 1,28,-1
 374 142 l 2,29,30
 370 126 370 126 370 113 c 0,31,32
 370 74 370 74 409 59 c 128,-1,33
 448 44 448 44 443 20 c 0,34,35
 438 0 438 0 418 0 c 2,36,-1
 89 0 l 2,37,38
 69 0 69 0 74 20 c 0,39,40
 80 44 80 44 132 61.5 c 128,-1,41
 184 79 184 79 199 142 c 2,42,-1
 448 1222 l 2,43,44
 452 1238 452 1238 452 1251 c 0,45,46
 452 1290 452 1290 413 1305 c 128,-1,47
 374 1320 374 1320 379 1344 c 0,48,49
 384 1365 384 1365 404 1365 c 0,50,51
 469 1368 469 1368 535 1384.5 c 128,-1,52
 601 1401 601 1401 670 1423 c 1,53,-1
 534 835 l 1,54,-1
 754 912 l 2,55,56
 817 934 817 934 875 934 c 0,57,58
 890 934 890 934 905 933 c 0,59,60
 975 925 975 925 1024 895 c 0,61,62
 1113 837 1113 837 1128 746 c 0,63,64
 1131 726 1131 726 1131 699 c 0,65,66
 1131 605 1131 605 1091 427 c 2,67,-1
 1088 414 l 2,68,69
 1070 334 1070 334 1070 265 c 0,70,71
 1070 258 1070 258 1071 217 c 128,-1,72
 1072 176 1072 176 1102 145 c 0,73,74
 1133 112 1133 112 1185 82 c 0,75,76
 1209 68 1209 68 1245 68 c 0,77,78
 1288 68 1288 68 1349 87 c 0,79,80
 1502 136 1502 136 1530 230 c 0,81,82
 1562 340 1562 340 1588 452 c 2,83,-1
 1595 480 l 2,84,85
 1623 605 1623 605 1652 731 c 0,86,87
 1655 745 1655 745 1655 757 c 0,88,89
 1655 797 1655 797 1615 811.5 c 128,-1,90
 1575 826 1575 826 1575 848 c 0,91,92
 1575 851 1575 851 1576 853 c 0,93,94
 1581 873 1581 873 1602 873 c 0,95,96
 1657 875 1657 875 1718 890 c 0,97,98
 1755 898 1755 898 1789.5 908.5 c 128,-1,99
 1824 919 1824 919 1862 931 c 1,100,-1
 1742 412 l 2,0,1
EndSplineSet
Validated: 1
EndChar

StartChar: uni0196
Encoding: 406 406 344
Width: 553
GlyphClass: 1
Flags: W
LayerCount: 2
Fore
SplineSet
383 6 m 2,0,1
 343 -168 343 -168 326 -242 c 0,2,3
 318 -282 318 -282 318 -323 c 0,4,5
 318 -340 318 -340 319 -357 c 0,6,7
 324 -419 324 -419 348 -456 c 0,8,9
 373 -493 373 -493 408 -517 c 1,10,-1
 396 -567 l 1,11,12
 290 -539 290 -539 222 -445 c 0,13,14
 172 -377 172 -377 168 -281 c 0,15,16
 168 -273 168 -273 168 -265 c 0,17,18
 168 -169 168 -169 210 12 c 2,19,-1
 497 1257 l 2,20,21
 501 1273 501 1273 501 1286 c 0,22,23
 501 1326 501 1326 466 1339 c 0,24,25
 425 1355 425 1355 425 1377 c 0,26,27
 425 1380 425 1380 426 1383 c 0,28,29
 431 1404 431 1404 452 1404 c 0,30,31
 519 1407 519 1407 585 1424 c 128,-1,32
 651 1441 651 1441 720 1463 c 1,33,-1
 383 6 l 2,0,1
EndSplineSet
Validated: 1
EndChar

StartChar: uni019C
Encoding: 412 412 350
Width: 1774
GlyphClass: 1
Flags: W
LayerCount: 2
Fore
SplineSet
1701 1185 m 2,0,1
 1709 1218 1709 1218 1709 1243 c 0,2,3
 1709 1292 1709 1292 1679 1309 c 0,4,5
 1642 1330 1642 1330 1642 1359 c 0,6,7
 1642 1365 1642 1365 1644 1372 c 0,8,9
 1651 1404 1651 1404 1671 1404 c 2,10,-1
 2004 1404 l 2,11,12
 2025 1404 2025 1404 2018 1372 c 0,13,14
 2009 1334 2009 1334 1953 1309 c 0,15,16
 1897 1283 1897 1283 1875 1185 c 2,17,-1
 1654 230 l 2,18,19
 1647 199 1647 199 1647 175 c 0,20,21
 1647 127 1647 127 1676 108 c 0,22,23
 1713 86 1713 86 1713 55 c 0,24,25
 1713 49 1713 49 1711 42 c 0,26,27
 1704 10 1704 10 1682 10 c 0,28,29
 1625 10 1625 10 1551 -20 c 0,30,31
 1488 -46 1488 -46 1451 -93 c 0,32,33
 1443 -103 1443 -103 1436 -102 c 0,34,35
 1425 -99 1425 -99 1419 -93 c 0,36,37
 1408 -84 1408 -84 1411 -68 c 2,38,-1
 1455 121 l 1,39,40
 1416 101 1416 101 1376 80 c 0,41,42
 1310 46 1310 46 1238 12 c 0,43,44
 1129 -39 1129 -39 1041 -39 c 0,45,46
 1040 -39 1040 -39 1039 -39 c 0,47,48
 952 -39 952 -39 897 46 c 0,49,50
 880 72 880 72 870 112 c 1,51,52
 839 96 839 96 808 80 c 0,53,54
 742 46 742 46 670 12 c 0,55,56
 561 -39 561 -39 473 -39 c 0,57,58
 472 -39 472 -39 471 -39 c 0,59,60
 384 -39 384 -39 329 46 c 0,61,62
 292 103 292 103 292 226 c 0,63,64
 292 382 292 382 352 645 c 2,65,-1
 477 1185 l 2,66,67
 485 1218 485 1218 485 1243 c 0,68,69
 485 1292 485 1292 455 1309 c 0,70,71
 418 1332 418 1332 418 1360 c 0,72,73
 418 1365 418 1365 422.5 1384.5 c 128,-1,74
 427 1404 427 1404 447 1404 c 2,75,-1
 684 1404 l 2,76,77
 701 1404 701 1404 697 1384 c 2,78,-1
 526 645 l 2,79,80
 484 462 484 462 484 339 c 0,81,82
 484 242 484 242 510 183 c 0,83,84
 548 98 548 98 630 98 c 0,85,86
 698 98 698 98 860 182 c 1,87,88
 859 202 859 202 859 224 c 0,89,90
 859 380 859 380 920 645 c 2,91,-1
 1045 1185 l 2,92,93
 1053 1218 1053 1218 1053 1243 c 0,94,95
 1053 1292 1053 1292 1023 1309 c 0,96,97
 986 1330 986 1330 986 1359 c 0,98,99
 986 1365 986 1365 988 1372 c 0,100,101
 995 1404 995 1404 1015 1404 c 2,102,-1
 1348 1404 l 2,103,104
 1369 1404 1369 1404 1362 1372 c 0,105,106
 1353 1334 1353 1334 1297 1309 c 0,107,108
 1241 1283 1241 1283 1219 1185 c 2,109,-1
 1094 645 l 2,110,111
 1052 462 1052 462 1052 339 c 0,112,113
 1052 242 1052 242 1078 183 c 0,114,115
 1116 98 1116 98 1198 98 c 0,116,117
 1275 98 1275 98 1475 207 c 1,118,-1
 1701 1185 l 2,0,1
EndSplineSet
Validated: 1
EndChar

StartChar: uni019D
Encoding: 413 413 351
Width: 1672
GlyphClass: 1
Flags: W
LayerCount: 2
Fore
SplineSet
443 0 m 1,0,1
 391 -199 391 -199 307.5 -364.5 c 128,-1,2
 224 -530 224 -530 34 -557 c 0,3,4
 23 -561 23 -561 19 -561 c 2,5,-1
 -48 -574 l 2,6,7
 -56 -575 -56 -575 -64 -575 c 0,8,9
 -114 -575 -114 -575 -114 -510 c 0,10,11
 -114 -506 -114 -506 -114 -502 c 0,12,13
 -114 -487 -114 -487 -110 -474 c 0,14,15
 -96 -415 -96 -415 -42 -405 c 2,16,-1
 26 -392 l 2,17,18
 35 -390 35 -390 43 -390 c 0,19,20
 92 -390 92 -390 92 -459 c 0,21,22
 92 -462 92 -462 92 -464 c 1,23,24
 105 -459 105 -459 108 -457 c 0,25,26
 219 -379 219 -379 255 -298 c 128,-1,27
 291 -217 291 -217 355 20 c 1,28,-1
 632 1222 l 2,29,30
 636 1238 636 1238 636 1251 c 0,31,32
 636 1290 636 1290 597 1305 c 128,-1,33
 558 1320 558 1320 563 1344 c 0,34,35
 568 1365 568 1365 588 1365 c 2,36,-1
 838 1365 l 1,37,-1
 1499 197 l 1,38,-1
 1736 1222 l 2,39,40
 1740 1238 1740 1238 1740 1251 c 0,41,42
 1740 1290 1740 1290 1701 1305 c 128,-1,43
 1662 1320 1662 1320 1667 1344 c 0,44,45
 1672 1365 1672 1365 1692 1365 c 2,46,-1
 1940 1365 l 2,47,48
 1960 1365 1960 1365 1955 1344 c 0,49,50
 1949 1320 1949 1320 1897 1302.5 c 128,-1,51
 1845 1285 1845 1285 1830 1222 c 2,52,-1
 1537 -42 l 1,53,-1
 1375 0 l 1,54,-1
 711 1156 l 1,55,-1
 443 0 l 1,0,1
EndSplineSet
Validated: 1
EndChar

StartChar: uni019E
Encoding: 414 414 352
Width: 1191
GlyphClass: 1
Flags: W
LayerCount: 2
Fore
SplineSet
979 814 m 0,0,1
 934 871 934 871 853 871 c 128,-1,2
 772 871 772 871 564 790 c 1,3,-1
 416 146 l 2,4,5
 412 130 412 130 412 117 c 0,6,7
 412 78 412 78 447 64 c 0,8,9
 493 46 493 46 487 21 c 0,10,11
 482 0 482 0 462 0 c 2,12,-1
 129 0 l 2,13,14
 108 0 108 0 113 21 c 0,15,16
 119 46 119 46 173 63.5 c 128,-1,17
 227 81 227 81 242 146 c 2,18,-1
 389 783 l 2,19,20
 393 798 393 798 393 811 c 0,21,22
 393 850 393 850 358 864 c 0,23,24
 317 880 317 880 317 902 c 0,25,26
 317 905 317 905 318 908 c 0,27,28
 323 929 323 929 343 929 c 0,29,30
 400 929 400 929 472 949 c 0,31,32
 533 966 533 966 567 998 c 0,33,34
 575 1005 575 1005 581 1004 c 0,35,36
 593 1002 593 1002 599 998 c 0,37,38
 611 992 611 992 608 981 c 2,39,-1
 578 849 l 1,40,41
 626 866 626 866 674 883 c 0,42,43
 737 906 737 906 806 928 c 0,44,45
 911 962 911 962 999 962 c 128,-1,46
 1087 962 1087 962 1150 905 c 0,47,48
 1204 856 1204 856 1204 733 c 0,49,50
 1204 640 1204 640 1173 506 c 2,51,-1
 954 -441 l 2,52,53
 950 -457 950 -457 950 -470 c 0,54,55
 950 -510 950 -510 985 -524 c 0,56,57
 1031 -542 1031 -542 1025.5 -564.5 c 128,-1,58
 1020 -587 1020 -587 1000 -587 c 2,59,-1
 763 -587 l 2,60,61
 746 -587 746 -587 749 -574 c 2,62,-1
 999 506 l 2,63,64
 1020 597 1020 597 1020 666 c 0,65,66
 1020 762 1020 762 979 814 c 0,0,1
EndSplineSet
Validated: 1
EndChar

StartChar: uni019F
Encoding: 415 415 353
Width: 1610
GlyphClass: 1
Flags: W
LayerCount: 2
Fore
SplineSet
1142 1446 m 1,0,-1
 1152 1446 l 2,1,2
 1475 1446 1475 1446 1651 1248 c 0,3,4
 1766 1118 1766 1118 1766 931 c 0,5,6
 1766 851 1766 851 1745 760 c 0,7,8
 1739 733 1739 733 1731 705 c 0,9,10
 1632 362 1632 362 1370 172 c 128,-1,11
 1108 -18 1108 -18 798 -35 c 0,12,13
 775 -36 775 -36 752 -36 c 0,14,15
 474 -36 474 -36 304 156 c 0,16,17
 181 294 181 294 181 493 c 0,18,19
 181 576 181 576 202 669 c 0,20,21
 206 687 206 687 212 705 c 0,22,23
 304 1046 304 1046 557.5 1244 c 128,-1,24
 811 1442 811 1442 1142 1446 c 1,0,-1
1122 1358 m 0,25,26
 815 1356 815 1356 648 1164 c 0,27,28
 501 995 501 995 436 765 c 1,29,-1
 1532 765 l 1,30,31
 1542 832 1542 832 1542 896 c 0,32,33
 1542 1033 1542 1033 1494 1154 c 0,34,35
 1414 1358 1414 1358 1122 1358 c 0,25,26
1507 648 m 1,36,-1
 409 648 l 1,37,38
 397 579 397 579 397 515 c 0,39,40
 397 362 397 362 465 240 c 0,41,42
 574 48 574 48 819 46 c 2,43,-1
 824 46 l 2,44,45
 1063 46 1063 46 1264 250 c 0,46,47
 1443 432 1443 432 1507 648 c 1,36,-1
EndSplineSet
Validated: 1
EndChar

StartChar: uni01A7
Encoding: 423 423 360
Width: 1075
GlyphClass: 1
Flags: W
LayerCount: 2
Fore
SplineSet
328 388 m 2,0,1
 317 340 317 340 317 298 c 0,2,3
 317 248 317 248 339 191 c 128,-1,4
 361 134 361 134 427 98 c 0,5,6
 492 60 492 60 547 56 c 0,7,8
 589 53 589 53 614 53 c 0,9,10
 620 53 620 53 626 53 c 0,11,12
 750 53 750 53 848 96 c 128,-1,13
 946 139 946 139 1042 278 c 0,14,15
 1061 304 1061 304 1074 307 c 0,16,17
 1087 308 1087 308 1092.5 296 c 128,-1,18
 1098 284 1098 284 1095 276 c 0,19,20
 1093 268 1093 268 1090 264 c 2,21,-1
 934 0 l 1,22,23
 798 -39 798 -39 659 -39 c 0,24,25
 655 -39 655 -39 649 -39 c 0,26,27
 626 -39 626 -39 578 -36 c 0,28,29
 518 -32 518 -32 427 0 c 0,30,31
 335 32 335 32 262 103 c 0,32,33
 157 204 157 204 157 350 c 0,34,35
 157 401 157 401 170 459 c 0,36,37
 188 538 188 538 226.5 596 c 128,-1,38
 265 654 265 654 318 700 c 0,39,40
 371 747 371 747 457 772 c 0,41,42
 542 796 542 796 608 806 c 128,-1,43
 674 816 674 816 724 824 c 128,-1,44
 774 832 774 832 811.5 838 c 128,-1,45
 849 844 849 844 887 853 c 128,-1,46
 925 862 925 862 976 894 c 0,47,48
 1028 926 1028 926 1065 994 c 0,49,50
 1085 1027 1085 1027 1093.5 1062 c 128,-1,51
 1102 1097 1102 1097 1102 1137 c 0,52,53
 1102 1173 1102 1173 1093 1208 c 0,54,55
 1084 1246 1084 1246 1063.5 1274 c 128,-1,56
 1043 1302 1043 1302 989.5 1330 c 128,-1,57
 936 1358 936 1358 845 1359 c 2,58,-1
 829 1359 l 2,59,60
 733 1356 733 1356 636.5 1292 c 128,-1,61
 540 1228 540 1228 476 1138 c 0,62,63
 458 1111 458 1111 444 1110 c 2,64,-1
 440 1110 l 2,65,66
 423 1110 423 1110 425 1128 c 2,67,-1
 450 1338 l 1,68,69
 629 1439 629 1439 855 1449 c 1,70,-1
 885 1449 l 2,71,72
 887 1449 887 1449 888 1449 c 0,73,74
 1090 1449 1090 1449 1193 1328 c 0,75,76
 1267 1242 1267 1242 1267 1122 c 0,77,78
 1267 1073 1267 1073 1254 1018 c 0,79,80
 1232 922 1232 922 1169 840 c 128,-1,81
 1106 758 1106 758 1002 714 c 0,82,83
 897 669 897 669 784 657 c 0,84,85
 671 644 671 644 586 622 c 128,-1,86
 501 600 501 600 456 572 c 0,87,88
 359 512 359 512 330 399 c 1,89,-1
 328 388 l 2,0,1
EndSplineSet
Validated: 1
EndChar

StartChar: uni01A8
Encoding: 424 424 361
Width: 884
GlyphClass: 1
Flags: W
LayerCount: 2
Fore
SplineSet
319 679 m 2,0,1
 305 679 305 679 306 694 c 2,2,-1
 326 869 l 1,3,4
 476 950 476 950 624 958 c 0,5,6
 636 959 636 959 648 959 c 0,7,8
 650 959 650 959 652 959 c 0,9,10
 782 959 782 959 880 896 c 0,11,12
 953 849 953 849 953 752 c 0,13,14
 953 718 953 718 944 677 c 2,15,-1
 943 672 l 2,16,17
 917 558 917 558 817.5 500 c 128,-1,18
 718 442 718 442 622 416 c 0,19,20
 526 392 526 392 415.5 362 c 128,-1,21
 305 332 305 332 280 224 c 1,22,-1
 278 218 l 2,23,24
 275 201 275 201 275 186 c 0,25,26
 275 118 275 118 348 87 c 128,-1,27
 421 56 421 56 493 55 c 2,28,-1
 505 55 l 2,29,30
 608 58 608 58 683.5 100 c 128,-1,31
 759 142 759 142 828 240 c 0,32,33
 844 262 844 262 855 264 c 2,34,-1
 857 264 l 2,35,36
 874 264 874 264 871 249 c 2,37,-1
 870 229 l 1,38,-1
 738 9 l 1,39,40
 619 -23 619 -23 496 -23 c 2,41,-1
 469 -23 l 2,42,43
 381 -20 381 -20 293 12 c 0,44,45
 206 44 206 44 164 122 c 0,46,47
 134 177 134 177 134 230 c 0,48,49
 134 252 134 252 139 273 c 2,50,-1
 141 283 l 1,51,52
 187 439 187 439 304.5 488 c 128,-1,53
 422 537 422 537 538 562 c 0,54,55
 656 586 656 586 727 618 c 0,56,57
 797 650 797 650 811 711 c 0,58,59
 816 731 816 731 816 755 c 0,60,61
 816 818 816 818 764 850 c 128,-1,62
 712 882 712 882 649 882 c 2,63,-1
 645 882 l 1,64,65
 564 878 564 878 483.5 828 c 128,-1,66
 403 778 403 778 349 703 c 0,67,68
 334 680 334 680 322 679 c 2,69,-1
 319 679 l 2,0,1
EndSplineSet
Validated: 1
EndChar

StartChar: uni01A9
Encoding: 425 425 362
Width: 1191
GlyphClass: 1
Flags: W
LayerCount: 2
Fore
SplineSet
385 112 m 1,0,-1
 865 112 l 2,1,2
 955 112 955 112 1031.5 171 c 128,-1,3
 1108 230 1108 230 1149 269 c 0,4,5
 1172 291 1172 291 1182 291 c 0,6,7
 1202 291 1202 291 1197 270 c 0,8,9
 1194 257 1194 257 1191 250 c 2,10,-1
 1062 0 l 1,11,-1
 54 0 l 1,12,-1
 685 654 l 1,13,-1
 369 1365 l 1,14,-1
 1388 1365 l 1,15,-1
 1330 1115 l 2,16,17
 1325 1095 1325 1095 1306 1095 c 0,18,19
 1297 1095 1297 1095 1279 1133 c 0,20,21
 1246 1200 1246 1200 1216.5 1228.5 c 128,-1,22
 1187 1257 1187 1257 1129 1257 c 2,23,-1
 664 1257 l 1,24,-1
 926 683 l 1,25,-1
 385 112 l 1,0,-1
EndSplineSet
Validated: 1
EndChar

StartChar: uni01AA
Encoding: 426 426 363
Width: 625
GlyphClass: 1
Flags: W
LayerCount: 2
Fore
SplineSet
602 1027 m 2,0,1
 612 1073 612 1073 622 1117 c 128,-1,2
 632 1161 632 1161 637 1199 c 0,3,4
 639 1214 639 1214 639 1227 c 0,5,6
 639 1305 639 1305 574 1336 c 0,7,8
 550 1347 550 1347 522 1347 c 0,9,10
 475 1347 475 1347 420 1316 c 0,11,12
 396 1301 396 1301 384 1301 c 2,13,-1
 381 1301 l 2,14,15
 371 1304 371 1304 380 1351 c 0,16,17
 381 1360 381 1360 383 1368 c 0,18,19
 388 1388 388 1388 396 1400 c 0,20,21
 407 1414 407 1414 439 1433 c 0,22,23
 461 1445 461 1445 483 1445 c 2,24,-1
 487 1445 l 2,25,26
 512 1443 512 1443 519 1440 c 2,27,-1
 753 1345 l 2,28,29
 776 1336 776 1336 785 1319 c 0,30,31
 805 1285 805 1285 808 1234 c 0,32,33
 809 1223 809 1223 809 1210 c 0,34,35
 809 1136 809 1136 783 1027 c 2,36,-1
 547 6 l 2,37,38
 507 -168 507 -168 491.5 -235 c 128,-1,39
 476 -302 476 -302 476 -340 c 0,40,41
 476 -349 476 -349 477 -357 c 0,42,43
 485 -460 485 -460 567 -517 c 1,44,-1
 555 -567 l 1,45,46
 449 -539 449 -539 380 -445 c 0,47,48
 331 -377 331 -377 329 -325 c 128,-1,49
 327 -273 327 -273 327 -265 c 0,50,51
 327 -169 327 -169 368 12 c 2,52,-1
 602 1027 l 2,0,1
EndSplineSet
Validated: 1
EndChar

StartChar: uni01B7
Encoding: 439 439 368
Width: 1028
GlyphClass: 1
Flags: W
LayerCount: 2
Fore
SplineSet
798 848 m 1,0,1
 984 731 984 731 1016 646 c 0,2,3
 1036 588 1036 588 1036 527 c 0,4,5
 1036 484 1036 484 1026 440 c 0,6,7
 1024 432 1024 432 1021.5 424.5 c 128,-1,8
 1019 417 1019 417 1018 410 c 0,9,10
 951 192 951 192 711 47 c 0,11,12
 592 -25 592 -25 422 -45 c 0,13,14
 396 -48 396 -48 372 -48 c 0,15,16
 207 -48 207 -48 115 42 c 1,17,-1
 144 190 l 1,18,-1
 163 190 l 1,19,20
 204 103 204 103 326 73 c 0,21,22
 374 61 374 61 420 61 c 0,23,24
 502 61 502 61 579 97 c 0,25,26
 694 150 694 150 755 253 c 0,27,28
 788 309 788 309 801 363 c 0,29,30
 809 397 809 397 809 434 c 0,31,32
 809 445 809 445 808 456 c 0,33,34
 799 557 799 557 716 634 c 0,35,36
 633 708 633 708 462 712 c 1,37,-1
 467 740 l 1,38,39
 505 751 505 751 547 779 c 0,40,41
 590 808 590 808 617 851 c 2,42,-1
 916 1311 l 1,43,-1
 609 1311 l 2,44,45
 549 1311 549 1311 503 1273 c 0,46,47
 458 1234 458 1234 392 1166 c 0,48,49
 354 1126 354 1126 346 1126 c 0,50,51
 325 1126 325 1126 330 1147 c 2,52,-1
 389 1404 l 1,53,-1
 1197 1404 l 2,54,55
 1218 1404 1218 1404 1213 1383 c 0,56,57
 1207 1357 1207 1357 1153 1339 c 0,58,59
 1127 1330 1127 1330 1075 1262.5 c 128,-1,60
 1023 1195 1023 1195 968 1112 c 128,-1,61
 913 1029 913 1029 865 952 c 128,-1,62
 817 875 817 875 798 848 c 1,0,1
EndSplineSet
Validated: 1
EndChar

StartChar: uni01B8
Encoding: 440 440 369
Width: 1028
GlyphClass: 1
Flags: W
LayerCount: 2
Fore
SplineSet
583 848 m 1,0,1
 576 875 576 875 564 952 c 128,-1,2
 552 1029 552 1029 535 1112 c 128,-1,3
 518 1195 518 1195 497 1262.5 c 128,-1,4
 476 1330 476 1330 454 1339 c 0,5,6
 413 1355 413 1355 413 1377 c 0,7,8
 413 1380 413 1380 414 1383 c 0,9,10
 419 1404 419 1404 440 1404 c 2,11,12
 440 1404 440 1404 1248 1404 c 1,13,-1
 1189 1147 l 2,14,15
 1184 1126 1184 1126 1163 1126 c 0,16,17
 1155 1126 1155 1126 1135 1166 c 0,18,19
 1101 1234 1101 1234 1074 1273 c 0,20,21
 1046 1311 1046 1311 986 1311 c 2,22,23
 986 1311 986 1311 679 1311 c 1,24,-1
 764 851 l 2,25,26
 772 808 772 808 802 779 c 0,27,28
 832 751 832 751 864 740 c 1,29,30
 864 740 864 740 855 712 c 1,31,32
 682 708 682 708 565 634 c 0,33,34
 446 557 446 557 391 456 c 0,35,36
 366 407 366 407 356 363 c 0,37,38
 348 327 348 327 348 290 c 0,39,40
 348 272 348 272 350 253 c 0,41,42
 363 150 363 150 454 97 c 0,43,44
 515 61 515 61 597 61 c 0,45,46
 643 61 643 61 697 73 c 0,47,48
 833 103 833 103 914 190 c 1,49,50
 914 190 914 190 933 190 c 1,51,-1
 894 42 l 1,52,53
 760 -48 760 -48 595 -48 c 0,54,55
 571 -48 571 -48 547 -45 c 0,56,57
 386 -25 386 -25 300 47 c 0,58,59
 155 168 155 168 155 340 c 0,60,61
 155 374 155 374 161 410 c 0,62,63
 163 417 163 417 164 424.5 c 128,-1,64
 165 432 165 432 167 440 c 0,65,66
 192 547 192 547 271 646 c 0,67,68
 343 731 343 731 583 848 c 1,0,1
EndSplineSet
Validated: 1
EndChar

StartChar: uni01C0
Encoding: 448 448 375
Width: 300
GlyphClass: 1
Flags: W
LayerCount: 2
Fore
SplineSet
424 1404 m 1,0,-1
 524 1404 l 1,1,-1
 200 0 l 1,2,-1
 100 0 l 1,3,-1
 424 1404 l 1,0,-1
EndSplineSet
Validated: 1
EndChar

StartChar: uni01F6
Encoding: 502 502 429
Width: 2565
GlyphClass: 1
Flags: W
LayerCount: 2
Fore
SplineSet
1378 697 m 1,0,-1
 533 697 l 1,1,-1
 406 146 l 2,2,3
 402 130 402 130 402 117 c 0,4,5
 402 77 402 77 442.5 61.5 c 128,-1,6
 483 46 483 46 477 21 c 0,7,8
 472 0 472 0 451 0 c 2,9,-1
 112 0 l 2,10,11
 92 0 92 0 97 21 c 0,12,13
 103 46 103 46 157 63.5 c 128,-1,14
 211 81 211 81 226 146 c 2,15,-1
 482 1257 l 2,16,17
 486 1273 486 1273 486 1286 c 0,18,19
 486 1326 486 1326 448 1340.5 c 128,-1,20
 410 1355 410 1355 410 1377 c 0,21,22
 410 1380 410 1380 411 1383 c 0,23,24
 416 1404 416 1404 437 1404 c 2,25,-1
 775 1404 l 2,26,27
 796 1404 796 1404 791 1383 c 0,28,29
 785 1357 785 1357 731 1339 c 128,-1,30
 677 1321 677 1321 662 1257 c 2,31,-1
 554 789 l 1,32,-1
 1399 789 l 1,33,-1
 1507 1257 l 2,34,35
 1511 1273 1511 1273 1511 1286 c 0,36,37
 1511 1326 1511 1326 1473 1340.5 c 128,-1,38
 1435 1355 1435 1355 1435 1377 c 0,39,40
 1435 1380 1435 1380 1436 1383 c 0,41,42
 1441 1404 1441 1404 1462 1404 c 2,43,-1
 1801 1404 l 2,44,45
 1821 1404 1821 1404 1816 1383 c 0,46,47
 1810 1357 1810 1357 1756 1339 c 128,-1,48
 1702 1321 1702 1321 1687 1257 c 2,49,-1
 1564 721 l 2,50,51
 1529 568 1529 568 1517 484 c 128,-1,52
 1505 400 1505 400 1505 356 c 0,53,54
 1505 297 1505 297 1518 251 c 0,55,56
 1541 170 1541 170 1616.5 128 c 128,-1,57
 1692 86 1692 86 1842 86 c 0,58,59
 2104 86 2104 86 2248 294 c 0,60,61
 2347 438 2347 438 2412 721 c 2,62,-1
 2536 1257 l 2,63,64
 2540 1273 2540 1273 2540 1286 c 0,65,66
 2540 1326 2540 1326 2502.5 1340.5 c 128,-1,67
 2465 1355 2465 1355 2465 1377 c 0,68,69
 2465 1380 2465 1380 2466 1383 c 0,70,71
 2471 1404 2471 1404 2491 1404 c 2,72,-1
 2746 1404 l 2,73,74
 2767 1404 2767 1404 2762 1383 c 0,75,76
 2756 1357 2756 1357 2702 1339 c 128,-1,77
 2648 1321 2648 1321 2633 1257 c 2,78,-1
 2479 588 l 2,79,80
 2445 439 2445 439 2389.5 315.5 c 128,-1,81
 2334 192 2334 192 2243 108 c 0,82,83
 2084 -39 2084 -39 1813 -39 c 0,84,85
 1642 -39 1642 -39 1529 -7 c 128,-1,86
 1416 25 1416 25 1363 109 c 0,87,88
 1315 184 1315 184 1315 314 c 0,89,90
 1315 425 1315 425 1350 577 c 2,91,-1
 1378 697 l 1,0,-1
EndSplineSet
Validated: 1
EndChar

StartChar: uni01F7
Encoding: 503 503 430
Width: 1237
GlyphClass: 1
Flags: W
LayerCount: 2
Fore
SplineSet
725 1257 m 2,0,-1
 714 1208 l 1,1,-1
 1035 1265 l 2,2,3
 1080 1272 1080 1272 1124 1272 c 0,4,5
 1186 1272 1186 1272 1248 1258 c 0,6,7
 1354 1232 1354 1232 1387 1109 c 0,8,9
 1397 1067 1397 1067 1397 1017 c 0,10,11
 1397 946 1397 946 1377 858 c 0,12,13
 1343 718 1343 718 1250 588 c 0,14,15
 1171 480 1171 480 1056 413.5 c 128,-1,16
 941 347 941 347 856 332 c 2,17,-1
 497 269 l 1,18,-1
 333 -441 l 2,19,20
 329 -456 329 -456 329 -469 c 0,21,22
 329 -508 329 -508 367 -523 c 128,-1,23
 405 -538 405 -538 405 -560 c 0,24,25
 405 -563 405 -563 404 -566 c 0,26,27
 399 -587 399 -587 378 -587 c 2,28,-1
 39 -587 l 2,29,30
 19 -587 19 -587 24 -566 c 0,31,32
 30 -540 30 -540 84.5 -522 c 128,-1,33
 139 -504 139 -504 153 -441 c 2,34,-1
 545 1257 l 2,35,36
 549 1273 549 1273 549 1286 c 0,37,38
 549 1326 549 1326 511 1340.5 c 128,-1,39
 473 1355 473 1355 473 1377 c 0,40,41
 473 1380 473 1380 474 1383 c 0,42,43
 479 1404 479 1404 500 1404 c 2,44,-1
 838 1404 l 2,45,46
 859 1404 859 1404 854 1383 c 0,47,48
 848 1357 848 1357 794 1339.5 c 128,-1,49
 740 1322 740 1322 725 1257 c 2,0,-1
518 358 m 1,50,-1
 736 397 l 2,51,52
 808 409 808 409 887.5 448 c 128,-1,53
 967 487 967 487 1035 560 c 0,54,55
 1140 674 1140 674 1177 831 c 2,56,-1
 1178 835 l 2,57,58
 1191 892 1191 892 1191 940 c 0,59,60
 1191 1024 1191 1024 1151 1079 c 0,61,62
 1099 1151 1099 1151 994 1151 c 0,63,64
 964 1151 964 1151 928 1145 c 2,65,-1
 690 1103 l 1,66,-1
 518 358 l 1,50,-1
EndSplineSet
Validated: 1
EndChar

